<svg version="1" xmlns="http://www.w3.org/2000/svg" width="1417.333" height="1417.333" viewbox="0 0 1063.000000 1063.000000"><path d="M497.8 62.5c-.1.2-5.2.6-11.3.9-6 .3-13.2.8-16 1.1-12.9 1.2-21.5 2.2-26 3-1.6.2-4.8.7-7 1-7.2 1.1-9.9 1.6-14 2.6-2.2.5-5.3 1.2-7 1.4-1.6.3-8.2 1.8-14.5 3.5-13.1 3.5-12 3.2-18 5-2.5.8-4.7 1.4-5 1.4-.3.1-1.8.6-3.5 1.3-1.6.6-6.4 2.4-10.5 3.9-4.1 1.6-8.5 3.4-9.7 4.2-1.3.8-2.3 1.2-2.3.8 0-.6-23.4 11.2-27.7 14.1-4.7 3-6.7 4.3-8.3 5-.8.4-1.7.9-2 1.2-.3.4-3.9 3.1-8 6.2-8 6-15.3 12.3-20.4 17.8-1.7 1.8-4.6 4.9-6.3 6.8-1.8 1.8-3.3 3.7-3.3 4.2s-.4 1.1-.8 1.3c-1 .4-13.4 17.8-12.6 17.8.3 0-.7 1.6-2.2 3.5-1.4 1.9-2.4 3.5-2 3.5.3 0-.4 1.7-1.7 3.7-2.8 4.5-7.7 15-7.7 16.3 0 .6-.5 1-1 1-.6 0-.9.3-.9.7.3 1.7-1.4 7.3-2.2 7.3-.5 0-.9 1-.9 2.3 0 1.3-.3 2.7-.7 3-1.2 1.2-4.3 11-3.7 11.8.3.5.1.9-.3.9-.7 0-2.8 5.7-3.7 10.1-.2.8-.6 2.1-.9 2.9-.8 2-3.6 12.8-4.1 16-.2.8-.8 3.4-1.5 5.8-.6 2.3-.9 4.7-.6 5.2.3.6.2 1-.3 1s-.9.6-.9 1.2c0 .7-.4 2.9-.8 4.8-.8 4.2-1.2 6.4-1.9 11-3.2 20.2-2.9 19.5-6.4 20.9-4.8 1.9-46.4-.5-62.2-3.5-1.4-.3-4.1-.8-6-1.1-1.9-.3-4.3-1-5.3-1.5s-2.1-.7-2.4-.4c-.3.3-2.2-.1-4.1-1-4.7-1.9-11.4-2.2-14.6-.5-3.6 2-5.1 6.5-5.1 15.6 0 28.3 9.7 44.9 37.3 64.2 8.3 5.8 36.2 20.2 42.7 22 .6.1 9.1 3 19 6.4l18.1 6.1 2.1 5.7c9.5 25.8 15 42.3 18.8 56.1.2.8 1.9 6.9 3.8 13.5 8.6 29.7 15.8 73 17.4 104.5 1.2 22.9.3 51.5-2.2 74.5-1.2 10.5-1.7 14.4-3.6 26.5-1.1 6.9-2.4 16.1-3 20.5-.5 4.4-1.9 12-3 17-1 4.9-1.9 9.1-1.9 9.3 0 .2-.9 0-2-.3-1.1-.4-3.3-.8-4.8-1-1.5-.2-5.2-.9-8.2-1.5-3-.6-6.8-1.4-8.5-1.6-3.5-.6-6-1.1-9.5-1.8-1.3-.3-4-.8-6-1.1l-3.5-.5-4.4 9.8c-10.9 24-20.3 48.3-22.6 58.6-.2 1.1-1.1 4.8-2 8.1-4.9 19.6-6 29.3-5.9 54.5 0 20.5.4 26.8 2.3 38.5 1.2 7.7 2.4 15 2.6 16.2.2 1.1.6 3 1 4.2.3 1.1.9 3.3 1.1 4.8 1.2 6.5 5.8 23.7 9.6 35.3 3.7 11.4 12 33.9 13.3 36 .3.5 1.8.5 3.3 0 1.5-.5 4.5-1.1 6.7-1.4 2.2-.3 6.5-1 9.5-1.5 3-.6 6.6-1.2 8-1.5 1.4-.2 3.6-.7 5-1 1.4-.3 3.6-.8 5-1 1.4-.3 5.7-1.1 9.5-1.9 3.9-.9 8.4-1.8 10-2 1.7-.3 5-1 7.5-1.6 2.5-.5 5.9-1.2 7.5-1.5 1.7-.3 4.5-1 6.4-1.6 1.9-.5 3.7-.8 3.9-.5.3.2 1.2 0 2.2-.5.9-.5 3.2-1.2 5.1-1.5 1.9-.3 5-1 6.9-1.5 1.9-.5 4.9-1.2 6.5-1.5 2.3-.4 34.1-8.6 42.5-11 10.4-2.9 25-7.4 25.9-7.9.6-.4 1.9-.9 2.8-1.1 5.6-1.3 34.9-12.5 39.8-15.2 1.7-.9 3.1-1.6 3.2-1.5.2.1 2.3-.7 4.8-1.8s4.6-1.9 4.8-1.9c.1-.1 7.8-3.9 17-8.5 14.5-7.3 17.2-8.4 19.4-7.5 3.8 1.4 10 2.7 16.8 3.5 11.3 1.2 40.3.6 57-1.1 2.8-.3 6.8-.8 9-1 2.2-.2 5.1-.6 6.5-.9 1.4-.3 4.1-.9 6-1.2 1.9-.4 4.3-1.1 5.3-1.6 1.3-.7 2.8-.3 5.5 1.4 10.8 6.7 52.7 27.4 61.2 30.3.3.1 1.6.7 3 1.2 1.4.6 6.8 2.8 12 4.8 7.9 3.1 14.5 5.4 37.8 13 .7.3 1.4.5 1.7.5.3.1 2.6.8 5.2 1.6 2.7.8 5.5 1.7 6.3 1.9 15.4 4.4 36.9 10.3 40.3 11 1 .2 2.6.6 3.5.9.9.3 2.8.8 4.2 1 1.4.3 9 2.1 16.9 4.1 8 2 16.1 3.8 18 4.1 2 .3 4.4 1 5.4 1.5.9.5 1.7.8 1.7.5 0-.2 1.7 0 3.8.5 3 .7 9.7 2.2 20.2 4.4 14.9 3.2 23 4.7 25.5 4.9 1.4.1 2.7-1.6 5.1-6.4 4.9-9.8 9.8-21.9 9.6-23.2-.1-.5.2-.8.6-.8.4 0 1.4-2.1 2.1-4.7.8-2.7 1.8-5.3 2.3-5.9.5-.7.8-1.6.7-2-.1-.5.1-1.7.4-2.7.4-.9 1-2.5 1.4-3.5.8-2.1.7-2 1.7-6.2.5-1.9 1.1-4 1.4-4.5.4-.6.8-1.9.9-3 .2-1.1.6-2.7 1-3.5.3-.8.7-2.2.8-3 .2-.8 1.5-7.1 2.8-14 3-14.9 3.4-17.2 4.4-27 1-9.2.9-40.3 0-48.5-1.3-10.9-6.7-34.5-10.4-45.3-.8-2.6-1.7-5.4-1.8-6.2-.2-.8-.4-1.6-.5-1.8-.2-.1-.3-.6-.4-1.1 0-.5-.4-1.3-.8-1.7-.5-.4-.8-1.4-.8-2.2 0-.8-.6-2.8-1.4-4.5-.7-1.8-2.3-5.9-3.5-9.2-4.1-10.9-16.6-38.7-19.4-43.1-.4-.8-2.1-.9-4.9-.4-2.4.5-6.1 1.1-8.3 1.4-5 .8-20.2 3.5-23.2 4.1-1.9.4-2.4-.1-3.2-3.2-1.8-6.7-10-48.6-10.6-54.3-.3-3-.8-6.6-1-8-.4-2.6-1.1-8.9-2-18-.3-3-.8-6.6-1-8-.3-2.3-1.4-18.5-2-31.5-1-19.4-.3-80 .9-86.2.3-1.2.7-4.6 1-7.5.4-2.9.8-6.3 1-7.4.3-1.2.7-3.9 1-6 1.4-9.1 3.8-21 4.6-22.9.5-1.1 2.7-9 5-17.5 4.7-17.9 7.9-26.5 15.7-42.5 1.9-3.9 3.9-7.5 4.6-8.1.7-.6 5-2.2 9.7-3.4 9-2.3 28.1-8.4 31.5-10 1.1-.5 5.6-2.4 10-4.1 10.8-4.4 27.4-13.2 34-18.1 10.6-7.7 22-19.8 24.8-26 .6-1.5 1.5-2.8 1.9-2.8.5 0 .7-.3.6-.8-.1-.4.6-3.2 1.5-6.2 1.9-6.7 2.9-15.3 3-28.1.2-11.3-1.7-16.9-6.5-19.2-3.9-1.9-6.7-1.5-21.9 2.7-11 3-16.3 4.1-32.9 7.1-1.9.4-11 .8-20.1 1.1-16.3.4-21.5-.2-23.8-2.9-1-1.3-2.4-8.4-2.5-13.5 0-1.7-.3-3.2-.6-3.2-.4 0-1.1-5.4-1.3-11.8-.1-1.2-.4-2.2-.7-2.2-.3 0-.6-1-.6-2.3-.1-2.1-.8-6.3-1.9-11.7-1-4.8-1.7-8.5-2-10.5-.1-1.1-.4-2.1-.5-2.3-.1-.1-.3-1-.4-2-.1-.9-.4-2.2-.8-2.8-.4-.6-1-2.6-1.2-4.5-.6-3.7-1.3-7.3-1.6-7.7-.2-.1-.3-.5-.4-1-.1-.4-.5-1.3-.9-2-.5-.6-.6-1.2-.3-1.2s.1-1.2-.5-2.8c-.6-1.5-1.3-3.8-1.5-5.1-.3-1.4-.8-2.9-1.2-3.5-.4-.6-.7-1.3-.8-1.6 0-.3-.6-2.3-1.2-4.5s-1.1-4.4-1.1-4.9-.3-1.2-.8-1.5c-1-.7-4.3-9-4.2-10.5 0-.5-.3-1.2-.8-1.5-.7-.5-5.5-9.8-5.8-11.1 0-.3-.8-1.6-1.6-3-.9-1.4-3.1-5-5-8-1.8-3-3.6-5.7-3.9-6-.3-.3-2.3-2.7-4.4-5.3-7.4-9.3-19.8-21-31.1-29.4-3.9-2.9-7.5-5.7-8.2-6.3-.7-.5-1.7-1-2.3-1-.5 0-1-.5-1-1 0-.6-.7-1-1.5-1s-1.5-.5-1.5-1c0-.6-.4-1-.9-1s-3.8-1.8-7.3-3.9c-8.1-4.9-26.8-14.3-26.8-13.5 0 .4-.6.2-1.2-.4-1.9-1.5-29.8-12.3-32.8-12.7-.3 0-1-.3-1.6-.7-.6-.4-2.1-.9-3.5-1.2-1.3-.3-8.5-2.1-15.9-4-12.2-3.1-25.6-5.9-33.5-7.1-1.7-.2-6.1-.8-10-1.4-3.8-.5-10.1-1.3-14-1.6-3.8-.4-8.8-.8-11-1.1-4.7-.5-88.2-1.4-88.7-.9z"/></svg>