<svg xmlns="http://www.w3.org/2000/svg" xmlns:xlink="http://www.w3.org/1999/xlink" viewBox="0 0 1026.2 718.5"><path d="M1005.1 112.4c-11.8-44-46.5-78.6-90.4-90.4C834.3 0 513.1 0 513.1 0S191.9 0 111.6 21.1C68.5 33 33 68.5 21.1 112.4 0 192.7 0 359.3 0 359.3s0 167.4 21.1 246.8c11.8 44 46.5 78.6 90.4 90.4 81.1 22 401.5 22 401.5 22s321.2 0 401.5-21.1c44-11.8 78.6-46.5 90.4-90.4 21.1-80.3 21.1-246.8 21.1-246.8s1-167.5-20.9-247.8z" fill="#e00303"/><defs><path id="a" d="M1005.1 112.4c-11.8-44-46.5-78.6-90.4-90.4C834.3 0 513.1 0 513.1 0S191.9 0 111.6 21.1C68.5 33 33 68.5 21.1 112.4 0 192.7 0 359.3 0 359.3s0 167.4 21.1 246.8c11.8 44 46.5 78.6 90.4 90.4 81.1 22 401.5 22 401.5 22s321.2 0 401.5-21.1c44-11.8 78.6-46.5 90.4-90.4 21.1-80.3 21.1-246.8 21.1-246.8s1-167.5-20.9-247.8z"/></defs><clipPath id="b"><use xlink:href="#a" overflow="visible"/></clipPath><linearGradient id="c" gradientUnits="userSpaceOnUse" x1="502.745" y1="323.418" x2="1044.252" y2="385.115" gradientTransform="matrix(1 0 0 -1 0 718)"><stop offset="0" stop-color="#ff5b4a" stop-opacity="0"/><stop offset=".5" stop-color="#ff5b4a"/><stop offset="1" stop-color="#ff5b4a" stop-opacity="0"/></linearGradient><path clip-path="url(#b)" fill="url(#c)" d="M542.1 740l-84-752.5h546.8l83.7 752.5z"/><path fill="#fff" d="M677.9 359.3L410.8 205.4v307.7z"/></svg>