<svg version="1.1" id="Layer_1" xmlns="http://www.w3.org/2000/svg" xmlns:xlink="http://www.w3.org/1999/xlink" x="0px" y="0px"
	 viewBox="0 0 1920 1080" style="enable-background:new 0 0 1920 1080;" xml:space="preserve">
<style type="text/css">
	.st0{fill:#632B2B;}
	.st1{fill:#9A2725;}
	.st2{fill:#612A2A;}
	.st3{fill:#632E2E;}
	.st4{fill:#D73C22;}
	.st5{fill:#A12220;}
	.st6{fill:#F56963;}
	.st7{fill:#AB4B43;}
	.st8{fill:#682624;}
	.st9{fill:#802524;}
	.st10{fill:#F9AF6B;}
	.st11{fill:#F7974F;}
	.st12{fill:#D3766C;}
	.st13{fill:#CB5A53;}
</style>
<g>
	<g>
		<path class="st0" d="M1033.21,348.81c3.39,0.39,6.37,1.75,9.08,3.77c-0.13,1.14-0.95,2.52,1.04,2.92
			c2.09,0.42,3.31,2.09,4.75,3.41c3.38,3.1,5.4,7.01,7.04,11.25c0.71,1.85,2.26,3.68,4.43,1.04c4.71,8.86,8.81,17.94,10.04,28.03
			c0.11,0.9,0.01,1.77,1.15,2.01c0,4.5,0,9,0,13.5c-5.23-1.77-7.02-0.47-6.65,4.9c0.06,0.85,0.39,1.68,0.6,2.52
			c-2.32,3.5-3.71,7.44-5.18,11.33c-4.82,5.59-9.63,11.2-16.48,14.49c-0.78,0.37-1.48,0.91-1.73,1.83c-0.85,0.09-1.7,0.19-2.54,0.28
			c-1.11-0.05-2.28-0.47-3.21,0.54c-0.66,0.08-1.31,0.15-1.97,0.23c-3.51,0.14-6.9,0.26-6.88-4.82c0-0.94-1.06-1.88-1.63-2.82
			c0.01-0.73,0.02-1.46,0.03-2.18c0.75-0.1,1.34-0.42,1.61-1.18c1.52,0.45,3.04,0.95,4.58,1.33c11.86,2.96,21.54-2.44,26.25-11.98
			c2.87-5.81,2.22-12.04,0.91-18.19c3.2-0.62,4.54-2.87,4.78-5.83c0.28-3.56-0.5-6.93-2.31-10.04c-1.5-4.59-3.35-8.99-6.58-12.68
			c-0.11-1.67-0.74-3.01-2.33-3.75c-2.9-5.64-6.59-10.62-12.04-14.08c-2.02-1.88-4.32-3.17-6.99-4.02
			c-7.01-2.24-13.4-0.36-19.72,2.48c-2.63-0.63-1.32-1.54-0.17-2.43c0.2-0.21,0.4-0.43,0.6-0.64c0.05-0.5,0.09-1.01,0.14-1.51
			c0.24-0.25,0.47-0.51,0.71-0.76c0.06-1.08,0.61-1.84,1.56-2.33c0.24-0.22,0.47-0.45,0.71-0.67c0,0,0.02-0.02,0.02-0.02
			c2.54-0.57,4.88-1.46,6.84-3.31c1.65-1.56,3.72-2.2,6.08-1.98C1030.89,349.56,1032.23,349.89,1033.21,348.81z"/>
		<path class="st1" d="M1064.7,422.18c-0.21-0.84-0.54-1.67-0.6-2.52c-0.36-5.37,1.42-6.67,6.65-4.9c0,0.75,0,1.5,0,2.25
			c-1.71,1.01-0.97,3.3-2.33,4.49C1067.18,421.72,1065.94,421.95,1064.7,422.18z"/>
		<path class="st2" d="M471.42,350.37c11.46-0.03,22.93-0.1,34.39-0.08c3.65,0.01,3.48,2.18,2.41,4.72
			c-4.44-3.6-8.98-1.4-13.51-0.24c-2.3,0.03-4.11,0.91-5.25,2.98c-1.12,0.22-2.66,0.65-1.8,1.96c1.02,1.55,2.1,3.93,4.86,2.61
			c-0.06,11.47-0.11,22.95-0.17,34.42c-4.84,3.86-4.85,7.52-0.01,9.75c0.04,12.19,0.12,24.38,0.09,36.57
			c-0.01,5.64,0.09,11.12,6.17,14.06c0.15,0.07,0.05,0.67,0.06,1.02c-4.13,0.34-7.33-1.87-10.62-3.86
			c-1.13-0.68-2.25-1.93-3.67-0.78c-5.62,4.54-12.22,4.98-19.03,4.81c-1.72-0.04-3.6,0.2-3.74,2.64c-2.71-0.45-0.97-2.42-1.12-3.64
			c-0.15-1.16,0.57-2.13,2.03-2.1c1.87,0.04,3.74,0.06,5.61,0.04c7.29-0.05,9.21-1.88,9.32-9.11c0.08-5.25,0.01-10.5,0.01-15.75
			c-0.01-14.87-0.06-29.75,0.02-44.62c0.02-3.36-0.27-6.67-0.61-10c0.75,0.67,1.73,2.3,2.45,0.44c1.22-3.15,4.94-5.08,4.19-9.22
			c-0.61-3.38-2.87-6.25-2.81-9.83c0.01-0.66-1.13-0.83-1.91-0.8c-1.66-0.82-3.32-1.65-4.98-2.47
			C473.63,352.29,471.35,352.14,471.42,350.37z"/>
		<path class="st3" d="M946.42,400.38c5.54,7.2,10.39,14.92,16.57,21.62c0.62,0.67,1.07,2.03,2.28,1.53
			c1.17-0.48,0.57-1.76,0.57-2.65c0.04-18.32,0.03-36.64,0.03-54.97c1.21,0.09,1.91,0.98,2.78,1.65c0.98,0.75,2.26,1.41,3.36,0.93
			c1.18-0.52,0.57-1.97,0.6-3.01c0.06-2.33,0.01-4.66,0-6.99c0,0,0.37,0.01,0.37,0.01l0.37-0.01c-0.02,34.09-0.02,68.18-0.15,102.27
			c0,1.02,1.53,3.21-1.28,3.37c-0.23-1.14-0.74-2.07-1.83-2.6c-2.26-8.02-4.49-16.05-6.82-24.05c-0.34-1.17-0.89-2.48-1.76-3.25
			c-7.27-6.48-11.62-15.19-17.44-22.76c-1.5-1.95-3.24-3.84-3.61-6.46c0,0-0.03,0.01-0.03,0.01c0.24-0.24,0.47-0.49,0.71-0.73
			C943.11,403.29,945.58,402.95,946.42,400.38z"/>
		<path class="st4" d="M712.81,413.32c-0.37,8.69-0.29,17.32,4.46,25.09c3.62,5.92,7.91,11.26,14.29,14.39
			c8.94,4.38,19.19,0.35,25.17-8.61c2.83-4.24,3.89-9.02,4.55-13.9c0.34-2.47,1.52-2.98,3.74-2.89c3.61,0.16,7.22,0.04,10.83,0.05
			c2.26,0.01,3.52,0.66,1.96,3.1c-2.3-0.18-4.05,1.07-5.7,2.37c-6.25,4.91-8.27,13-13.79,18.47c-1.36,0.86-2.74,1.68-4.06,2.59
			c-7.47,5.13-15.37,6.43-23.97,3.08c-4.67-1.82-8.86-4.41-12.96-7.22c-2.65-3.35-5.11-6.85-8.25-9.78c0-1.28-0.29-2.47-1.05-3.53
			c-1.01-2.02-2.02-4.04-3.03-6.06c0.21-0.86-0.29-1.52-0.62-2.23l0.25-0.11c1.36,0.12,2.85,0.35,3.37-1.38
			c0.44-1.47-0.87-2.16-1.7-3.02c-1.33-1.39-1.81,0.26-2.61,0.77c-1.24-1.09-0.52-2.56-0.78-3.84c-0.34-1.69,1.56-5.36-3.17-3.36
			c-0.93,0.39-3.79-0.32-4.28-2.61c-0.29-1.35-1.35-1.66-2.24-2.27c-0.03-0.97-0.06-1.93-0.08-2.9c3.18-2.46,6.92-1.25,10.42-1.61
			c-0.73,2.26-0.14,3.13,2.45,3.17C708.39,411.15,710.94,411.43,712.81,413.32z"/>
		<path class="st5" d="M793.7,441.01c-0.29-18.77-0.31-37.54,0.01-56.31c1.25-0.05,1.64-1.04,1.9-1.96c0.42-1.53,1.4-2.14,2.73-1.49
			c2.02,0.98,3.83,0.19,5.72-0.25c0.25-0.24,0.5-0.48,0.75-0.72c0.24-0.03,0.47-0.04,0.71-0.04c0.26-0.25,0.52-0.5,0.78-0.75
			c0,0,0-0.01,0-0.01c1.65-0.44,2.34,1.44,3.77,1.54c0,0.49,0,0.98,0,1.47c-1.13,0.97-0.73,2.29-0.74,3.48
			c-0.04,5.81-0.03,11.63-0.04,17.44c-2.35,0.7-1.35,2.65-1.43,4.1c-0.19,3.68,1.02,7.72-2.96,10.29c-0.68,0.07-1.36,0.14-2.04,0.21
			c-0.3-1.3-1.14-1.75-2.44-1.77c-2.64-0.05-6.13,2.96-6.04,5.61c0.11,3.7,0.5,7.39,0.77,11.08c0.06,0.8,0.43,1.75,1.14,1.71
			c1.81-0.11,3.71-0.22,5.07-1.79c1.16-1.35,2.82-3.23,1.64-4.52c-2.1-2.3-1.25-4.54-1.06-6.91c2.87,1.9,2.76,6.4,6.53,7.51
			c0.11,7.64,1.43,15.11,3.22,22.52c-1.6,1.37-4.55,0.38-5.39,3.09c-1.17,0.13-1.79-0.63-2.37-1.46c1.88-4.11,1.47-6.77-2.13-8.67
			C799.25,443.06,797.69,438.96,793.7,441.01z M800.53,402.8c1.86-0.25,4.16,0.16,4.26-2.81c0.04-1.26-0.67-1.9-1.85-1.65
			c-2.18,0.46-4.7,1-5.14,3.49C797.56,403.25,799.54,402.46,800.53,402.8z"/>
		<path class="st0" d="M934.43,383.87c3.5,5.03,7,10.05,10.5,15.08c-3.01,0.02-3.72,4.09-6.85,3.9
			c-5.87-7.87-11.71-15.76-17.61-23.61c-2.44-3.25-4.5-6.83-7.87-9.3c-1.45-0.43-2.2-4.13-4.42-0.95c-1.36,0.9-2.4,2.12-3.12,3.56
			c-1.32,2.66-0.53,4.1,2.41,4.59c-0.04,0.24-0.03,0.48,0.02,0.73c-1.27,0.66-0.96,1.82-0.94,2.92c0.09,6.57,0.16,13.14,0.23,19.72
			c-2.25,0.38-3.87-1.89-6.13-1.48c-0.06-10.29,0.4-20.61-1.5-30.81c-0.18-0.95-0.01-1.97-0.01-2.96c1.07-0.98,2.16-1.86,3.47-2.6
			c2.23-1.25,1.91-2.58-0.53-3.35c-1.98-0.46-3.69-1.96-5.9-1.53c-1.55-1.27-3.39-0.6-5.11-0.76c0.45-2.41,2.8-1.75,4.2-2.29
			c4.01-1.55,8.24-2.52,12.36-3.81c1.72-0.54,2.82,0.04,3.82,1.4c5.28,7.23,10.73,14.33,15.55,21.89c-2.91,1-4.07,2.54-1.42,5.05
			c1.08,1.02,1.35,2.34,1.82,3.61c0.4,1.08,0.16,2.82,1.99,2.57C931.14,385.19,933.53,386.82,934.43,383.87z"/>
		<path class="st6" d="M712.81,413.32c-1.88-1.89-4.42-2.17-6.77-2.21c-2.6-0.04-3.18-0.91-2.45-3.17c0.53-0.27,1.04-0.76,1.58-0.77
			c7.77-0.22,15.46-1.88,23.27-1.43c5.56,0.47,11.11,1.07,16.68,1.38c5.82,0.32,11.52,0.31,16.86-3.06
			c4.47-2.83,9.45-4.85,14.2-7.24c-4.22,7.44-8.93,14.51-15.49,20.13c-2.85,2.44-6.44,2.05-9.65,1.36
			c-10.16-2.17-20.36-4.11-30.65-5.53C717.87,412.44,715.24,411.79,712.81,413.32z"/>
		<path class="st0" d="M987.56,414.86c-1.44-5.58-1.07-11.26-0.48-16.86c0.88-8.46,4.5-16,8.7-23.27c0.43,1.4-0.93,3.52,1.64,4.04
			c-0.12,1.24-1.05,2.34-0.68,3.68c-2.62,0.54-1.58,2.61-1.55,4.09c0.04,1.75,1.44,1.98,2.88,1.92c-1.13,5.58-0.18,11.09,0.76,16.54
			c1.45,8.4,6.09,15.25,11.26,21.78c-0.19,1.46,0.09,2.65,1.5,3.49c1.16,0.68,1.83,1.93,1.43,3.21c-1.2,3.82,1.38,6.23,3.06,9
			c-0.09,1.61-1.32,1.51-2.42,1.6c-0.22-0.21-0.45-0.42-0.67-0.63c-0.13-0.89-0.65-1.41-1.52-1.59c0,0,0-0.04,0-0.04
			c-0.24-0.24-0.48-0.48-0.72-0.72c0,0-0.03-0.03-0.03-0.03c-0.24-0.24-0.48-0.49-0.72-0.73c0,0-0.06,0.03-0.06,0.02
			c-0.54-2.54-2.22-4.13-4.4-5.32c0,0,0-0.01,0-0.01c-0.25-0.24-0.49-0.49-0.74-0.74c0,0-0.01-0.01-0.01-0.01
			c-0.24-0.25-0.49-0.5-0.73-0.75c0,0-0.01-0.01-0.01-0.01c0.1-1.62,0.2-3.23-2.2-3.01l-0.02-0.02c-0.24-0.25-0.48-0.5-0.72-0.75
			c-2.6-3.19-4.48-6.88-5.58-10.73c-1.1-3.82-5.08-3.51-7.04-5.99C987.97,412.38,987.78,414.14,987.56,414.86z"/>
		<path class="st5" d="M728.44,405.74c-7.81-0.45-15.5,1.21-23.27,1.43c-0.53,0.01-1.05,0.51-1.58,0.77
			c-3.5,0.36-7.25-0.85-10.42,1.61c-0.22-0.16-0.26-0.36-0.13-0.59c0.02-0.29,0.04-0.57,0.06-0.86c0.19-4.65,0.02-9.35,2.29-13.65
			c1.56,0.18,2.01,1.26,2.07,2.62c0.09,2.39,4.15,6.98,6.38,7.16c0.91,0.07,1.8-0.04,2.21-0.99c0.54-1.24,2.24-1.52,2.53-3.16
			c-2.13-0.51-5.26-0.42-4.69-3.49c0.68-3.69,0.54-7.6,2.66-11.06c1.13-1.84,2.38-3.97,2.05-6.55c-2.72,1.46-2.9,1.63-3.75,3.51
			c-2,4.4-2,4.4-5.53,1.5c1.59-6.12,5.45-10.91,9.23-15.74c1.83-2.33,3.84-4.52,5.77-6.78c2.06-0.37,3.92,0.75,5.93,0.82
			c-2.77,3.58-6.66,6.39-7.61,11.21c-1.49,0.69-1.46,1.76-0.73,3c-0.99,1.32-0.25,2.99-1,4.46c-1.18,2.33-0.19,3.75,2.48,3.85
			c0.08,0.55,0.17,1.09,0.25,1.64c-0.32,3.41-0.64,6.83-0.96,10.24c-0.2,2.19,0.71,3.03,2.98,3.12c4.09,0.16,7.83-1.55,11.82-1.94
			c1.32-0.13,2.62-0.32,3.96-0.22c-0.58,1.94-1.52,3.93-3.3,4.71C724.22,404.06,727.27,404.73,728.44,405.74z"/>
		<path class="st0" d="M804.07,380.99c-1.89,0.43-3.7,1.22-5.72,0.25c-1.33-0.64-2.31-0.04-2.73,1.49c-0.26,0.92-0.64,1.92-1.9,1.96
			c0.88-2.6-3.42-3.24-2.24-5.95c2.19,0.26,8.36-3.56,8.75-5.52c0.25-1.24,0.27-2.5-1.52-2.74c-1.2-0.16-2.38-0.49-3.57-0.75
			c-1.25-1.08-2.87-1.22-4.34-1.73c-1.74-0.59-3.57-1.3-4.67,1.05c-1.73-2.43-0.75-3.91,1.78-4.6c8.72-2.36,16.45-6.94,24.39-11.01
			c10.39-5.32,21.03-7.83,32.4-3.3c-1.22,1.29-1.6,2.42,0.55,3.1c0.01,0.49,0.03,0.99,0.04,1.48c0.02,1.15-0.06,2.22-1.59,2.28
			c-2.9-0.83-5.04-3.36-8.19-3.65c-7.11-2.17-13.55-0.8-19.43,3.63c-0.97,0.58-1.94,1.16-2.91,1.74c-2.87,1.18-4.53,3.78-6.51,5.9
			c-3.05,3.27-2.75,3.92,1.4,5.52c0.79,0.31,1.71,0.4,2.18,1.27c-0.06,1.7-0.12,3.4-0.17,5.1c-2.26-0.32-2.69,1.71-3.76,2.93
			c0,0,0,0.01,0,0.01c-0.26,0.25-0.52,0.5-0.78,0.75c-0.24,0-0.47,0.01-0.71,0.04C804.57,380.51,804.32,380.75,804.07,380.99z"/>
		<path class="st7" d="M940.45,405.02c0.37,2.62,2.12,4.51,3.61,6.46c5.82,7.57,10.17,16.28,17.44,22.76
			c0.87,0.78,1.42,2.09,1.76,3.25c2.33,8,4.56,16.03,6.82,24.05c-1.18,0.72-2.36,1.44-3.54,2.16c-6-14.13-14.91-26.51-23.47-39.1
			c-2.75-4.04-5.46-8.11-8.18-12.17c0.81,0.34,1.58,0.73,2.27-0.28c1.47-2.16,3.08-4.25,2.46-7.13
			C939.9,405.03,940.17,405.03,940.45,405.02z"/>
		<path class="st0" d="M547.86,358.48c4.59,6.45,9.73,12.53,14.31,18.93c3.71,5.18,8.27,9.75,11.4,15.36l-0.23,0.26
			c-0.98-0.12-2.51-2.11-2.8-0.27c-0.48,3.03-2.7,3.6-4.66,4.75c-2.06-2.61-4.06-5.27-6.19-7.82c-5.26-6.34-9.56-13.46-15.51-19.25
			c-1.02-1.25-1.76-2.84-3.71-2.89c-1.73-0.23-2.53,0.49-2.29,2.26l0.02-0.02c-0.27,0.23-0.54,0.45-0.81,0.68c-0.5,0-1,0-1.5,0
			c-0.25-0.24-0.5-0.47-0.75-0.71c-0.02-0.24-0.03-0.47-0.02-0.71c0.01-0.5,0.02-1,0.04-1.5c0.47-0.02,0.94-0.05,1.41-0.07
			c0.67-0.26,0.81-0.82,0.83-1.44l0.02-0.02c0.99-0.04,1.46-0.57,1.45-1.55c0.02-0.49,0.04-0.97,0.06-1.46
			c0.24-0.24,0.47-0.48,0.71-0.72c0.24-0.02,0.49-0.03,0.73-0.03c1.89,0,3.86,0.27,5.24-1.51l0.02-0.01
			c0.63,0.02,1.19-0.12,1.51-0.73C547.72,359.65,547.89,359.11,547.86,358.48z"/>
		<path class="st5" d="M858.62,361.51c0.48,2.99,2.68,5.37,2.84,8.56c0.06,1.24,0.16,2.32-0.37,3.43c-3.78,0.45-6.97,1.9-9.01,5.31
			c-0.42,1.28-0.68,2.66-1.3,3.84c-3.97,7.57-9.71,13.69-16.04,19.31c-2.16-0.09-4.12-0.51-4.66-3.07c0.52-0.53,1.03-1.06,1.55-1.6
			c7.27-7.66,13.63-15.68,11.05-27.33c0.78-1.29,2.21-0.84,3.81-1.35c-4.07-1.92-2.95-3.95-0.51-6.03c0.37-0.31,0.59-0.8,0.87-1.2
			c2.78,1.14,3.03,4.01,4.06,6.26c1.12,2.44,3.4,2.58,5.26,2.59c1.84,0.01,0.44-2.53,1.26-3.29
			C859.19,365.29,855.57,362.67,858.62,361.51z"/>
		<path class="st1" d="M538.94,363c-0.02,0.49-0.04,0.97-0.06,1.46c-0.95,0.08-1.47,0.56-1.45,1.55c0,0-0.02,0.02-0.02,0.02
			c-0.61,0.29-0.76,0.85-0.83,1.44c-0.47,0.02-0.94,0.05-1.41,0.07c-0.84,0.48-0.73,0.98-0.04,1.5c-0.01,0.24,0,0.47,0.02,0.71
			c0.25,0.24,0.5,0.47,0.75,0.71c0.5,0,1,0,1.5,0c0.22,0.02,0.44,0.03,0.67,0.02c-0.24,0.5-0.47,0.99-0.71,1.49
			c-2.76,4.04-2.76,4.04,0.88,5.33c-0.06,4.5-0.13,9.01-0.19,13.51c-1.43,3.09-1.72,6.99-5.8,8.21c-0.32-6.58-0.56-13.17-0.99-19.75
			c-0.34-5.26-0.67-10.54-1.95-15.68c2.56,0,4.45-1.36,6.47-2.89c-4.19-2.98-8.74-3.82-13.37-4.41c2.02-2.24,5.04-2.08,7.56-3.09
			c2.24-0.9,4.7-1.25,6.9-2.21c4.14-1.82,6.91-0.53,8.67,3.39c0.65,1.46,2.13,2.42,2.33,4.11c0.02,0.63-0.14,1.16-0.72,1.51
			c-0.62,0.01-1.19,0.12-1.51,0.73c0,0-0.02,0.01-0.02,0.01c-1.74,0.53-4.14-1.24-5.24,1.51c-0.24,0-0.49,0.02-0.73,0.03
			C539.41,362.52,539.18,362.76,538.94,363z"/>
		<path class="st8" d="M728.44,405.74c-1.17-1.02-4.22-1.68-0.3-3.39c1.78-0.78,2.72-2.76,3.3-4.71c10.61-0.3,21.22-0.56,31.82-0.91
			c4.02-0.13,8.04-0.48,12.06-0.71c0.53-0.03,0.95,0.13,0.87,0.81c-4.75,2.38-9.73,4.41-14.2,7.24c-5.33,3.37-11.03,3.39-16.86,3.06
			C739.55,406.81,734,406.22,728.44,405.74z"/>
		<path class="st8" d="M621.41,491.19c0.12-6.62,2.53-12.72,4.2-19c1.36-5.1,2.65-10.22,3.86-15.36c0.31-1.3,0.15-2.67-0.56-3.9
			c3.07-3.41,4.26-7.4,3.63-11.94l-0.01,0.02c1.36-1.48,1.25-3.6,2.24-5.24l0.03-0.02c1.12,0.49,0.19,2.21,1.59,2.62
			c1.1-0.97,0.46-2.26,0.64-3.38c0.35-1.17,0.61-2.38,1.06-3.51c0.65-1.67,1.92-2.67,3.73-2.34c1.76,0.33,1.04,1.94,1.2,3.06
			c0.28,1.91-0.63,3.95,0.64,5.75c-0.5,4.49-1,8.99-1.5,13.48c-0.91-1.33-2.18-1.7-3.7-1.35c-0.47-0.29-0.95-0.57-1.42-0.86
			c-2.08-1.19-1.74,0.94-2.2,1.72c-1.23,2.11,0.25,5.56-1.34,6.69c-3.64,2.59-2.86,4.71-0.62,7.41c0.28,0.34,0.24,0.94,0.35,1.42
			C630.4,475.25,626.24,483.38,621.41,491.19z"/>
		<path class="st6" d="M1038.77,450.11c0.85-0.09,1.7-0.19,2.54-0.28c4.57-0.84,4.94-0.56,5.33,4.08
			c-7.91,8.95-20.25,11.32-29.71,5.71c-0.38-0.21-0.77-0.43-1.15-0.64c0,0-0.26-0.05-0.27-0.05c-0.3-1.9-1.43-3.08-3.22-3.67
			c1.47-2.05,2.99-4.02,1.64-6.83c-0.27-0.57,0.43-1.59,0.68-2.41c1.69,0.85,3.39,1.7,5.08,2.55c1.31,1.18,2.87,1.83,4.59,2.11
			c3.08,1.1,6.17,1.39,9.3,0.2c0.66-0.08,1.31-0.15,1.97-0.23C1036.67,450.71,1037.81,450.93,1038.77,450.11z"/>
		<path class="st4" d="M849.87,423.01c3.52,3.1,4.9,7.76,8.15,11.09c2.8,2.87,4.82,6.47,8.24,8.76c1.58,2.58,4.77,3,6.76,5.03
			c-0.27,0.69-0.54,1.39-0.81,2.08c-4.61,2.3-9.28,3.38-14.17,0.83c-1.77-2.33-3.54-4.65-5.32-6.98c0.61-0.61,1.71-0.83,1.58-2.03
			l0-0.02c0.75-0.52,0.68-1.05,0.02-1.58c-0.04-1.05-0.58-1.77-1.5-2.24c-1.32-2.44-3.67-2.73-6.07-2.93
			c-0.99-1.77-1.99-3.54-2.98-5.31C848.8,430.2,847.96,425.35,849.87,423.01z"/>
		<path class="st7" d="M912.61,369.94c3.36,2.47,5.42,6.05,7.87,9.3c5.9,7.85,11.74,15.74,17.61,23.61
			c0.03,0.61,0.05,1.23,0.08,1.84c-0.2,0.78-0.82,0.94-1.5,0.98c-1.08-1.87-2.02-3.85-3.31-5.56c-0.81-1.08-2.02-3.56-3.43-0.3
			c-0.98,0.28-1.96,0.56-2.93,0.84c-6.31-7.54-12.62-15.08-18.93-22.63C910.67,375.94,911.52,372.87,912.61,369.94z"/>
		<path class="st0" d="M906.87,404.25c-0.18,12.16,0.09,24.31,0.58,36.46c0.06,1.6-0.1,3.22-0.15,4.83
			c-1.1-1.29-0.33-2.88-0.68-4.29c-0.19-0.78-0.61-1.37-1.4-1.55c-0.68-0.16-1.5,0.19-1.37,0.81c1,4.82-2.71,9.14-1.29,14.03
			c0.94,3.24,0.55,6.28-2.7,8.27c1.75-19.52,0.33-39.08,0.89-58.61C902.79,404.21,904.83,404.23,906.87,404.25z"/>
		<path class="st4" d="M644.43,399.09c0.78,1.77,2.28,1.97,3.99,1.97c6.44-0.02,12.88,0.19,19.32-0.03
			c3.37-0.12,6.57,0.76,9.86,0.93c2.13,0.11,1.48,1.69,1.32,2.74c-0.39,2.67-0.99,5.31-1.51,7.95c-0.65-0.33-1.62-0.49-1.89-1.01
			c-1.86-3.65-4.95-4.14-8.52-3.6c-7.28-0.06-14.55-0.17-21.83-0.16c-1.72,0-3.42,1.45-5.18,0.07c-0.52-0.29-1.04-0.58-1.55-0.87
			c0.03-0.69,0.07-1.38,0.1-2.07l0,0c0.24-0.26,0.47-0.52,0.71-0.79c0.26-0.49,0.52-0.97,0.77-1.46c0.46-0.04,1.12-0.29,1.33-0.08
			c0.74,0.72,1.01,2.13,2.44,1.72c0.63-0.18,0.7-0.95,0.71-1.59c0.03-1.55-0.92-2.1-2.26-2.46c-0.8-0.21-1.58-0.71-1.68-1.75
			C642,397.66,643.14,399,644.43,399.09z"/>
		<path class="st7" d="M544.19,370.44c5.95,5.78,10.25,12.9,15.51,19.25c2.12,2.56,4.13,5.21,6.19,7.82
			c0.25,0.76,0.5,1.52,0.75,2.28c-0.02,0.73-0.05,1.47-0.07,2.2c-1.65,1.05-1.87,2.04,0.11,2.96c0.25,0.25,0.5,0.51,0.74,0.76
			c-0.01,2.2,1.18,4.3,0.52,6.55c-4.46-6.11-8.89-12.24-13.4-18.31c-4.15-5.59-8.47-11.04-13.42-15.97
			C540.42,374.75,543.54,373.1,544.19,370.44z"/>
		<path class="st5" d="M644.7,381.01c-0.1,2.27-0.2,4.53-0.3,6.8c-1.91-0.05-3.63-1.05-5.77-0.42c-1.53,0.45-3.43-0.48-3.14-2.96
			c0.09-0.81,0.13-1.8-1.5-2.16c1.01,3.7-1.46,3.29-3.67,3.26c-1.24-0.02-2.47-0.01-3.71-0.01c-0.34-1.2-1.06-2.15-1.82-3.13
			c-1.56-2.03-0.98-6.19,1.09-7.51c3.42-2.19,6.93-4.25,10.41-6.36c3.03-0.28,4.19,3.04,6.81,3.56c-0.44,0.6-0.9,1.17-1.3,1.79
			C638.31,379.22,638.31,379.22,644.7,381.01z"/>
		<path class="st9" d="M538.73,436.49c0.72,8.45-0.86,16.7-2.06,25c-1.55,10.79-4.64,21.21-7.53,31.67
			c-0.28,1.02-0.8,1.98-1.49,3.67c-1.58-4.8-0.57-8.83,0.22-12.78c1.96-9.76,4.75-19.31,5.28-29.41c0.23-4.34-0.26-8.52-0.33-12.77
			c-0.03-1.88,0.44-3.35,1.69-4.65C535.93,436.97,537.33,436.73,538.73,436.49z"/>
		<path class="st6" d="M834.74,401.96c6.33-5.61,12.07-11.73,16.04-19.31c0.62-1.18,0.88-2.56,1.3-3.84
			c2.92,0.58,5.86,0.84,8.84,0.75c-0.83,6.58-4.47,11.48-9.41,15.57c-3.57,2.96-7.18,5.86-10.75,8.82
			c-0.75,0.62-1.55,1.27-1.58,2.39c-0.96-0.14-1.93-0.29-2.89-0.43C835.08,404.86,832.1,404.51,834.74,401.96z"/>
		<path class="st6" d="M712.63,373.5c0.95-4.82,4.84-7.63,7.61-11.21c1.2-1.06,2.4-2.11,3.59-3.17c5.65-4.15,12.12-4.81,18.83-4.45
			c4.3,1.44,8.64,2.81,11.43,6.8c-1.41,1.01-2.81,2.03-4.22,3.04c-7.78-7.41-21.45-5.25-28.88,4.29c0.02,0.24-0.02,0.47-0.13,0.69
			l-0.03,0.22c0,0-0.22,0.05-0.22,0.04C717.96,371.04,716.06,373.9,712.63,373.5z"/>
		<path class="st0" d="M538.73,436.49c-1.4,0.24-2.81,0.49-4.21,0.73c-1.3-3.08-1.65-6.27-1.68-9.62
			c-0.06-9.53-0.38-19.06-0.6-28.59c4.07-1.22,4.37-5.12,5.8-8.21c-0.7,6.96,0.56,13.92,0.07,20.87
			c-0.38,5.33,1.01,10.55,0.74,15.85C538.71,430.51,537.37,433.47,538.73,436.49z"/>
		<path class="st3" d="M754.09,361.47c-2.79-3.98-7.13-5.36-11.43-6.8c-1.38-1.53-4.42-2.07-3.07-5.21
			c8.65,0.38,15.8,4.6,22.75,9.14c7.16,4.68,7.63,4.83,15.14-0.03c-0.17,1.69-0.32,3.11-0.47,4.54c-1.4-0.2-2.65-0.02-3.8,0.98
			c-2.95,2.54-6.48,3.49-10.3,3.55c-1.83,0.08-2.83-1.23-4.05-2.28C757.3,364.03,756.42,361.85,754.09,361.47z"/>
		<path class="st5" d="M643.66,437.96c-1.27-1.8-0.36-3.84-0.64-5.75c-0.16-1.12,0.56-2.74-1.2-3.06c-1.8-0.33-3.08,0.67-3.73,2.34
			c-0.44,1.14-0.71,2.34-1.06,3.51c-0.82,0.03-1.71-0.15-2.23,0.75c0,0-0.03,0.02-0.03,0.02c-0.73-0.01-1.46-0.01-2.18-0.02
			c-1.53-1.47-2.45,0.52-3.69,0.66c0-4.46,0-8.92,0-13.38c2.93,0.81,5.08,0.47,6.34-2.92c0.58-1.55,1.71-3.29,3.62-4.07
			c1.23-0.5,1.14-1.79,1.26-2.9c0.97,0.04,1.93,0.09,2.9,0.13l-0.02-0.01c0.25,0.31,0.49,0.33,0.72-0.01
			c0.31,0.24,0.62,0.47,0.93,0.71c-0.08,2.51-0.16,5.02-0.25,7.53c-1.32-0.8-2.65,0.04-3.97,0.05c-3.72,0.01-4.1,0.77-2.63,4.69
			c1.1-1.31,1.68-3.35,3.8-3.15c2.41,0.23,1.75,2.61,2.54,3.99c0.11,0.19,0.39,0.27,0.6,0.4
			C643.32,430.86,644.14,434.48,643.66,437.96z"/>
		<path class="st5" d="M987.56,414.86c0.21-0.72,0.4-2.48,0.92-1.83c1.96,2.48,5.94,2.16,7.04,5.99c1.1,3.84,2.98,7.54,5.58,10.73
			c0.24,0.25,0.48,0.5,0.72,0.75c0,0,0.02,0.02,0.02,0.02c0.25,0.76,0.5,1.52,0.75,2.28c0.11,0.96,0.09,1.96,0.36,2.88
			c0.75,2.56,0.68,4.4-2.79,4.08c-0.67-0.06-1.39,0.39-2.09,0.61C992.46,432.73,988.6,424.38,987.56,414.86z"/>
		<path class="st6" d="M667.86,375.73c-0.74-0.8-1.45-1.64-2.22-2.41c-5.18-5.19-8.63-5.49-15.36-1.35
			c-1.88,0.22-3.61,0.15-4.2-2.15c4.54-4.52,9.83-7.39,16.38-7.5c1.32,2.91,3.08,1.12,4.74,0.45c0.85,0.39,1.69,0.78,2.54,1.17
			c0.98,1.74,2.97,2.78,3.35,4.92c-1.15,3.06-1.89,6.06,1.38,8.39l0,0c-2.04,0.35-3.9-0.64-5.88-0.8c0,0-0.1-0.06-0.1-0.06
			C668.29,376.17,668.08,375.95,667.86,375.73z"/>
		<path class="st10" d="M717.36,449.85c4.1,2.8,8.29,5.4,12.96,7.22c8.6,3.35,16.5,2.05,23.97-3.08c1.32-0.91,2.71-1.73,4.06-2.59
			c0.12,1.32,0.63,2.44,1.65,3.31c0.01,2.93-2.77,2.85-4.38,3.88c-9.04,5.79-18.84,4.74-28.68,2.87c-0.56-0.11-1.04-0.6-1.55-0.91
			c0.8-0.72,0.13-1.37-0.17-1.94c-1.69-3.11-4.4-5.04-7.53-6.49C716.47,451.55,715.21,450.92,717.36,449.85z"/>
		<path class="st5" d="M836.28,405.91c0.97,0.14,1.93,0.29,2.89,0.43c0.5,1.34,1.01,2.68,1.51,4.03c-1.98,1.91-2.03,5.36-0.09,7.56
			c2.7,3.07,3.19,2.96,4.69-1.08c2.49,1.33,3.51,3.76,4.58,6.16c-1.91,2.34-1.07,7.19-6.08,6.71c-3.52-6.07-7.3-11.93-12.82-16.45
			c0.41-2.49-1.56-6.53,3.83-5.83C835.22,407.49,835.78,406.45,836.28,405.91z"/>
		<path class="st4" d="M603.47,419.21c1.28,0.52,1.36,1.58,1.34,2.77c-0.08,4.86-0.11,9.72-0.16,14.58
			c-0.9,1.13-0.27,3.12-2.11,3.72c-1.73-3.17-4.51-5.48-6.72-8.27c-1.14-4.02-4.27-4.01-7.54-3.73c-0.51-0.26-1.01-0.51-1.52-0.77
			c-0.02-0.47-0.05-0.93-0.07-1.4c3.83-0.11,7.55-0.59,10.62-3.21c0.55-0.84,0.87-1.74,0.7-2.76
			C599.84,419.83,601.65,419.52,603.47,419.21z"/>
		<path class="st5" d="M597.33,422.9c-3.07,2.63-6.79,3.11-10.62,3.21c-1.22-1.52-2.44-3.05-3.65-4.57
			c-2.06-3.14-3.98-6.39-6.74-8.99c-0.24-0.51-0.47-1.03-0.71-1.54c3.08,0.38,4.7-2.91,7.58-3.04c3.55,4.45,7.25,8.8,10.56,13.42
			C594.83,422.91,595.83,423.12,597.33,422.9z"/>
		<path class="st6" d="M760,454.7c-1.02-0.87-1.53-1.99-1.65-3.31c5.51-5.48,7.53-13.57,13.78-18.47c1.65-1.29,3.4-2.55,5.7-2.37
			c-1.48,7.13-5.71,12.8-10.09,18.29C765.74,451.35,763.88,454.49,760,454.7z"/>
		<path class="st8" d="M699.32,383.99c3.53,2.9,3.53,2.9,5.53-1.5c0.86-1.88,1.03-2.05,3.75-3.51c0.33,2.58-0.93,4.71-2.05,6.55
			c-2.12,3.47-1.98,7.37-2.66,11.06c-0.57,3.07,2.56,2.98,4.69,3.49c-0.28,1.64-1.99,1.92-2.53,3.16c-0.41,0.95-1.3,1.07-2.21,0.99
			c-2.23-0.18-6.29-4.77-6.38-7.16c-0.05-1.35-0.51-2.43-2.07-2.62C696.32,390.82,697.56,387.31,699.32,383.99z"/>
		<path class="st11" d="M644.64,413.97c-0.31-0.24-0.62-0.47-0.93-0.71c-0.24-0.02-0.48-0.01-0.72,0.01c0,0,0.02,0.01,0.02,0.01
			c-1.02-1.77-2.94-3.03-3.02-5.33c1.75,1.38,3.45-0.07,5.18-0.07c7.28-0.01,14.55,0.09,21.83,0.16c-0.43,3.09-1.18,5.88-5.14,5.94
			c-0.29,0-0.57,0.42-0.86,0.64C655.48,416.27,650.09,414.41,644.64,413.97z"/>
		<path class="st5" d="M673.11,368.86c-0.38-2.14-2.38-3.18-3.35-4.92c2.27-0.35,5.06-0.84,5.21-3.36c0.15-2.51,1.38-2.04,2.76-2.11
			c5.11,4.98,9.65,10.34,11.75,17.35c-3.51-0.73-7.02-1.47-10.53-2.2c1.17-1.95,0-3.56-1.11-4.81c-0.92-1.05-2.42-0.89-3.49,0.32
			C673.93,369.04,673.52,368.95,673.11,368.86z"/>
		<path class="st11" d="M832.47,426.01c-4.36-5.21-9.77-7.61-16.65-6.75c-4.52,0.57-6.17,3.55-7.1,7.39
			c-0.07-0.71-0.14-1.41-0.22-2.12c-0.23-2.03-0.47-4.06-0.7-6.1c5.48-2.69,11.42-4.01,17.23-5.69c1.66-0.48,3.66-0.87,5.3,0.53
			c-0.32,2.52,0.15,4.89,1.62,6.96C833.28,422.1,833.16,424,832.47,426.01z"/>
		<path class="st12" d="M461.61,460.94c0.14-2.44,2.02-2.69,3.74-2.64c6.81,0.17,13.41-0.26,19.03-4.81
			c1.42-1.15,2.55,0.1,3.67,0.78c3.28,2,6.49,4.2,10.62,3.86c0,0,0.05,0.02,0.05,0.02c1.86,0.69,3.78,0.9,5.75,0.75
			c0.49,0.29,0.97,0.57,1.46,0.86c-0.03,0.28-0.07,0.56-0.1,0.84c-10.9,0.02-21.81,0.01-32.71,0.06
			C469.27,460.69,465.44,460.85,461.61,460.94z"/>
		<path class="st0" d="M677.72,358.47c-1.38,0.08-2.61-0.4-2.76,2.11c-0.15,2.52-2.93,3.01-5.21,3.36c-0.85-0.39-1.7-0.78-2.54-1.17
			c-0.88-1.8-2.53-1.05-3.91-1.18c0.63-2.23,0.9-4.5,0.69-6.81c-0.32-1.84-2.06-0.9-3-1.54c0.06-0.11,0.09-0.26,0.18-0.32
			c6.28-4.45,7.82-4.21,14.07,2.34C676.17,356.24,676.9,357.39,677.72,358.47z"/>
		<path class="st4" d="M626.59,385.5c1.24,0,2.47-0.01,3.71,0.01c2.21,0.04,4.68,0.44,3.67-3.26c1.64,0.36,1.6,1.35,1.5,2.16
			c-0.29,2.48,1.61,3.41,3.14,2.96c2.15-0.63,3.86,0.37,5.77,0.42c0,0.96,0,1.92,0.01,2.88c-5.31,0.6-5.82,1.06-6.64,6.01
			c-3.47-2.47-5.71-2.29-8.85,0.71C628.5,393.36,626.57,389.62,626.59,385.5z"/>
		<path class="st8" d="M793.7,441.01c3.99-2.05,5.55,2.05,8.1,3.39c3.6,1.9,4.01,4.56,2.13,8.67c-3.42-1-5.07,2.61-7.93,3.06
			c-1.26-0.73-2.34-1.9-4.01-1.67C794.21,450.18,793.38,445.52,793.7,441.01z"/>
		<path class="st6" d="M832.47,426.01c0.69-2,0.81-3.91-0.52-5.78c-1.47-2.07-1.95-4.44-1.62-6.96c0,0,0.32,0.02,0.32,0.02
			l0.32-0.01c5.52,4.51,9.3,10.37,12.82,16.45c0.99,1.77,1.99,3.54,2.98,5.31c-0.5,0.02-1,0.05-1.5,0.07c-2.75-1.77-5.64-3.12-9-3.1
			C835,430,833.73,428,832.47,426.01z"/>
		<path class="st5" d="M997.43,378.77c-2.58-0.52-1.21-2.65-1.64-4.04c1.76-3.93,4.05-7.49,7.36-10.31
			c1.61,0.09,1.73-0.96,1.65-2.16c0,0,0.04-0.05,0.04-0.05c0.23-0.25,0.47-0.5,0.7-0.75c0,0,0.01-0.01,0.01-0.01
			c0.25-0.25,0.49-0.51,0.74-0.76c0,0-0.01,0.01-0.01,0.01c0.25-0.25,0.51-0.51,0.76-0.76c0,0-0.01,0.01-0.01,0.01
			c0.25-0.26,0.5-0.52,0.75-0.78c0,0-0.02,0.02-0.02,0.02c0.26-0.25,0.52-0.5,0.78-0.75c0,0-0.02,0.02-0.02,0.02
			c0.25-0.25,0.51-0.51,0.76-0.76c0,0-0.01,0.01-0.01,0.01c0.25-0.24,0.51-0.49,0.76-0.73c0,0,0.02-0.01,0.02-0.01
			c0.24-0.22,0.49-0.44,0.73-0.66c0,0,0.07-0.08,0.07-0.08c0.24-0.2,0.47-0.39,0.71-0.59c0.45-0.32,0.9-0.63,1.34-0.95
			c0.29-0.24,0.58-0.47,0.87-0.71c0,0,0.02-0.02,0.02-0.02c1.03,0.17,2.23-0.3,3.02,0.78c0,0-0.02,0.02-0.02,0.02
			c-0.24,0.22-0.47,0.45-0.71,0.67c-0.95,0.49-1.49,1.25-1.56,2.33c-0.24,0.25-0.47,0.51-0.71,0.76c-0.05,0.5-0.09,1.01-0.14,1.51
			c-0.2,0.21-0.4,0.43-0.6,0.64c-1.15,0.89-2.46,1.8,0.17,2.43c-0.9,0.62-1.78,1.27-2.7,1.86c-4.29,2.75-8.22,5.85-10.25,10.76
			C998.45,375.89,998.6,377.96,997.43,378.77z"/>
		<path class="st8" d="M858.62,361.51c-3.05,1.16,0.56,3.78-1.2,5.42c-0.82,0.76,0.58,3.3-1.26,3.29c-1.86-0.01-4.14-0.14-5.26-2.59
			c-1.03-2.25-1.28-5.12-4.06-6.26c-0.37-1.94-2.22-2.81-3.15-4.35c1.53-0.06,1.62-1.14,1.59-2.28c2.28,2.15,4.53,0.51,6.78-0.06
			C855.37,355.88,856.96,358.73,858.62,361.51z"/>
		<path class="st13" d="M1014.63,446.01c-0.25,0.82-0.95,1.84-0.68,2.41c1.34,2.81-0.17,4.79-1.64,6.83
			c-0.95-0.5-1.93-0.89-3.04-0.75c-3.1-2.92-6.77-5.37-8.05-9.79c4.13-0.34,4.42-3.67,5.15-6.65c1.44,0.38,1.92,2.26,3.58,2.29
			c0,0,0.06-0.03,0.06-0.03c0.24,0.24,0.48,0.49,0.72,0.73c0,0,0.03,0.03,0.03,0.03c0.24,0.24,0.48,0.48,0.72,0.72
			c0,0,0,0.04,0,0.04c0.02,1,0.73,1.34,1.52,1.59c0.22,0.21,0.45,0.42,0.67,0.63C1013.99,444.72,1014.31,445.37,1014.63,446.01z"/>
		<path class="st1" d="M899.87,462.8c3.25-1.99,3.63-5.02,2.7-8.27c-1.41-4.88,2.29-9.21,1.29-14.03c-0.13-0.63,0.69-0.97,1.37-0.81
			c0.79,0.19,1.21,0.77,1.4,1.55c0.35,1.41-0.42,3,0.68,4.29c-0.87,2.79-0.65,5.69-0.66,8.54c-0.01,2.72,0.04,5.41-0.82,8.03
			c-1.05,0-2.42-0.53-2.79,0.97c-0.7,2.83-1.42,5.68-1.7,8.56c-0.13,1.41,1.44,0.62,2.27,0.74c0.14,0.72,0.11,1.38-0.63,1.78
			c-0.95-1.66-1.99-0.64-3-0.09c-0.87,0.01-1.74,0.02-2.6,0.02C897.55,470.18,899.14,466.58,899.87,462.8z"/>
		<path class="st6" d="M796,456.13c2.86-0.45,4.51-4.05,7.93-3.06c0.58,0.83,1.2,1.58,2.37,1.46c0.01,0.19,0.02,0.39,0.05,0.58
			c-0.98,0.76-2.41,2.09-0.92,2.8c2.31,1.09,4.55,3.59,7.63,1.87c0.97,0.51,1.93,1.02,2.9,1.53c-0.15,0.19-0.3,0.53-0.45,0.54
			c-9.08,0.13-18.15,0.48-27.23-0.18C790.03,458.65,793.84,458.54,796,456.13z"/>
		<path class="st7" d="M621.41,491.19c4.83-7.81,8.99-15.94,11.82-24.71c0.26,0.01,0.53,0.01,0.79,0.02
			c1.46,3.12,3.1-0.54,4.62,0.12c-1.64,6.3-4.29,12.18-8.17,17.38c-2.17,2.9-4.94,5.37-7.54,7.93
			C622.25,492.6,621.06,493.22,621.41,491.19z"/>
		<path class="st5" d="M663.99,354.78c0.21,2.32-0.06,4.58-0.69,6.81c-0.28,0.24-0.55,0.48-0.83,0.73
			c-6.55,0.1-11.84,2.98-16.38,7.49c-0.23,0.01-0.46,0.03-0.69,0.08c0.04-2.13-1.47-3.74-1.89-5.72c0,0-0.04,0.15-0.04,0.15
			c0.54-0.02,0.85-0.31,0.94-0.83c0,0-0.13,0.15-0.13,0.15c0.33-0.28,0.65-0.55,0.97-0.83c0.98-0.98,2.12-1.54,3.54-1.35
			c5.49,0.89,7-3.98,9.88-6.86c0,0-0.05,0.06-0.05,0.06C660.41,354.71,662.2,354.74,663.99,354.78z"/>
		<path class="st2" d="M598.2,397.49c0-3-0.01-6-0.01-9c1.84-0.36,1.34-1.84,1.36-2.99c0.06-2.99,0.03-5.98,0.04-8.97
			c1.45-0.02,2.91-0.04,4.36-0.06c0,8,0.01,16.01,0.01,24.01C602.1,399.37,600.96,396.87,598.2,397.49z"/>
		<path class="st1" d="M602.54,440.28c1.84-0.59,1.21-2.59,2.11-3.72c0.05,8.61,0.11,17.22,0.15,25.82c0,0.7,0.18,1.55-0.81,1.84
			c-0.33-1.28-0.99-2.33-2.16-3.01c-2.21-5.03-2.49-10.62-4.55-15.69c0.02-0.27,0.04-0.54,0.06-0.8
			C600.29,444.67,603.19,444.56,602.54,440.28z"/>
		<path class="st7" d="M754.09,361.47c2.33,0.38,3.21,2.56,4.76,3.89c1.22,1.05,2.22,2.36,4.05,2.28
			c-1.83,3.52-2.73,7.28-2.88,11.23c0,0-0.02,0.01-0.02,0.01c-0.68-0.03-1.37-0.06-2.05-0.09c-2.66-4.78-4.67-9.93-8.07-14.29
			C751.28,363.5,752.68,362.49,754.09,361.47z"/>
		<path class="st13" d="M1046.65,453.91c-0.4-4.64-0.76-4.92-5.33-4.08c0.25-0.92,0.95-1.46,1.73-1.83
			c6.85-3.29,11.65-8.9,16.48-14.49c1.29,1.31,0.51,2.96,0.72,4.44C1056.58,444.02,1051.94,449.24,1046.65,453.91z"/>
		<path class="st11" d="M717.36,449.85c-2.14,1.08-0.89,1.7,0.33,2.27c3.13,1.45,5.85,3.38,7.53,6.49c0.31,0.56,0.98,1.22,0.17,1.94
			c-6.42-1.45-11.1-5.62-15.67-9.98c0.79-1.56,1.06-2.98,0.02-4.69c-1.05-1.71-1.05-3.79-0.64-5.79
			C712.24,443,714.71,446.5,717.36,449.85z"/>
		<path class="st11" d="M858.05,450.8c4.89,2.55,9.57,1.47,14.17-0.83c0.02,1.04,0.04,2.08,0.06,3.12c-1.08,0.87-0.8,2.97-2.77,3.02
			c-2.33-0.04-4.85,0.12-6.77-1.25c-3.03-2.16-5.43-1.08-6.73,1.52c-1.08,2.15-2.48,1.79-4.06,1.9c-1.96-1.64-4.11-3.14-4.47-5.99
			c1.13-2.75,2.79-2.42,4.76-0.89C854.33,453.01,856.34,453.23,858.05,450.8z"/>
		<path class="st7" d="M597.34,444.73c-0.02,0.27-0.04,0.54-0.06,0.8c-2.48-0.06-4.92,0.08-6.93,1.82
			c-2.41-4.16-4.82-8.33-7.23-12.49c1.75-0.27,3.26-0.94,4.91,1.02c1.25,1.49,2.94,0.51,3.3-1.62c0.62-0.28,0.7-0.83,0.7-1.41
			c0.49,0.48,0.97,0.97,1.46,1.45C595.67,437.44,595.7,441.38,597.34,444.73z"/>
		<path class="st13" d="M590.35,447.35c2.01-1.74,4.45-1.88,6.93-1.82c2.06,5.07,2.34,10.66,4.55,15.69
			c-1.45,0.54-1.58,2.27-2.74,3.07C596.95,458.24,592.64,453.32,590.35,447.35z"/>
		<path class="st6" d="M576.3,412.55c2.77,2.61,4.69,5.85,6.75,8.99c-1.15,0.67-0.23,2.34-1.44,2.98c-1.66,0.12-3.82-0.59-3.88,2.27
			c-3.4-3.22-5.3-7.51-8.03-11.21C572.18,415.19,574.13,413.62,576.3,412.55z"/>
		<path class="st10" d="M851.96,458.28c1.58-0.1,2.98,0.26,4.06-1.9c1.3-2.59,3.71-3.68,6.73-1.52c1.92,1.37,4.44,1.21,6.77,1.25
			c-0.08,1.15-0.16,2.3-0.24,3.45C864.29,463.44,858.37,463,851.96,458.28z"/>
		<path class="st6" d="M678.94,373.62c3.51,0.73,7.02,1.46,10.53,2.2c-0.88,1.94-2.77,2.76-4.41,3.76
			c-3.62,2.21-7.36,4.23-11.04,6.32c-0.44-1.25-0.11-2.39,0.5-3.48c0.97-1.74,0.97-3.46-0.04-5.17c0,0,0,0,0,0
			c2.37-0.16,2.31-1.86,2.24-3.55C677.46,373.67,678.2,373.64,678.94,373.62z"/>
		<path class="st13" d="M760.02,378.88c0.15-3.95,1.05-7.71,2.88-11.23c3.82-0.06,7.36-1.01,10.3-3.55c1.15-0.99,2.4-1.17,3.8-0.98
			c-1.11,3.4-4.09,5.14-6.5,7.4c-0.29,0.26-0.58,0.52-0.87,0.79c0,0,0.04-0.04,0.04-0.04c-0.26,0.26-0.52,0.53-0.79,0.79
			c0,0,0.04-0.04,0.04-0.04c-0.27,0.25-0.53,0.5-0.8,0.76c0,0,0.02-0.01,0.02-0.01c-0.25,0.17-0.5,0.34-0.75,0.5
			C764.36,374.38,763.65,378.55,760.02,378.88z"/>
		<path class="st8" d="M628.91,397.4c3.14-3,5.37-3.18,8.85-0.71c-0.6,2.53,2.86,3.55,2.26,6.08c-0.26,0.49-0.52,0.97-0.77,1.46
			c-0.24,0.26-0.47,0.52-0.71,0.79c0,0,0,0,0,0c-3,2.35-5.4,1.33-7.4-1.4c-0.61-0.83-1.12-1.6-2.25-1.63
			C628.9,400.45,628.91,398.93,628.91,397.4z"/>
		<path class="st5" d="M845.26,435.1c0.5-0.02,1-0.05,1.5-0.07c2.4,0.2,4.75,0.48,6.07,2.93c-1.13,0.84-3.26-1.91-3.55,0.62
			c-0.19,1.69,1.01,3.62,3.29,3.8c0.56,0.05,1.15-0.38,1.73-0.59c0.13,1.19-0.97,1.42-1.58,2.03c-2.56,1.01-5.22,1.15-7.86,0.61
			c-1.21-0.25-1.91-0.33-1.8,1.17c-0.85-2.58-1.61-5.21-3.11-7.52C839.89,433.82,843.63,436.34,845.26,435.1z"/>
		<path class="st6" d="M473.81,353.88c1.66,0.82,3.32,1.65,4.99,2.47c0.4,1.3,1.01,2.51,0.92,3.96c-0.14,2.26-1.12,2.86-3.13,1.92
			c-3.06-4.91-8.3-5.51-13.24-6.74c-1.86-0.46-3.82-0.75-5.3-2.17c0.87-2.1,2.22-2.33,4.41-1.78
			C466.2,352.48,469.72,354.65,473.81,353.88z"/>
		<path class="st4" d="M638.65,466.62c-1.52-0.67-3.16,3-4.62-0.12c-0.02-5.93,1.89-11.53,3.01-17.26c0.47,0.29,0.95,0.57,1.42,0.86
			c0.61,1.64,3.09,1.78,3.11,3.9c0.25,4.14-1.42,7.87-2.41,11.75c-0.19,0.29-0.37,0.59-0.56,0.88L638.65,466.62z"/>
		<path class="st1" d="M739.59,349.47c-1.35,3.14,1.69,3.68,3.07,5.21c-6.71-0.36-13.18,0.29-18.83,4.45c0.03-2,0.05-4.01,0.08-6.01
			C728.71,350.06,733.96,348.95,739.59,349.47z"/>
		<path class="st13" d="M693.25,412.45c0.89,0.61,1.95,0.92,2.24,2.27c0.49,2.29,3.35,3,4.28,2.61c4.73-2,2.83,1.66,3.17,3.36
			c0.25,1.28-0.47,2.76,0.78,3.84c-0.17,1.33,0.56,2.43,0.93,3.62c0,0-0.25,0.11-0.25,0.11c-4.53,0.08-6.56-1.28-7.65-5.59
			c-0.46-1.81-1.67-0.9-2.56-1.18C693.87,418.48,693.56,415.47,693.25,412.45z"/>
		<path class="st1" d="M476.59,362.23c2.01,0.94,3,0.34,3.13-1.92c0.09-1.45-0.52-2.66-0.92-3.96c0.78-0.03,1.92,0.14,1.91,0.8
			c-0.06,3.59,2.2,6.45,2.81,9.83c0.75,4.14-2.97,6.07-4.19,9.22c-0.72,1.86-1.7,0.23-2.45-0.44
			C476.77,371.25,476.68,366.74,476.59,362.23z"/>
		<path class="st0" d="M588.36,354.77c-1.43-2.37-1.39-3.84,2-3.8c6.36,0.08,12.72-0.01,19.08,0.03c2.7,0.02,3.21,1.43,2.11,3.69
			c-2.19-1.87-5.68-1.29-9.15,1.54c-2.2,0.58-3.89-1.06-5.89-1.36C593.79,354.2,591.1,352.05,588.36,354.77z"/>
		<path class="st1" d="M956.27,354.26c-1.7-2.05-0.85-3.22,1.44-3.26c6.93-0.12,13.86-0.12,20.79,0.01c3.05,0.06,3.03,1.73,1.49,3.8
			c-0.45-1.58-1.67-1.83-2.93-1.39c-1.97,0.69-4.12,0.9-5.87,2.17c-1.68,0.28-3.32,0.97-5.07,0.47
			C963.12,353.88,960.02,352.25,956.27,354.26z M971.72,353.31c-0.37-0.3-0.6-0.62-0.85-0.64c-0.29-0.02-0.8,0.15-0.87,0.35
			c-0.18,0.56,0.24,0.86,0.75,0.83C971.04,353.84,971.3,353.57,971.72,353.31z"/>
		<path class="st8" d="M583.18,407.97c-2.88,0.13-4.5,3.41-7.58,3.04c-1.31-1.95-2.62-3.89-3.93-5.84c2.6-3.27,6.01-6.37,2.41-11.01
			c-0.06-0.08-0.02-0.24-0.02-0.37l0.22-0.2c3.03,1.73,3.92,4.54,4.51,7.81C579.24,404.04,581.09,406.19,583.18,407.97z"/>
		<path class="st6" d="M843.06,445.6c-0.11-1.5,0.6-1.42,1.8-1.17c2.64,0.54,5.3,0.4,7.86-0.61c1.77,2.32,3.54,4.65,5.32,6.98
			c-1.7,2.43-3.72,2.21-5.8,0.6c-1.97-1.53-3.63-1.86-4.76,0.89C845.2,450.6,843.76,448.35,843.06,445.6z"/>
		<path class="st11" d="M705.02,430.49c1.01,2.02,2.02,4.04,3.04,6.06c-3.64,0.85-2.91,3.22-2.12,5.77
			c0.23,0.73,2.24,2.43-0.68,2.46c-4.28-3.55-5.9-8.68-8.02-13.52C699.94,432.08,702.31,429.57,705.02,430.49z"/>
		<path class="st8" d="M640.12,413.15c-0.12,1.1-0.03,2.4-1.26,2.9c-1.91,0.78-3.04,2.51-3.62,4.07c-1.26,3.39-3.41,3.73-6.34,2.92
			c-0.08-2.75-0.17-5.5-0.25-8.25c0.22-0.01,0.43-0.08,0.62-0.19c3.6-0.52,7.1-1.74,10.81-1.4L640.12,413.15z"/>
		<path class="st2" d="M598.2,417.04c-0.08-3.75-0.15-7.5-0.23-11.25c1.81-1.72,3.84-1.74,6-0.77c0,3.99-0.01,7.98-0.01,11.97
			C602.03,417,600.12,417.02,598.2,417.04z"/>
		<path class="st5" d="M603.95,376.47c-1.45,0.02-2.91,0.04-4.36,0.06c-1.77-4.86,0.08-10.09-1.54-14.96
			c0.52-0.03,1.03-0.07,1.55-0.1c0.25,0,0.5,0.01,0.74,0.02c0.24,0.26,0.47,0.52,0.71,0.78c0.96,1.49,1.92,2.97,2.88,4.46
			C603.94,369.97,603.95,373.22,603.95,376.47z"/>
		<path class="st9" d="M598.05,361.57c1.62,4.87-0.23,10.1,1.54,14.96c-0.01,2.99,0.02,5.98-0.04,8.97
			c-0.02,1.15,0.48,2.63-1.36,2.99c-2.08-8.66-2.24-17.43-1.48-26.25C597.15,362.02,597.6,361.79,598.05,361.57z"/>
		<path class="st6" d="M926.99,400.65c0.98-0.28,1.96-0.56,2.93-0.84c1.46,1.83,2.87,3.7,4.41,5.46c0.56,0.64,1.3,1.81,2.33,0.39
			c0.69-0.04,1.3-0.2,1.5-0.97c0.49,0.11,0.98,0.23,1.46,0.34c0.62,2.88-0.98,4.97-2.46,7.13c-0.69,1.02-1.46,0.62-2.27,0.28
			C931.98,408.7,928.78,405.15,926.99,400.65z"/>
		<path class="st1" d="M473.81,353.88c-4.09,0.77-7.61-1.41-11.35-2.34c-2.19-0.55-3.54-0.32-4.41,1.78
			c-2.71-1.45-1.91-4.09-1.15-5.81c0.85-1.92,3.24-1.29,4.92-0.58c3.14,1.34,6.11,3.1,9.6,3.44
			C471.35,352.14,473.63,352.29,473.81,353.88z"/>
		<path class="st1" d="M934.43,383.87c-0.9,2.96-3.3,1.32-5.03,1.56c-1.83,0.25-1.59-1.49-1.99-2.57c-0.47-1.26-0.74-2.59-1.82-3.61
			c-2.65-2.51-1.49-4.05,1.42-5.05C930.66,376.51,932.24,380.43,934.43,383.87z"/>
		<path class="st5" d="M640.02,402.76c0.6-2.53-2.86-3.54-2.26-6.08c0.82-4.95,1.33-5.41,6.64-6.01c0.01,2.8,0.02,5.6,0.03,8.4
			c-1.29-0.09-2.43-1.42-3.87-0.49c0.1,1.04,0.88,1.54,1.68,1.75c1.34,0.36,2.29,0.91,2.26,2.46c-0.01,0.64-0.08,1.41-0.71,1.59
			c-1.43,0.41-1.7-1-2.44-1.72C641.14,402.47,640.48,402.72,640.02,402.76z"/>
		<path class="st13" d="M645.4,369.89c0.23-0.04,0.46-0.07,0.69-0.08c0.59,2.31,2.32,2.37,4.2,2.15c-2.25,2.77-4.08,5.81-5.59,9.04
			c-6.38-1.79-6.39-1.79-2.92-7.16c0.4-0.62,0.87-1.19,1.3-1.79C644.1,371.6,644.81,370.81,645.4,369.89z"/>
		<path class="st2" d="M618.36,413.26c0.13-2.33,1.05-4.58,0.03-7.02c-0.52-1.26-0.38-2.59,1.94-2.92c2.05-0.29,4.04-0.62,6.1-0.47
			c-0.26,2.13,2,3.61,1.5,5.8C623.56,407.72,621.58,411.78,618.36,413.26z"/>
		<path class="st10" d="M661.01,414.62c0.29-0.22,0.57-0.63,0.86-0.64c3.96-0.06,4.71-2.86,5.14-5.94c3.57-0.54,6.66-0.04,8.52,3.6
			c0.27,0.52,1.24,0.68,1.89,1.01c-0.05,1.01-0.85,1.27-1.56,1.23C670.87,413.54,665.99,415.2,661.01,414.62z"/>
		<path class="st7" d="M1060.24,437.95c-0.21-1.49,0.57-3.13-0.72-4.44c1.47-3.89,2.85-7.83,5.18-11.33
			c1.24-0.23,2.48-0.46,3.72-0.69C1067.56,427.91,1063.84,432.9,1060.24,437.95z"/>
		<path class="st4" d="M897.37,474.09c0.87-0.01,1.74-0.02,2.6-0.02c0,1.48-0.21,2.9-0.58,4.36c-0.82,3.31-2.33,6.53-1.59,10.09
			c-0.6,0.92,1.67,1.85,0,2.77c-0.98-0.02-1.97-0.04-2.95-0.06c-2.02-2.42-0.32-4.92-0.13-7.38
			C894.99,480.44,895.85,477.17,897.37,474.09z"/>
		<path class="st9" d="M1059.55,371.2c-2.17,2.64-3.72,0.81-4.43-1.04c-1.63-4.24-3.65-8.15-7.04-11.25
			c-1.45-1.32-2.67-2.99-4.75-3.41c-1.99-0.4-1.17-1.78-1.04-2.92c0.49,0,1.17-0.21,1.44,0.03c5.96,5.32,11.78,10.78,15.77,17.86
			C1059.61,370.66,1059.54,370.96,1059.55,371.2z"/>
		<path class="st13" d="M571.66,405.16c1.31,1.95,2.62,3.89,3.93,5.84c0.24,0.51,0.47,1.03,0.71,1.54
			c-2.18,1.07-4.12,2.65-6.61,3.03c-1.08-0.85-1.47-2.06-1.76-3.33c0.67-2.25-0.53-4.35-0.52-6.55c1.23,0.09,2.45,0.09,3.52-0.67
			C571.18,405.04,571.43,405.09,571.66,405.16z"/>
		<path class="st5" d="M972.6,358.5c0.01,2.33,0.06,4.66,0,6.99c-0.03,1.04,0.58,2.49-0.6,3.01c-1.1,0.48-2.38-0.18-3.36-0.93
			c-0.87-0.67-1.58-1.56-2.78-1.65c-1.23-1.35-0.66-2.95-0.61-4.48c3.6-0.15,3.69-0.24,2.84-2.95c1.43-3.03,3.06,0.38,4.57-0.15
			L972.6,358.5z"/>
		<path class="st12" d="M618.36,413.26c3.22-1.48,5.21-5.54,9.59-4.6c1.51,0.05,3.03,0.1,4.54,0.15c-0.65,1.5-2.45,2.13-2.87,3.81
			c-0.12,0.65-0.23,1.31-0.35,1.96c-0.19,0.11-0.4,0.18-0.62,0.19c-2.7,0.01-5.39,0.05-8.09-0.01
			C619.58,414.75,618.14,415.14,618.36,413.26z"/>
		<path class="st2" d="M870.62,440.99c4.09-2.11,6.48-6.64,11.45-7.66c2.59-0.53,3.73-0.3,3.63,2.48c-3.17-0.09-4.61,2.31-6.38,4.32
			c-1,1.14-1.24,3.11-3.28,3.17C874.57,441.75,872.87,440.72,870.62,440.99z"/>
		<path class="st4" d="M577.73,426.79c0.06-2.86,2.21-2.15,3.88-2.27c0.48,1.71,2.01,2.53,3.14,3.69c1.82,2.42,2.21,6.41,6.59,6.05
			c-0.36,2.13-2.05,3.11-3.3,1.62c-1.65-1.96-3.16-1.29-4.91-1.02c-0.55-0.67-1.1-1.34-1.65-2.02c0.92-0.24,2.18-0.22,1.84-1.69
			c-0.52-2.22-2.27-2.29-4.09-2.11C578.43,428.49,577.91,427.75,577.73,426.79z"/>
		<path class="st1" d="M795.13,369.74c1.19,0.25,2.37,0.58,3.57,0.75c1.79,0.24,1.77,1.5,1.52,2.74c-0.39,1.96-6.56,5.78-8.75,5.52
			c-0.23-1.25-0.02-2.61-0.82-3.74C793.1,374.07,793.53,371.4,795.13,369.74z"/>
		<path class="st6" d="M522.4,356.28c4.63,0.58,9.18,1.42,13.37,4.41c-2.01,1.52-3.9,2.89-6.47,2.89c-2.34-2.35-4.54-4.85-7.25-6.79
			c-0.05-0.03-0.03-0.24,0.02-0.32C522.15,356.37,522.29,356.34,522.4,356.28z"/>
		<path class="st13" d="M712.63,373.5c3.43,0.4,5.33-2.47,7.97-3.74c0,2.23-1.3,3.95-2.48,5.62c-2.38,3.36-2.66,7.53-4.49,11.08
			c-0.08-0.55-0.17-1.09-0.25-1.64c0.47-1.5,0.92-3.02,1.41-4.51c0.9-2.7,0.36-4.28-2.89-3.8
			C711.17,375.27,711.14,374.2,712.63,373.5z"/>
		<path class="st8" d="M723.91,353.11c-0.03,2-0.05,4.01-0.08,6.01c-1.2,1.06-2.4,2.11-3.59,3.17c-2-0.06-3.86-1.19-5.93-0.82
			c-0.65-1.69,1.06-1.64,1.75-2.21C718.61,357.13,721.29,355.15,723.91,353.11z"/>
		<path class="st4" d="M806.35,455.11c-0.03-0.19-0.05-0.39-0.05-0.58c0.84-2.7,3.78-1.72,5.39-3.09c2.07,3.01,4.5,5.86,4.28,9.86
			c-0.97-0.51-1.93-1.02-2.9-1.53C810.83,458.22,808.59,456.66,806.35,455.11z"/>
		<path class="st5" d="M632.48,408.81c-1.51-0.05-3.03-0.1-4.54-0.15c0.49-2.19-1.76-3.67-1.5-5.8c0.79-0.37,1.92,0.2,2.46-0.88
			c1.12,0.04,1.64,0.8,2.25,1.63c1.99,2.73,4.4,3.75,7.4,1.4c-0.03,0.69-0.07,1.38-0.1,2.07c-0.86,0.23-1.36,0.75-1.39,1.68
			C635.53,408.78,634,408.79,632.48,408.81z"/>
		<path class="st4" d="M1006.36,438.06c-0.73,2.98-1.02,6.31-5.15,6.65c-1.05-1.45-2.54-2.58-3.13-4.36
			c0.7-0.21,1.42-0.67,2.09-0.61c3.47,0.32,3.54-1.52,2.79-4.08c-0.27-0.92-0.25-1.92-0.36-2.88c0.48,0.24,0.97,0.49,1.45,0.73
			c0,0,0.01,0.01,0.01,0.01c0.24,0.25,0.49,0.5,0.73,0.75c0,0,0.01,0.01,0.01,0.01c0.25,0.24,0.49,0.49,0.74,0.74c0,0,0,0.01,0,0.01
			C1005.82,436.05,1006.09,437.06,1006.36,438.06z"/>
		<path class="st4" d="M860.92,379.57c-2.97,0.09-5.92-0.17-8.84-0.75c2.03-3.42,5.23-4.86,9.01-5.31
			C862.41,375.56,861.76,377.57,860.92,379.57z"/>
		<path class="st6" d="M705.02,430.49c-2.71-0.91-5.08,1.59-7.78,0.76c-1.82-3-2.43-6.38-3.05-9.75c0.89,0.28,2.1-0.63,2.56,1.18
			c1.09,4.31,3.12,5.67,7.65,5.59C704.73,428.97,705.23,429.63,705.02,430.49z"/>
		<path class="st10" d="M705.25,444.77c2.92-0.02,0.91-1.72,0.68-2.46c-0.79-2.55-1.52-4.91,2.12-5.77
			c0.76,1.05,1.05,2.25,1.05,3.53c-0.41,2-0.41,4.07,0.64,5.79c1.05,1.71,0.78,3.13-0.02,4.69
			C707.48,449.21,707,446.5,705.25,444.77z"/>
		<path class="st7" d="M876.05,443.3c2.04-0.07,2.28-2.03,3.28-3.17c1.77-2.01,3.21-4.41,6.38-4.32c-0.4,3.75-2.86,6.55-4.45,9.75
			c-1.63-0.84-3.21-1.88-5.19-1.5C876.06,443.8,876.05,443.55,876.05,443.3z"/>
		<path class="st7" d="M795.13,369.74c-1.6,1.66-2.03,4.33-4.48,5.27c-2.55-1.18-2.73-4.18-4.53-5.94c1.1-2.35,2.93-1.65,4.67-1.05
			C792.26,368.52,793.88,368.66,795.13,369.74z"/>
		<path class="st1" d="M603.97,405.02c-2.16-0.96-4.18-0.95-6,0.77c-1.83-2.82,0.8-5.52,0.23-8.3c2.76-0.62,3.9,1.88,5.76,2.99
			C603.96,401.99,603.97,403.5,603.97,405.02z"/>
		<path class="st1" d="M1016.82,354.74c-0.79-1.08-1.99-0.61-3.02-0.78c5.87-4.01,11.96-7.16,19.42-5.15
			c-0.99,1.08-2.32,0.75-3.47,0.64c-2.36-0.22-4.43,0.42-6.08,1.98C1021.7,353.28,1019.36,354.17,1016.82,354.74z"/>
		<path class="st12" d="M494.71,354.77c4.52-1.16,9.07-3.36,13.51,0.24c-4.26,1.1-8.91,0.8-12.73,3.5
			C494.46,357.42,494.03,356.21,494.71,354.77z"/>
		<path class="st4" d="M845.29,416.85c-1.5,4.04-1.99,4.15-4.69,1.08c-1.94-2.2-1.89-5.66,0.09-7.56
			C842.42,412.39,844.59,414.1,845.29,416.85z"/>
		<path class="st13" d="M897.81,488.51c-0.74-3.56,0.77-6.79,1.59-10.09c0.36-1.46,0.57-2.88,0.58-4.36c1.02-0.55,2.05-1.58,3,0.09
			c-0.99,3.97-2.05,7.92-2.95,11.91C899.72,487.4,899.31,488.39,897.81,488.51z"/>
		<path class="st5" d="M876.05,443.3c0,0.25,0.01,0.5,0.01,0.75c-0.77,1.07-1.85,2.01-1.62,3.54c-0.47,0.1-0.94,0.19-1.42,0.29
			c-1.99-2.03-5.18-2.44-6.76-5.03c2.01,0.68,3.49,0.11,4.36-1.87C872.87,440.72,874.57,441.75,876.05,443.3z"/>
		<path class="st8" d="M645.4,369.89c-0.59,0.92-1.3,1.7-2.32,2.16c-2.62-0.52-3.77-3.84-6.81-3.56c2.65-1.04,4.89-2.78,7.24-4.32
			C643.93,366.15,645.44,367.76,645.4,369.89z"/>
		<path class="st13" d="M674.48,377.25c1.01,1.72,1.01,3.44,0.04,5.17c-0.61,1.09-0.95,2.23-0.5,3.48
			c-0.68,0.95-1.04,0.31-1.23-0.32c-0.99-3.23-2.68-6.14-4.18-9.13C670.58,376.61,672.44,377.6,674.48,377.25z"/>
		<path class="st13" d="M544.19,370.44c-0.65,2.66-3.78,4.31-3.08,7.53c-0.27-0.05-0.54-0.1-0.81-0.15
			c-1.04-1.92-0.17-4.81-2.94-5.85c0.24-0.5,0.47-0.99,0.71-1.49c0.11-0.22,0.15-0.45,0.14-0.7c0,0-0.02,0.02-0.02,0.02
			c0.76-0.75,1.53-1.51,2.29-2.26C542.43,367.59,543.18,369.19,544.19,370.44z"/>
		<path class="st13" d="M874.44,447.59c-0.23-1.53,0.85-2.47,1.62-3.54c1.99-0.38,3.56,0.66,5.19,1.5
			c-0.69,2.35-2.53,3.99-3.73,6.02C875.31,451.17,875.38,448.99,874.44,447.59z"/>
		<path class="st7" d="M906.87,404.25c-2.04-0.02-4.08-0.04-6.12-0.07c-0.46-1.72-1.72-3.42-0.09-5.17
			c2.26-0.41,3.87,1.86,6.13,1.48C907.85,401.72,907.69,402.98,906.87,404.25z"/>
		<path class="st8" d="M628.9,436.41c1.24-0.14,2.16-2.13,3.69-0.66c-0.02,1.75-0.04,3.5-0.06,5.26c0,0,0.01-0.02,0.01-0.02
			c-1.48,0.58-1.41,2.1-1.98,3.24c-0.48,0.96,0.13,2.6-1.67,2.76C628.89,443.46,628.89,439.94,628.9,436.41z"/>
		<path class="st13" d="M912.61,369.94c-1.09,2.93-1.94,6-4.55,8.08c-0.21,0.03-0.4-0.03-0.57-0.17c-0.05-0.24-0.06-0.48-0.02-0.72
			c0.01-1.55-0.22-3.09,0.44-4.62c0.47-1.09,1.79-2.24,0.27-3.53C910.41,365.81,911.16,369.5,912.61,369.94z"/>
		<path class="st7" d="M505.82,460.62c0.03-0.28,0.07-0.56,0.1-0.84c2.93,1.1,5.29,3.92,8.91,3c-0.54,1.97-1.46,4.15-3.52,4.24
			c-2.04,0.09-3.11-2.1-4.08-3.82C506.75,462.34,506.29,461.48,505.82,460.62z"/>
		<path class="st7" d="M598.05,361.57c-0.45,0.22-0.9,0.45-1.35,0.67c-0.56-1.5-1.13-2.99-1.69-4.49c2.03-0.17,1.47-1.68,1.48-2.89
			c2,0.31,3.69,1.95,5.89,1.36c0.9,0.22,1.42,0.86,1.81,1.65c0,0.22-0.07,0.42-0.21,0.59c-0.19-0.03-0.37-0.04-0.56-0.05
			c-0.29-0.2-0.58-0.4-0.87-0.61c-0.24-0.03-0.48-0.05-0.71-0.07c-0.27-0.54-0.54-0.56-0.81-0.01c-0.24,0.25-0.48,0.5-0.72,0.75
			c-1.98,0.24-1.25,1.28-0.66,2.27c-0.02,0.24-0.04,0.48-0.06,0.71C599.09,361.5,598.57,361.54,598.05,361.57z"/>
		<path class="st4" d="M903.61,472.37c-0.83-0.11-2.4,0.67-2.27-0.74c0.27-2.88,1-5.74,1.7-8.56c0.37-1.5,1.74-0.97,2.79-0.97
			C906,465.72,903.47,468.76,903.61,472.37z"/>
		<path class="st1" d="M492.34,406.49c-4.83-2.23-4.83-5.89,0.01-9.75C492.35,399.99,492.35,403.24,492.34,406.49z"/>
		<path class="st1" d="M852.06,354.68c-2.26,0.57-4.5,2.21-6.78,0.06c-0.01-0.49-0.03-0.99-0.04-1.48c0.03-0.97,0.06-1.95,0.09-2.92
			C848.32,350.63,850.48,352.2,852.06,354.68z"/>
		<path class="st6" d="M956.27,354.26c3.76-2,6.85-0.37,9.84,1.81c-0.6,1.05-1.41,1.77-2.71,1.7
			C961,356.64,958.11,356.51,956.27,354.26z"/>
		<path class="st8" d="M514.83,462.77c-3.61,0.92-5.97-1.9-8.91-3c-0.49-0.29-0.97-0.57-1.46-0.86c-0.01-0.25-0.01-0.49,0-0.74
			c2.7-0.02,5.33,0.33,7.82,1.47C513.65,460.28,515.03,460.87,514.83,462.77z"/>
		<path class="st1" d="M939.63,405.03c-0.49-0.11-0.98-0.22-1.46-0.34c-0.03-0.62-0.05-1.23-0.08-1.84c3.13,0.19,3.84-3.87,6.85-3.9
			c0.73,0.23,1.27,0.66,1.48,1.43c-0.83,2.57-3.31,2.91-5.29,3.92c-0.24,0.24-0.47,0.49-0.71,0.73c0,0,0.03-0.01,0.03-0.01
			C940.17,405.03,939.9,405.03,939.63,405.03z"/>
		<path class="st4" d="M808.49,424.53c0.07,0.71,0.14,1.42,0.22,2.12c-0.08,0.76-0.16,1.52-0.25,2.27
			c-3.77-1.11-3.67-5.61-6.54-7.51c0-0.78-0.23-1.64,0.71-2.11C805.08,420.49,805.38,424.1,808.49,424.53z"/>
		<path class="st6" d="M971.17,355.59c1.75-1.27,3.91-1.48,5.87-2.17c1.26-0.44,2.48-0.19,2.93,1.39c-2.21,1.23-4.43,2.46-6.64,3.7
			c0,0-0.37,0.01-0.37,0.01s-0.37-0.01-0.37-0.01c0,0,0.07-0.16,0.07-0.16C972.69,357.14,971.03,356.86,971.17,355.59z"/>
		<path class="st5" d="M796,456.13c-2.16,2.41-5.98,2.52-7.71,5.53c-0.48-0.18-1.68-0.28-1.18-0.77c1.99-1.9,2.1-5.19,4.88-6.43
			C793.66,454.22,794.74,455.39,796,456.13z"/>
		<path class="st12" d="M604.2,357.88c-0.39-0.79-0.91-1.43-1.81-1.65c3.48-2.83,6.96-3.41,9.15-1.54
			C609.14,355.86,607.26,358.23,604.2,357.88z"/>
		<path class="st12" d="M596.5,354.86c-0.02,1.21,0.54,2.71-1.48,2.89c-2.26-0.91-4.8-1.19-6.66-2.98
			C591.1,352.05,593.79,354.2,596.5,354.86z"/>
		<path class="st1" d="M628.89,446.99c1.81-0.16,1.19-1.8,1.67-2.76c0.57-1.14,0.49-2.66,1.98-3.24c0.63,4.54-0.56,8.53-3.63,11.94
			C628.9,450.95,628.89,448.97,628.89,446.99z"/>
		<path class="st4" d="M644.73,427.47c-0.2-0.13-0.49-0.21-0.6-0.4c-0.79-1.38-0.13-3.76-2.54-3.99c-2.12-0.2-2.7,1.84-3.8,3.15
			c-1.47-3.92-1.09-4.68,2.63-4.69c1.32,0,2.65-0.85,3.97-0.05C644.51,423.49,644.62,425.48,644.73,427.47z"/>
		<path class="st4" d="M845.26,435.1c-1.63,1.24-5.37-1.28-5.31,2.98c-1.34-1.96-3.13-3.64-3.69-6.08
			C839.62,431.98,842.51,433.33,845.26,435.1z"/>
		<path class="st8" d="M599.6,361.47c0.02-0.24,0.04-0.48,0.06-0.71c0.79-0.59,0.66-1.45,0.66-2.27c0.24-0.25,0.48-0.5,0.72-0.75
			c0.27,0,0.54,0,0.81,0.01c0.24,0.02,0.48,0.04,0.71,0.07c0.29,0.2,0.58,0.41,0.87,0.61c0.19,0.01,0.37,0.03,0.56,0.05
			c-0.02,2.75-0.04,5.5-0.05,8.25c-0.96-1.49-1.92-2.97-2.88-4.46c-0.24-0.26-0.47-0.52-0.71-0.78
			C600.1,361.48,599.85,361.47,599.6,361.47z"/>
		<path class="st7" d="M896.21,357.76c2.21-0.43,3.92,1.08,5.9,1.53c-1.08,1.83-3.35,2.17-4.66,3.73c-0.96-1-1.91-2.01-2.87-3.01
			C895.66,359.65,896.2,358.9,896.21,357.76z"/>
		<path class="st1" d="M492.53,362.31c-2.76,1.32-3.85-1.06-4.86-2.61c-0.86-1.31,0.68-1.74,1.8-1.96c1.69,0.79,3.29,1.72,4.58,3.11
			C494.12,361.94,493.58,362.39,492.53,362.31z"/>
		<path class="st7" d="M869.27,459.56c0.08-1.15,0.16-2.3,0.24-3.45c1.97-0.05,1.69-2.15,2.77-3.02c1.15,0.03,2.31,0.06,3.46,0.09
			C874.82,456.55,872.01,458.02,869.27,459.56z"/>
		<path class="st7" d="M494.04,360.85c-1.29-1.39-2.88-2.32-4.58-3.11c1.14-2.07,2.95-2.95,5.25-2.98
			c-0.68,1.44-0.26,2.65,0.78,3.74C495.01,359.29,494.52,360.07,494.04,360.85z"/>
		<path class="st8" d="M658.68,354.61c-2.88,2.88-4.39,7.75-9.88,6.86C651.87,358.87,654.91,356.21,658.68,354.61z"/>
		<path class="st9" d="M897.45,363.02c1.3-1.55,3.58-1.89,4.66-3.73c2.44,0.77,2.76,2.1,0.53,3.35c-1.31,0.74-2.4,1.61-3.47,2.6
			C898.41,364.63,897.44,364.2,897.45,363.02z"/>
		<path class="st6" d="M875.75,453.17c-1.15-0.03-2.31-0.06-3.46-0.09c-0.02-1.04-0.04-2.08-0.06-3.12
			c0.27-0.69,0.54-1.39,0.81-2.08c0.47-0.09,0.94-0.19,1.42-0.29c0.94,1.39,0.87,3.57,3.08,3.98
			C877.26,452.48,876.61,452.94,875.75,453.17z"/>
		<path class="st6" d="M537.36,371.96c2.78,1.05,1.9,3.93,2.94,5.85c-0.69-0.17-1.37-0.35-2.06-0.52
			C534.59,376,534.59,376,537.36,371.96z"/>
		<path class="st13" d="M894.85,491.23c0.98,0.02,1.97,0.04,2.95,0.06c0.56,0.93-0.08,1.85-0.05,2.77c0.05,1.82-1.15,3.08-2.64,2.81
			c-1.88-0.34-0.47-1.98-0.44-3.06C894.69,492.95,894.79,492.09,894.85,491.23z"/>
		<path class="st13" d="M971.17,355.59c-0.14,1.27,1.52,1.55,1.5,2.75c-1.51,0.53-3.14-2.88-4.57,0.15
			c-1.46,0.25-2.84,0.6-3.05,2.43c-0.55-1.05-1.11-2.1-1.66-3.16c1.3,0.06,2.1-0.66,2.71-1.71
			C967.86,356.57,969.5,355.87,971.17,355.59z"/>
		<path class="st5" d="M598.2,417.04c1.92-0.02,3.84-0.04,5.76-0.05c0.43,0.87-0.3,1.49-0.49,2.23c-1.81,0.31-3.62,0.61-5.44,0.92
			C597.15,419.05,598.43,418.09,598.2,417.04z"/>
		<path class="st6" d="M599.09,464.29c1.16-0.8,1.28-2.53,2.74-3.07c1.17,0.68,1.83,1.72,2.16,3.01
			C602.37,465.33,600.74,465.2,599.09,464.29z"/>
		<path class="st6" d="M966.55,463.71c1.18-0.72,2.36-1.44,3.54-2.16c1.09,0.53,1.6,1.46,1.83,2.6
			C970.13,463.91,968.13,466.39,966.55,463.71z"/>
		<path class="st13" d="M579.22,429.04c1.82-0.18,3.57-0.1,4.09,2.11c0.34,1.47-0.92,1.45-1.84,1.69
			C580.72,431.58,579.97,430.31,579.22,429.04z"/>
		<path class="st13" d="M896.21,357.76c0,1.14-0.54,1.89-1.62,2.25c-1-1.2-2.99-1.23-3.48-3.01
			C892.81,357.16,894.65,356.49,896.21,357.76z"/>
		<path class="st7" d="M1009.26,454.5c1.11-0.14,2.09,0.25,3.04,0.75c1.79,0.59,2.91,1.77,3.22,3.67
			C1013.04,458.02,1011.27,456.09,1009.26,454.5z"/>
		<path class="st4" d="M965.06,360.92c0.2-1.83,1.59-2.18,3.05-2.43c0.85,2.7,0.75,2.8-2.84,2.95
			C965.12,361.29,965.06,361.12,965.06,360.92z"/>
		<path class="st2" d="M504.46,458.18c-0.01,0.25,0,0.49,0,0.74c-1.97,0.15-3.89-0.06-5.75-0.75c-0.52-0.91-0.02-1.67,0.76-1.32
			C501.09,457.58,503.03,456.94,504.46,458.18z"/>
		<path class="st5" d="M641.57,453.99c-0.02-2.11-2.5-2.26-3.11-3.9c1.52-0.35,2.79,0.01,3.7,1.35
			C642.25,452.36,642.53,453.32,641.57,453.99z"/>
		<path class="st8" d="M663.99,354.78c-1.79-0.04-3.57-0.07-5.36-0.11c0.52-0.92,1.5-1.08,2.36-1.43
			C661.93,353.88,663.66,352.94,663.99,354.78z"/>
		<path class="st8" d="M845.33,350.34c-0.03,0.97-0.06,1.95-0.09,2.92c-2.15-0.68-1.78-1.81-0.55-3.1
			C844.93,350.12,845.14,350.18,845.33,350.34z"/>
		<path class="st13" d="M757.94,378.8c0.68,0.03,1.37,0.06,2.05,0.09C759.23,380.7,758.57,380.1,757.94,378.8z"/>
		<path class="st1" d="M1004.8,362.26c0.07,1.2-0.04,2.25-1.65,2.16C1003.51,363.56,1003.87,362.7,1004.8,362.26z"/>
		<path class="st13" d="M720.86,369.49c0.11-0.22,0.16-0.45,0.13-0.69c0.31-0.07,0.74-0.23,0.7,0.3
			C721.68,369.25,721.15,369.36,720.86,369.49z"/>
		<path class="st1" d="M1008.54,358.45c-0.26,0.25-0.52,0.5-0.78,0.75C1008.01,358.95,1008.28,358.7,1008.54,358.45z"/>
		<path class="st1" d="M1009.28,357.7c-0.25,0.25-0.51,0.51-0.76,0.76C1008.77,358.21,1009.03,357.95,1009.28,357.7z"/>
		<path class="st8" d="M644.41,363.5c-0.1,0.52-0.4,0.81-0.94,0.83C643.54,363.78,643.9,363.55,644.41,363.5z"/>
		<path class="st1" d="M1010.03,356.98c-0.25,0.24-0.51,0.49-0.76,0.73C1009.53,357.46,1009.78,357.22,1010.03,356.98z"/>
		<path class="st1" d="M1010.79,356.3c-0.24,0.22-0.49,0.44-0.73,0.66C1010.3,356.74,1010.55,356.52,1010.79,356.3z"/>
		<path class="st8" d="M645.26,362.82c-0.32,0.28-0.65,0.55-0.97,0.83C644.38,363.1,644.76,362.89,645.26,362.82z"/>
		<path class="st1" d="M1013.78,353.97c-0.29,0.24-0.58,0.47-0.87,0.71C1013.2,354.45,1013.49,354.21,1013.78,353.97z"/>
		<path class="st1" d="M1005.54,361.47c-0.23,0.25-0.47,0.5-0.7,0.75C1005.07,361.97,1005.3,361.72,1005.54,361.47z"/>
		<path class="st7" d="M769.63,371.3c0.29-0.26,0.58-0.52,0.87-0.79C770.21,370.78,769.92,371.04,769.63,371.3z"/>
		<path class="st1" d="M1006.28,360.7c-0.25,0.25-0.49,0.51-0.74,0.76C1005.79,361.2,1006.04,360.95,1006.28,360.7z"/>
		<path class="st7" d="M768.89,372.06c0.26-0.26,0.52-0.53,0.79-0.79C769.41,371.53,769.15,371.8,768.89,372.06z"/>
		<path class="st7" d="M768.13,372.77c0.27-0.25,0.53-0.5,0.8-0.76C768.66,372.27,768.39,372.52,768.13,372.77z"/>
		<path class="st8" d="M573.57,392.77c0.23,0.27,0.47,0.55,0.7,0.82c0,0-0.22,0.2-0.22,0.2c-0.24-0.25-0.47-0.5-0.71-0.76
			L573.57,392.77z"/>
		<path class="st7" d="M1015.79,458.98c0.38,0.21,0.76,0.43,1.15,0.64C1016.33,459.82,1016.07,459.39,1015.79,458.98z"/>
		<path class="st1" d="M1011.57,355.63c-0.24,0.2-0.47,0.39-0.71,0.59C1010.91,355.79,1011.09,355.54,1011.57,355.63z"/>
		<path class="st1" d="M1007.03,359.95c-0.25,0.25-0.51,0.51-0.76,0.76C1006.53,360.45,1006.78,360.2,1007.03,359.95z"/>
		<path class="st1" d="M1007.77,359.18c-0.25,0.26-0.5,0.52-0.75,0.78C1007.27,359.7,1007.52,359.44,1007.77,359.18z"/>
		<path class="st7" d="M638.59,466.63c0.19-0.29,0.37-0.59,0.56-0.88C639.23,466.21,639.08,466.53,638.59,466.63z"/>
		<path class="st4" d="M693.1,408.11c-0.02,0.29-0.04,0.57-0.06,0.86c-0.05-0.21-0.13-0.41-0.15-0.62
			C692.88,408.28,693.03,408.19,693.1,408.11z"/>
		<path class="st13" d="M667.86,375.73c0.22,0.22,0.43,0.44,0.65,0.67C668.29,376.17,668.08,375.95,667.86,375.73z"/>
		<path class="st7" d="M767.4,373.26c0.25-0.17,0.5-0.34,0.75-0.5C767.9,372.93,767.65,373.1,767.4,373.26z"/>
		<path class="st6" d="M1039.27,378.01c-5.36-4-10.82-7.65-17.82-8.31c-6.34-0.6-11.64,1.52-16.48,5.3
			c-1.55,0.24-3.1,0.48-4.65,0.73c2.03-4.91,5.95-8.01,10.25-10.76c0.92-0.59,1.8-1.24,2.7-1.86c6.32-2.85,12.71-4.73,19.72-2.48
			c2.68,0.86,4.97,2.14,6.99,4.02c-0.44,3.43,3.61,4.85,3.74,8.1c-4.66-0.06-4.66-0.07-4.17,4.58
			C1039.56,377.54,1039.36,377.78,1039.27,378.01z"/>
		<path class="st1" d="M1010.1,426.78c4.55,4.53,9.07,9.1,14.94,11.98c0.02,0.76,0.05,1.53,0.07,2.29
			c-0.01,0.73-0.02,1.46-0.03,2.18c-0.31,2.06,1.77,4.63-1.27,6.16c-0.04,0.02,0.32,0.84,0.49,1.28c-1.73-0.28-3.28-0.93-4.59-2.11
			c1.05-3.37-1.64-4.52-3.62-6.09c-1.68-2.77-4.26-5.19-3.06-9c0.4-1.28-0.27-2.52-1.43-3.21
			C1010.19,429.43,1009.91,428.24,1010.1,426.78z"/>
		<path class="st7" d="M1055.77,400.46c-2.76-4.48-5.52-8.95-8.28-13.43c0.24-0.01,0.47-0.02,0.71-0.05
			c2.81,2.16,4.19,1.84,5.36-1.33c0.38-1.02,0.53-2.12,0.79-3.18c3.23,3.69,5.08,8.09,6.58,12.68c-2.07,0.15-1.53,4.04-4.39,3.05
			c-0.11-0.1-0.23-0.19-0.34-0.29c0.1,0.11,0.19,0.23,0.29,0.34C1056.25,399,1056.01,399.73,1055.77,400.46z"/>
		<path class="st13" d="M1039.27,378.01c0.1-0.23,0.3-0.47,0.27-0.68c-0.49-4.64-0.49-4.64,4.17-4.58c-0.12-3.24-4.18-4.67-3.74-8.1
			c5.45,3.47,9.13,8.44,12.04,14.09c-2.58-0.09-5.44,0.82-7.18-2.19c-0.35-0.61-1.24-0.99-1.94-0.48c-0.94,0.67-0.44,1.46,0.03,2.24
			c0.37,0.6,0.57,1.31,0.84,1.97c-0.64,0.02-1.22,0.18-1.51,0.84C1040.92,380.39,1040.01,379.28,1039.27,378.01z"/>
		<path class="st1" d="M1056.54,398.22c2.85,0.98,2.32-2.91,4.39-3.05c1.81,3.1,2.59,6.48,2.31,10.04
			c-0.24,2.96-1.58,5.21-4.78,5.83c-0.9-3.52-1.79-7.05-2.69-10.57c0.24-0.73,0.48-1.46,0.72-2.19L1056.54,398.22z"/>
		<path class="st4" d="M1043.77,380.26c-0.27-0.66-0.47-1.37-0.84-1.97c-0.47-0.78-0.97-1.56-0.03-2.24
			c0.7-0.51,1.59-0.13,1.94,0.48c1.74,3.01,4.6,2.1,7.18,2.19c1.6,0.74,2.23,2.08,2.33,3.75c-0.26,1.06-0.41,2.16-0.79,3.18
			c-1.17,3.17-2.55,3.49-5.36,1.33c0.07-2.33-1.01-4.02-2.93-5.23C1045.25,380.77,1044.77,380.25,1043.77,380.26
			C1043.77,380.27,1043.77,380.26,1043.77,380.26z"/>
		<path class="st9" d="M1024.3,450.68c-0.17-0.45-0.53-1.26-0.49-1.28c3.04-1.53,0.96-4.1,1.27-6.16c0.57,0.94,1.64,1.88,1.63,2.82
			c-0.02,5.08,3.37,4.97,6.88,4.82C1030.47,452.06,1027.38,451.78,1024.3,450.68z"/>
		<path class="st9" d="M1025.11,441.05c-0.02-0.76-0.05-1.53-0.07-2.29c0.76,0.06,1.38,0.34,1.68,1.11
			C1026.45,440.63,1025.86,440.95,1025.11,441.05z"/>
		<path class="st9" d="M1038.77,450.11c-0.96,0.83-2.1,0.6-3.21,0.54C1036.49,449.64,1037.66,450.05,1038.77,450.11z"/>
		<path class="st1" d="M1013.83,358.52c0.24-0.25,0.47-0.51,0.71-0.76C1014.3,358.02,1014.07,358.27,1013.83,358.52z"/>
		<path class="st1" d="M1016.1,355.43c0.24-0.22,0.47-0.45,0.71-0.67C1016.57,354.99,1016.33,355.21,1016.1,355.43z"/>
		<path class="st1" d="M1013.09,360.68c0.2-0.21,0.4-0.43,0.6-0.64C1013.49,360.25,1013.29,360.46,1013.09,360.68z"/>
		<path class="st7" d="M940.42,405.03c0.24-0.24,0.47-0.49,0.71-0.73C940.89,404.54,940.65,404.79,940.42,405.03z"/>
		<path class="st5" d="M704.64,428.15c-0.37-1.19-1.1-2.29-0.93-3.62c0.8-0.51,1.27-2.16,2.61-0.77c0.82,0.86,2.14,1.54,1.7,3.02
			C707.49,428.5,706.01,428.27,704.64,428.15z"/>
		<path class="st4" d="M809.85,403.61c0.03,0.44,0.06,0.88,0.08,1.31c-0.93,1.07-0.86,2.44-0.47,3.53c0.31,0.88,0.51-0.21,0.76-0.42
			c0.27,1.19,0.54,2.38,0.87,3.82c7.23-3.29,12.78-8.63,18.99-12.98c0.54,2.57,2.49,2.98,4.66,3.07c-2.64,2.55,0.35,2.9,1.55,3.95
			c-0.5,0.54-1.06,1.58-1.49,1.53c-5.39-0.69-3.42,3.34-3.83,5.83c0,0-0.32,0.01-0.32,0.01s-0.32-0.02-0.32-0.02
			c-1.64-1.4-3.64-1.01-5.3-0.53c-5.81,1.68-11.75,3-17.23,5.69c-0.96-0.21-1.93-0.43-2.9-0.64c3.98-2.57,2.77-6.61,2.96-10.29
			c0.08-1.44-0.92-3.4,1.43-4.1C809.48,403.47,809.66,403.54,809.85,403.61z"/>
		<path class="st8" d="M802.64,419.3c-0.94,0.46-0.71,1.33-0.71,2.11c-0.19,2.37-1.05,4.6,1.06,6.91c1.18,1.29-0.48,3.18-1.64,4.52
			c-1.36,1.57-3.25,1.68-5.07,1.79c-0.72,0.04-1.08-0.91-1.14-1.71c-0.27-3.69-0.66-7.38-0.77-11.08c-0.08-2.65,3.4-5.66,6.04-5.61
			c1.3,0.02,2.14,0.48,2.44,1.77C802.78,418.43,802.71,418.87,802.64,419.3z"/>
		<path class="st8" d="M800.53,402.8c-0.98-0.34-2.97,0.45-2.73-0.96c0.43-2.49,2.95-3.03,5.14-3.49c1.19-0.25,1.9,0.39,1.85,1.65
			C804.69,402.96,802.39,402.55,800.53,402.8z"/>
		<path class="st13" d="M802.64,419.3c0.07-0.44,0.14-0.87,0.21-1.31c0.68-0.07,1.36-0.14,2.04-0.21c0.97,0.22,1.93,0.43,2.9,0.64
			c0.23,2.03,0.47,4.06,0.7,6.1C805.38,424.1,805.08,420.49,802.64,419.3z"/>
		<path class="st1" d="M809.85,403.61c-0.19-0.07-0.37-0.14-0.56-0.21c0.01-5.81,0-11.63,0.04-17.44c0.01-1.19-0.4-2.51,0.74-3.48
			C810.28,389.53,810.63,396.58,809.85,403.61z"/>
		<path class="st1" d="M810.06,376.55c0,1.49,0.01,2.98,0.01,4.47c-1.43-0.1-2.12-1.98-3.77-1.54
			C807.36,378.25,807.8,376.22,810.06,376.55z"/>
		<path class="st1" d="M805.52,380.23c0.26-0.25,0.52-0.5,0.78-0.75C806.04,379.73,805.78,379.98,805.52,380.23z"/>
		<path class="st1" d="M804.07,380.99c0.25-0.24,0.5-0.48,0.75-0.72C804.56,380.51,804.32,380.75,804.07,380.99z"/>
		<path class="st12" d="M908.19,368.98c1.52,1.29,0.2,2.44-0.27,3.53c-0.66,1.53-0.43,3.07-0.44,4.62
			c-2.94-0.49-3.73-1.93-2.41-4.59C905.78,371.1,906.82,369.89,908.19,368.98z"/>
		<path class="st13" d="M1000.32,375.73c1.55-0.24,3.1-0.48,4.65-0.73c-2.7,3.1-4.94,6.46-6.05,10.48c-0.2-1.38-0.15-2.95-2.17-3.03
			c-0.38-1.34,0.55-2.43,0.68-3.68C998.6,377.96,998.45,375.89,1000.32,375.73z"/>
		<path class="st1" d="M996.75,382.45c2.02,0.08,1.97,1.65,2.17,3.03c-0.28,0.99-0.56,1.98-0.84,2.98
			c-1.44,0.06-2.84-0.17-2.88-1.92C995.17,385.06,994.13,382.99,996.75,382.45z"/>
		<path class="st9" d="M1016.09,442.48c1.98,1.57,4.67,2.71,3.62,6.09c-1.69-0.85-3.39-1.7-5.08-2.55
			c-0.32-0.65-0.63-1.29-0.95-1.94C1014.77,443.99,1016,444.09,1016.09,442.48z"/>
		<path class="st9" d="M1006.36,438.06c-0.27-1.01-0.54-2.02-0.81-3.03c2.17,1.19,3.85,2.78,4.4,5.32
			C1008.28,440.32,1007.8,438.45,1006.36,438.06z"/>
		<path class="st9" d="M1004.04,433.52c-0.48-0.24-0.97-0.49-1.45-0.73c-0.25-0.76-0.5-1.52-0.75-2.28
			C1004.24,430.29,1004.15,431.9,1004.04,433.52z"/>
		<path class="st9" d="M1013,443.45c-0.8-0.25-1.5-0.59-1.52-1.59C1012.35,442.04,1012.86,442.56,1013,443.45z"/>
		<path class="st9" d="M1010.72,441.07c-0.24-0.24-0.48-0.49-0.72-0.73C1010.24,440.58,1010.48,440.82,1010.72,441.07z"/>
		<path class="st9" d="M1011.47,441.82c-0.24-0.24-0.48-0.48-0.72-0.72C1010.99,441.34,1011.23,441.58,1011.47,441.82z"/>
		<path class="st9" d="M1001.82,430.49c-0.24-0.25-0.48-0.5-0.72-0.75C1001.34,429.99,1001.58,430.24,1001.82,430.49z"/>
		<path class="st9" d="M1004.79,434.27c-0.24-0.25-0.49-0.5-0.73-0.75C1004.3,433.78,1004.55,434.03,1004.79,434.27z"/>
		<path class="st9" d="M1005.55,435.02c-0.25-0.25-0.49-0.49-0.74-0.74C1005.05,434.53,1005.3,434.78,1005.55,435.02z"/>
		<path class="st4" d="M711.9,376.5c3.25-0.48,3.79,1.1,2.89,3.8c-0.5,1.49-0.94,3.01-1.41,4.51c-2.67-0.1-3.66-1.52-2.48-3.85
			C711.65,379.49,710.9,377.82,711.9,376.5z"/>
		<path class="st13" d="M842.67,369.96c-1.68-4.74-4.48-8.65-8.57-11.59c0.39-1.68-0.37-3.69,1.4-4.98
			c3.14,0.28,5.28,2.82,8.19,3.65c0.93,1.54,2.78,2.4,3.15,4.35c-0.29,0.4-0.51,0.89-0.87,1.2c-2.44,2.08-3.56,4.11,0.51,6.03
			C844.88,369.12,843.45,368.67,842.67,369.96z"/>
		<path class="st12" d="M835.5,353.38c-1.78,1.29-1.01,3.3-1.4,4.98c-4.56-2.11-9.09-1.58-13.61,0.14c-1.63-0.02-3.11-0.5-4.42-1.49
			C821.95,352.58,828.39,351.21,835.5,353.38z"/>
		<path class="st7" d="M813.83,363.63c-1.2,2.61-2.4,5.21-3.6,7.82c-0.47-0.87-1.39-0.96-2.18-1.27c-4.15-1.6-4.45-2.25-1.4-5.52
			c1.98-2.12,3.64-4.72,6.51-5.9c-0.25,1.7,0.83,2.92,1.53,4.27c0,0-0.17,0.08-0.17,0.08C814.29,363.28,814.06,363.45,813.83,363.63
			z"/>
		<path class="st13" d="M814.69,363.02c-0.71-1.35-1.78-2.58-1.53-4.27c0.97-0.58,1.94-1.16,2.91-1.74
			c1.31,0.99,2.79,1.47,4.42,1.49C818.7,360.2,816.88,361.84,814.69,363.02z"/>
		<path class="st5" d="M573.34,393.03c0.24,0.25,0.47,0.5,0.71,0.76c0.01,0.12-0.04,0.29,0.02,0.37c3.6,4.64,0.19,7.73-2.41,11.01
			c-0.24-0.07-0.48-0.12-0.73-0.13c-0.93-2.16-1.6-4.53-4.3-5.25c-0.25-0.76-0.5-1.52-0.75-2.28c1.96-1.15,4.18-1.72,4.66-4.75
			C570.83,390.92,572.36,392.91,573.34,393.03z"/>
		<path class="st8" d="M540.38,362.24c1.1-2.75,3.5-0.97,5.24-1.51C544.24,362.52,542.27,362.24,540.38,362.24z"/>
		<path class="st8" d="M540.48,367.54c-0.76,0.75-1.53,1.51-2.29,2.26C537.96,368.03,538.76,367.32,540.48,367.54z"/>
		<path class="st8" d="M537.43,366.01c-0.02-0.99,0.5-1.47,1.45-1.55C538.89,365.44,538.42,365.96,537.43,366.01z"/>
		<path class="st8" d="M535.13,369.04c-0.7-0.52-0.81-1.02,0.04-1.5C535.16,368.04,535.14,368.54,535.13,369.04z"/>
		<path class="st8" d="M536.58,367.47c0.07-0.6,0.22-1.15,0.83-1.44C537.38,366.65,537.24,367.21,536.58,367.47z"/>
		<path class="st8" d="M545.63,360.72c0.33-0.62,0.9-0.72,1.51-0.73C546.82,360.6,546.26,360.74,545.63,360.72z"/>
		<path class="st8" d="M538.21,369.78c0.01,0.24-0.04,0.48-0.14,0.7c-0.22,0.01-0.44,0-0.67-0.02
			C537.67,370.23,537.94,370,538.21,369.78z"/>
		<path class="st8" d="M535.9,370.46c-0.25-0.24-0.5-0.47-0.75-0.71C535.4,369.98,535.65,370.22,535.9,370.46z"/>
		<path class="st8" d="M538.94,363c0.24-0.24,0.47-0.48,0.71-0.72C539.41,362.52,539.18,362.76,538.94,363z"/>
		<path class="st5" d="M637.04,449.24c-1.12,5.73-3.03,11.33-3.01,17.26c-0.26-0.01-0.53-0.01-0.79-0.02
			c-0.11-0.48-0.07-1.08-0.35-1.42c-2.24-2.69-3.02-4.81,0.62-7.41c1.59-1.13,0.1-4.58,1.34-6.69
			C635.3,450.17,634.96,448.05,637.04,449.24z"/>
		<path class="st1" d="M632.53,441.01c0.02-1.75,0.04-3.5,0.06-5.26c0.73,0.01,1.46,0.01,2.18,0.02
			C633.78,437.41,633.89,439.53,632.53,441.01z"/>
		<path class="st1" d="M634.8,435.76c0.52-0.9,1.41-0.73,2.23-0.75c-0.18,1.12,0.46,2.4-0.64,3.38
			C635,437.97,635.92,436.25,634.8,435.76z"/>
		<path class="st9" d="M854.31,441.79c-0.58,0.21-1.17,0.63-1.73,0.59c-2.28-0.19-3.49-2.11-3.29-3.8c0.29-2.53,2.42,0.22,3.55-0.62
			c0.91,0.47,1.46,1.18,1.5,2.24c-0.01,0.53-0.01,1.05-0.01,1.58L854.31,441.79z"/>
		<path class="st5" d="M854.31,441.77c0-0.53,0.01-1.05,0.01-1.58C854.99,440.73,855.06,441.25,854.31,441.77z"/>
		<path class="st13" d="M936.66,405.66c-1.03,1.42-1.77,0.25-2.33-0.39c-1.54-1.76-2.95-3.64-4.41-5.46
			c1.41-3.26,2.62-0.78,3.43,0.3C934.64,401.82,935.58,403.8,936.66,405.66z"/>
		<path class="st6" d="M637.05,408.76c0.03-0.92,0.53-1.45,1.39-1.68c0.52,0.29,1.04,0.58,1.55,0.87c0.08,2.3,2,3.56,3.02,5.33
			c-0.97-0.04-1.93-0.09-2.9-0.13c0,0-0.04,0.04-0.04,0.04c-0.76-1-1.51-2.01-2.27-3.01C637.78,409.58,637.64,409.05,637.05,408.76z
			"/>
		<path class="st5" d="M638.54,405.01c0.24-0.26,0.47-0.52,0.71-0.79C639.01,404.49,638.78,404.75,638.54,405.01z"/>
		<path class="st6" d="M566.64,399.78c2.7,0.71,3.37,3.09,4.3,5.25c-1.07,0.76-2.29,0.76-3.52,0.67c-0.25-0.25-0.5-0.51-0.74-0.76
			c-0.04-0.99-0.07-1.97-0.11-2.96C566.59,401.25,566.61,400.52,566.64,399.78z"/>
		<path class="st13" d="M566.57,401.98c0.03,0.99,0.07,1.97,0.11,2.96C564.7,404.02,564.92,403.03,566.57,401.98z"/>
		<path class="st6" d="M642.99,413.27c0.24-0.03,0.48-0.03,0.72-0.01C643.48,413.6,643.24,413.58,642.99,413.27z"/>
		<path class="st13" d="M676.73,373.7c0.06,1.7,0.12,3.39-2.24,3.55c-3.27-2.33-2.52-5.33-1.38-8.39c0.41,0.09,0.82,0.18,1.23,0.27
			C675.13,370.65,675.93,372.18,676.73,373.7z"/>
		<path class="st13" d="M662.47,362.32c0.28-0.24,0.55-0.49,0.83-0.73c1.38,0.13,3.03-0.62,3.91,1.18
			C665.55,363.44,663.79,365.22,662.47,362.32z"/>
		<path class="st8" d="M597.34,444.73c-1.64-3.34-1.67-7.28-3.84-10.43c-0.05-1.61,0.6-2.5,2.33-2.28c2.21,2.78,4.99,5.09,6.72,8.27
			C603.19,444.56,600.29,444.67,597.34,444.73z"/>
		<path class="st6" d="M591.33,434.26c-4.38,0.36-4.76-3.63-6.59-6.05c0.68-0.23,1.35-0.46,2.03-0.69c0.51,0.26,1.01,0.51,1.52,0.77
			c1.17,1.59,1.97,3.48,3.74,4.57C592.02,433.43,591.95,433.98,591.33,434.26z"/>
		<path class="st5" d="M592.03,432.84c-1.78-1.09-2.58-2.98-3.74-4.57c3.26-0.27,6.39-0.28,7.54,3.74
			c-1.73-0.21-2.38,0.67-2.33,2.28C593.01,433.81,592.52,433.33,592.03,432.84z"/>
		<path class="st11" d="M586.77,427.51c-0.68,0.23-1.36,0.46-2.03,0.69c-1.13-1.16-2.66-1.97-3.14-3.69
			c1.22-0.63,0.3-2.31,1.44-2.98c1.22,1.52,2.44,3.05,3.65,4.57C586.73,426.58,586.75,427.04,586.77,427.51z"/>
		<path class="st9" d="M676.73,373.7c-0.8-1.52-1.59-3.04-2.39-4.56c1.07-1.21,2.57-1.37,3.49-0.32c1.11,1.25,2.28,2.86,1.11,4.81
			C678.2,373.64,677.46,373.67,676.73,373.7z"/>
		<path class="st10" d="M806.35,455.11c2.24,1.56,4.47,3.11,6.71,4.67c-3.08,1.73-5.31-0.77-7.63-1.87
			C803.94,457.2,805.37,455.87,806.35,455.11z"/>
		<path class="st5" d="M971.72,353.31c-0.43,0.26-0.69,0.53-0.96,0.55c-0.51,0.03-0.93-0.27-0.75-0.83c0.06-0.2,0.58-0.38,0.87-0.35
			C971.13,352.69,971.35,353.01,971.72,353.31z"/>
		<path class="st1" d="M637.81,410.17c0.76,1,1.51,2.01,2.27,3.01c-3.71-0.34-7.21,0.88-10.81,1.4c0.11-0.66,0.23-1.31,0.34-1.97
			C632.55,412.47,634.73,409.8,637.81,410.17z"/>
		<path class="st9" d="M600.35,361.49c0.24,0.26,0.47,0.52,0.71,0.78C600.82,362.01,600.58,361.75,600.35,361.49z"/>
		<path class="st13" d="M637.81,410.17c-3.09-0.37-5.27,2.3-8.2,2.45c0.42-1.68,2.22-2.31,2.87-3.81c1.52-0.02,3.05-0.04,4.57-0.06
			C637.64,409.05,637.78,409.58,637.81,410.17z"/>
		<path class="st9" d="M600.32,358.49c0,0.82,0.14,1.68-0.66,2.27C599.07,359.76,598.34,358.73,600.32,358.49z"/>
		<path class="st9" d="M603.43,358.42c-0.29-0.2-0.58-0.41-0.87-0.61C602.85,358.01,603.14,358.22,603.43,358.42z"/>
		<path class="st9" d="M601.85,357.74c-0.27,0-0.54,0-0.81-0.01C601.31,357.18,601.58,357.2,601.85,357.74z"/>
		<path class="st12" d="M1045.27,381.75c1.92,1.22,3,2.9,2.93,5.23c-0.24,0.03-0.47,0.05-0.71,0.05c-2.38-1.42-3.56-3.9-5.23-5.93
			c0.29-0.66,0.86-0.81,1.51-0.84c0,0,0.01,0,0.01,0C1044.04,381,1044.53,381.5,1045.27,381.75z"/>
		<path class="st1" d="M1056.49,398.27c-0.1-0.11-0.19-0.23-0.29-0.34c0.11,0.1,0.22,0.19,0.34,0.29
			C1056.54,398.22,1056.49,398.27,1056.49,398.27z"/>
		<path class="st13" d="M1045.27,381.75c-0.74-0.25-1.24-0.75-1.5-1.49C1044.77,380.25,1045.25,380.77,1045.27,381.75z"/>
		<path class="st1" d="M810.22,408.05c-0.25,0.2-0.45,1.29-0.76,0.42c-0.39-1.09-0.46-2.46,0.47-3.53
			C810.03,405.97,810.13,407.01,810.22,408.05z"/>
		<path class="st13" d="M813.83,363.63c0.23-0.17,0.46-0.35,0.69-0.52C814.29,363.28,814.06,363.45,813.83,363.63z"/>
	</g>
</g>
</svg>
