<?xml version="1.0" standalone="no"?>
<!DOCTYPE svg PUBLIC "-//W3C//DTD SVG 20010904//EN"
 "http://www.w3.org/TR/2001/REC-SVG-20010904/DTD/svg10.dtd">
<svg version="1.0" xmlns="http://www.w3.org/2000/svg"
 width="2000.000000pt" height="2000.000000pt" viewBox="0 0 2000.000000 2000.000000"
 preserveAspectRatio="xMidYMid meet">
<metadata>
Created by potrace 1.11, written by Peter Selinger 2001-2013
</metadata>
<g transform="translate(0.000000,2000.000000) scale(0.100000,-0.100000)"
fill="#000000" stroke="none">
<path d="M10699 18756 c-2 -2 -41 -7 -87 -10 -45 -4 -103 -13 -127 -20 -24 -8
-46 -11 -49 -8 -4 3 -6 1 -6 -5 0 -6 -11 -14 -25 -17 -14 -4 -42 -23 -63 -43
-20 -20 -38 -35 -39 -35 -8 5 -23 1 -21 -5 1 -5 -24 -34 -55 -66 -52 -53 -78
-95 -128 -212 -10 -25 -17 -70 -25 -167 -8 -84 7 -179 36 -238 10 -19 19 -39
20 -45 1 -5 15 -26 32 -45 38 -46 41 -51 62 -83 10 -15 25 -27 32 -27 8 0 14
-4 14 -10 0 -5 3 -9 8 -8 4 0 25 -7 47 -17 47 -20 76 -32 90 -35 6 -1 16 -6
23 -12 6 -6 12 -7 12 -2 0 5 5 2 10 -6 5 -8 13 -15 17 -16 4 0 15 -3 23 -7 8
-3 55 -15 103 -27 68 -17 102 -21 150 -16 34 4 96 9 137 11 41 2 127 6 190 9
63 3 129 8 145 11 61 10 81 14 130 25 28 6 84 13 125 16 68 4 91 8 140 21 8 2
21 5 28 5 6 1 12 4 12 8 0 3 12 7 28 8 15 1 38 5 52 8 45 12 223 27 300 25
114 -1 292 -10 315 -15 11 -2 23 -5 27 -5 4 -1 13 -7 20 -13 17 -16 42 -31
135 -79 40 -21 83 -47 95 -58 12 -12 25 -21 30 -21 4 0 8 -6 8 -13 0 -7 9 -23
21 -35 30 -33 49 -85 49 -138 0 -47 -25 -114 -42 -114 -5 0 -7 -3 -5 -7 2 -5
-4 -16 -15 -25 -10 -10 -18 -15 -18 -11 0 3 -9 -4 -20 -17 -11 -13 -20 -19
-20 -15 0 4 -8 1 -17 -7 -27 -22 -98 -41 -130 -34 -15 3 -39 9 -52 12 -13 3
-32 9 -41 14 -10 5 -20 7 -22 4 -3 -3 -21 11 -41 30 -26 25 -34 40 -30 55 3
12 10 21 15 21 6 0 8 6 5 14 -4 10 6 19 31 27 56 19 58 19 122 -7 73 -29 113
-31 140 -4 25 25 27 86 3 113 -13 15 -14 18 -3 12 23 -13 -32 38 -64 59 -25
15 -43 18 -130 14 -120 -6 -119 -5 -173 -41 -24 -15 -43 -26 -43 -23 0 3 -16
-10 -35 -30 -19 -19 -35 -39 -35 -44 0 -6 -4 -10 -8 -10 -4 0 -8 -10 -9 -22
-1 -11 -8 -25 -15 -29 -10 -7 -10 -9 2 -9 12 0 12 -2 2 -9 -15 -9 -25 -101
-11 -101 5 0 9 -6 9 -13 0 -18 54 -77 70 -77 7 0 10 -3 7 -7 -10 -10 47 -60
100 -86 26 -14 72 -32 102 -41 61 -18 196 -21 236 -6 14 5 39 11 55 12 17 1
30 6 30 10 0 4 8 8 19 8 10 0 24 7 31 15 7 8 19 15 27 15 15 0 24 7 81 60 20
19 40 34 45 32 4 -1 7 4 7 11 0 7 11 21 25 31 13 10 23 22 20 26 -3 4 2 14 11
21 8 7 24 30 35 52 25 48 23 134 -3 189 -10 20 -18 42 -18 47 0 6 -9 26 -20
46 -11 19 -17 35 -15 35 12 0 -47 93 -77 122 -18 18 -32 36 -30 40 1 4 -5 8
-14 8 -8 0 -22 6 -29 13 -29 25 -50 42 -50 40 -1 -8 -45 11 -45 19 0 5 -4 7
-9 4 -5 -3 -11 0 -14 8 -3 7 -27 19 -54 26 -26 7 -53 17 -59 21 -6 5 -19 10
-30 12 -10 2 -26 7 -34 10 -53 19 -86 24 -175 26 -55 1 -121 4 -146 7 -51 6
-168 -8 -291 -35 -21 -5 -90 -10 -155 -11 -110 -2 -178 -6 -178 -10 0 -1 -13
-4 -30 -6 -45 -8 -70 -12 -70 -14 0 -1 -11 -3 -25 -6 -14 -2 -61 -11 -105 -20
-124 -24 -173 -29 -270 -28 -117 0 -175 6 -175 17 0 5 -6 7 -12 4 -7 -2 -24 0
-37 5 -13 5 -49 13 -80 17 -114 18 -221 52 -252 81 -9 8 -25 22 -35 30 -21 17
-35 40 -75 121 -33 68 -49 148 -39 194 10 44 66 143 94 166 11 10 17 18 12 19
-6 0 5 11 24 25 19 14 31 25 27 25 -4 0 -2 6 5 14 7 8 16 12 21 9 4 -2 7 2 7
9 0 18 77 51 116 50 45 -2 124 -38 159 -75 38 -39 67 -95 54 -103 -6 -3 -8
-11 -6 -17 9 -26 -42 -44 -111 -40 -58 4 -70 2 -92 -17 -19 -16 -24 -30 -24
-62 1 -22 6 -43 11 -47 5 -3 12 -14 16 -23 3 -10 13 -18 22 -18 8 0 15 -3 15
-8 0 -17 62 -34 103 -28 23 3 50 6 60 7 9 0 17 5 17 10 0 6 5 7 10 4 6 -3 10
-1 10 5 0 6 4 9 10 5 12 -7 132 114 124 126 -3 5 -1 9 4 9 12 0 14 11 17 114
2 49 -1 100 -6 115 -6 14 -10 27 -9 29 1 2 -8 12 -19 21 -11 10 -18 21 -14 25
3 3 1 6 -6 6 -7 0 -11 3 -9 8 2 4 -11 21 -29 39 -18 17 -33 29 -33 27 0 -3
-11 7 -25 21 -14 14 -32 25 -40 25 -8 0 -15 5 -15 10 0 6 -4 10 -9 10 -5 0
-22 5 -38 11 -30 13 -87 22 -94 15z"/>
<path d="M9158 18744 c-10 -3 -18 -10 -18 -15 0 -5 -7 -9 -15 -9 -8 0 -15 -5
-15 -11 0 -5 -4 -8 -9 -5 -4 3 -30 -16 -57 -42 -27 -25 -51 -47 -54 -47 -3 0
-4 -3 -2 -7 1 -5 -2 -7 -6 -5 -11 3 -102 -90 -94 -97 3 -3 0 -6 -6 -6 -7 0
-12 -5 -12 -11 0 -6 -7 -17 -15 -25 -29 -30 -9 -283 26 -318 5 -6 9 -16 9 -23
0 -18 58 -75 100 -99 19 -10 37 -22 40 -26 3 -4 33 -10 66 -13 64 -7 189 19
178 36 -3 5 0 9 7 9 14 0 59 46 59 61 0 5 5 9 10 9 6 0 9 3 8 8 -1 4 3 18 9
32 19 46 25 109 14 143 -15 45 -76 76 -112 56 -27 -14 -54 -39 -43 -39 5 0 3
-5 -4 -12 -7 -7 -12 -22 -12 -34 0 -28 -43 -73 -66 -69 -11 2 -23 4 -29 4 -15
1 -58 43 -74 71 -18 31 -24 130 -9 130 6 0 8 3 5 6 -7 8 28 61 58 87 44 39
112 49 195 27 19 -5 51 -12 70 -15 56 -9 102 -26 124 -46 11 -11 24 -19 28
-19 5 0 6 -4 3 -10 -3 -5 -1 -10 5 -10 6 0 18 -7 26 -15 9 -8 12 -15 8 -15 -4
0 3 -8 14 -19 12 -10 22 -23 22 -28 0 -5 5 -14 12 -21 18 -18 21 -39 21 -135
-1 -83 -15 -147 -34 -147 -5 0 -9 -6 -9 -14 0 -8 -7 -16 -15 -20 -8 -3 -15
-11 -15 -18 0 -8 -9 -20 -20 -28 -11 -8 -20 -17 -20 -21 0 -10 -48 -65 -102
-119 -48 -47 -147 -95 -213 -103 -16 -3 -41 -7 -55 -10 -14 -4 -40 -9 -57 -12
-18 -3 -45 -7 -60 -10 -39 -6 -114 -14 -208 -21 -44 -3 -93 -8 -110 -10 -57
-10 -310 -12 -365 -4 -30 5 -109 11 -175 13 -107 5 -162 12 -245 32 -14 4
-124 8 -244 9 -215 2 -274 -2 -393 -28 -15 -4 -41 -9 -58 -12 -16 -3 -55 -17
-85 -31 -30 -14 -58 -25 -62 -25 -5 1 -8 -2 -8 -8 0 -6 -3 -9 -7 -8 -5 1 -19
-3 -33 -9 -14 -6 -29 -11 -33 -11 -5 0 -15 -9 -23 -19 -7 -10 -14 -14 -14 -10
0 9 -23 -8 -53 -42 -12 -13 -28 -29 -34 -37 -7 -7 -13 -15 -13 -19 0 -7 -47
-71 -67 -93 -7 -7 -16 -25 -19 -40 -4 -15 -10 -31 -14 -37 -13 -17 -12 -278 1
-311 7 -16 12 -32 11 -36 -1 -5 2 -8 8 -8 5 0 10 -5 10 -11 0 -7 11 -24 25
-38 14 -14 42 -44 63 -67 20 -22 45 -43 55 -47 9 -3 17 -11 17 -17 0 -6 5 -8
10 -5 6 3 10 1 10 -4 0 -6 14 -11 30 -11 17 0 30 -5 30 -10 0 -6 3 -9 8 -8 4
1 25 -4 47 -10 50 -15 117 -15 187 -1 138 27 161 34 176 48 9 9 18 15 21 15
13 -3 58 22 79 44 12 13 22 20 22 16 0 -3 23 17 50 46 28 29 48 55 45 58 -3 3
0 11 7 19 27 33 -4 203 -37 203 -6 0 -18 8 -26 18 -23 25 -68 62 -77 62 -4 0
-25 5 -46 11 -24 7 -62 8 -95 3 -31 -4 -59 -7 -63 -6 -5 1 -8 -3 -8 -10 0 -6
-3 -9 -6 -5 -6 6 -55 -38 -54 -48 0 -3 -6 -13 -15 -21 -17 -17 -22 -114 -5
-114 5 0 7 -6 4 -13 -6 -16 63 -67 90 -67 19 0 86 63 86 81 0 5 5 7 10 4 6 -3
10 -2 10 3 0 5 11 7 25 4 14 -2 22 -8 19 -13 -3 -5 -1 -9 4 -9 18 0 6 -56 -16
-80 -12 -13 -22 -20 -22 -15 0 5 -7 0 -15 -11 -8 -10 -15 -14 -15 -9 0 6 -5 3
-10 -5 -5 -8 -13 -15 -17 -16 -4 0 -21 -6 -36 -12 -31 -13 -90 -16 -101 -5 -3
4 -14 8 -23 9 -27 4 -73 26 -73 35 0 5 -7 6 -15 3 -10 -4 -15 0 -15 11 0 9 -4
14 -8 11 -5 -3 -15 6 -22 19 -7 14 -18 25 -25 25 -18 0 -32 74 -34 180 -2 68
1 100 9 100 6 0 9 4 6 9 -6 9 22 41 67 76 25 20 41 27 64 28 7 0 36 22 64 48
29 27 56 46 61 43 4 -3 8 2 8 10 0 14 13 21 23 14 2 -2 10 2 18 9 12 9 187 29
239 27 38 -2 118 -15 149 -24 18 -5 126 -12 240 -16 113 -3 229 -10 256 -15
53 -8 709 -6 735 3 8 3 22 7 30 11 28 10 105 28 128 30 12 1 22 4 22 7 0 3 14
6 31 7 17 1 37 8 45 14 8 6 14 9 14 6 0 -3 15 -1 33 4 17 6 44 13 60 15 15 3
39 12 55 20 15 7 33 14 40 14 7 0 20 4 30 9 9 5 42 19 72 32 30 13 57 27 60
30 3 3 15 9 28 13 12 4 22 12 22 17 0 6 4 8 9 4 6 -3 14 3 20 12 6 10 11 14
11 10 0 -11 80 69 80 80 0 5 13 22 30 38 16 15 27 32 24 37 -3 4 0 8 5 8 9 0
64 95 59 102 -1 2 4 13 11 26 18 33 22 58 27 136 2 41 -1 75 -8 83 -6 7 -8 13
-4 13 3 0 -5 22 -18 49 -14 27 -22 51 -19 55 4 3 1 6 -6 6 -7 0 -9 5 -6 10 3
6 1 10 -4 10 -6 0 -11 7 -11 15 0 8 -4 15 -10 15 -5 0 -10 7 -10 15 0 8 -5 15
-11 15 -5 0 -8 4 -5 8 3 5 -6 16 -20 26 -13 11 -24 25 -24 32 0 7 -9 15 -20
19 -11 3 -19 9 -17 13 1 4 -19 29 -45 54 -27 25 -48 43 -48 40 0 -4 -4 -2 -8
3 -9 13 -66 50 -71 46 -2 -1 -7 2 -10 7 -10 15 -102 41 -171 48 -36 3 -68 8
-71 10 -11 7 -134 13 -151 8z"/>
<path d="M10440 17107 c-3 -3 -24 -7 -48 -11 -24 -3 -47 -8 -52 -11 -5 -3 -28
-8 -52 -11 -24 -3 -59 -9 -78 -14 -19 -5 -60 -11 -90 -15 -105 -11 -130 -17
-124 -26 3 -5 0 -9 -5 -9 -6 0 -23 -13 -39 -29 -46 -49 -41 -124 12 -176 6 -6
35 -23 63 -37 40 -20 61 -24 90 -20 21 4 66 6 100 7 56 0 64 -3 87 -30 22 -25
26 -40 26 -90 0 -33 5 -80 11 -105 6 -25 12 -49 13 -55 1 -5 5 -19 9 -30 13
-40 18 -93 27 -300 14 -343 19 -419 27 -445 10 -35 13 -690 3 -775 -13 -116
-27 -182 -69 -323 -5 -17 -9 -68 -8 -111 2 -67 5 -83 25 -103 12 -14 20 -27
17 -30 -3 -2 6 -11 20 -18 14 -7 25 -17 25 -20 0 -18 92 -32 172 -26 45 3 111
5 145 5 34 0 79 5 100 10 21 6 40 10 43 9 5 -2 43 29 84 68 49 47 66 109 46
168 -6 19 -13 47 -16 62 -3 15 -9 35 -15 46 -5 10 -8 18 -5 18 3 0 -2 16 -10
35 -8 19 -12 35 -9 35 3 0 -2 11 -11 25 -8 13 -13 28 -10 34 3 5 2 11 -2 13
-9 3 -41 106 -48 151 -2 15 -8 37 -14 47 -6 11 -8 20 -6 20 3 0 1 11 -4 25
-24 63 -40 245 -21 245 6 0 11 5 11 10 0 6 9 19 20 30 11 11 20 17 20 14 0 -3
7 1 15 10 20 19 93 30 148 22 39 -6 107 -50 107 -69 0 -4 9 -17 20 -29 11 -12
20 -28 20 -35 0 -7 4 -13 9 -13 5 0 12 -13 16 -30 4 -16 11 -30 17 -30 6 0 9
-3 5 -6 -3 -4 1 -13 9 -21 8 -8 12 -19 9 -24 -4 -5 -2 -9 4 -9 6 0 14 -12 17
-27 4 -16 17 -47 30 -71 13 -23 24 -50 24 -60 0 -9 7 -26 15 -36 8 -11 15 -30
15 -43 0 -13 5 -23 11 -23 5 0 7 -4 4 -10 -3 -5 -1 -10 5 -10 6 0 9 -4 6 -9
-3 -5 1 -14 9 -21 8 -7 13 -16 10 -20 -3 -5 -1 -11 5 -15 6 -4 8 -11 5 -16 -4
-5 -1 -9 4 -9 6 0 11 -8 11 -17 0 -10 7 -27 15 -37 8 -10 12 -22 10 -27 -3 -4
-1 -10 5 -14 5 -3 10 -16 10 -29 0 -12 5 -27 12 -34 7 -7 9 -12 5 -12 -4 0 -3
-8 2 -18 5 -10 11 -58 12 -106 1 -47 6 -89 11 -92 4 -3 6 -10 3 -15 -4 -5 -1
-9 4 -9 6 0 11 -5 11 -11 0 -21 94 -103 113 -98 1 1 20 -6 42 -14 22 -8 69
-21 105 -28 36 -6 73 -16 83 -21 26 -13 104 -23 162 -21 66 3 75 5 75 15 0 5
5 6 10 3 6 -3 10 -1 10 4 0 6 7 11 15 11 8 0 15 3 15 8 0 4 13 22 29 40 17 17
27 32 24 32 -3 0 -1 6 4 13 12 14 14 97 3 97 -4 0 -10 13 -13 30 -4 16 -16 39
-27 50 -11 11 -20 23 -20 28 0 12 -68 82 -80 82 -6 0 -9 4 -5 9 3 5 -5 17 -17
25 -12 9 -19 18 -16 21 3 4 -11 24 -31 45 -21 22 -44 52 -52 67 -16 31 -34 55
-64 86 -11 11 -14 17 -7 13 6 -4 12 -5 12 -2 0 2 -6 11 -12 18 -7 7 -31 40
-53 73 -22 33 -44 63 -50 67 -5 4 -6 8 -2 8 7 0 -47 86 -62 100 -3 3 -7 12 -9
20 -2 8 -11 33 -21 55 -26 56 -38 91 -52 155 -8 30 -17 57 -21 60 -4 3 -10 28
-13 56 -5 41 -3 54 14 76 12 14 21 31 21 36 0 11 38 28 53 24 5 -1 6 1 3 6 -3
5 12 18 32 30 20 11 47 29 60 39 34 26 116 113 107 113 -6 0 24 38 48 59 9 8
17 22 17 31 0 9 6 24 13 35 16 23 47 101 53 130 2 11 6 34 9 50 3 17 7 44 11
60 3 17 7 82 9 145 4 110 -8 193 -35 255 -5 11 -14 38 -20 60 -6 22 -14 47
-17 55 -4 8 -7 17 -7 20 -3 17 -47 80 -56 80 -6 0 -9 4 -6 8 2 4 -16 26 -41
47 -25 22 -55 49 -67 60 -12 11 -28 21 -36 23 -8 2 -16 8 -18 13 -2 5 -10 9
-19 9 -8 0 -27 8 -41 18 -31 21 -63 36 -74 34 -5 -1 -8 3 -8 9 0 5 -4 8 -9 5
-5 -4 -11 -1 -13 5 -2 7 -15 13 -28 14 -14 1 -38 8 -55 14 -16 7 -38 14 -48
16 -9 2 -21 6 -25 9 -11 6 -55 15 -112 22 -25 3 -70 9 -100 14 -30 4 -140 9
-245 10 -104 0 -219 6 -255 11 -72 12 -292 23 -300 16z m492 -370 c4 -7 8 -8
8 -3 0 6 7 1 16 -10 8 -10 12 -12 8 -4 -7 13 -6 13 9 1 10 -8 53 -28 96 -45
67 -27 130 -67 176 -113 7 -7 15 -9 19 -6 3 4 6 1 6 -6 0 -7 13 -25 30 -41 16
-15 26 -30 23 -34 -3 -3 1 -6 10 -6 10 0 17 -6 17 -14 0 -8 3 -16 8 -18 16 -7
42 -81 42 -119 0 -49 -19 -129 -31 -129 -5 0 -8 -3 -7 -7 1 -5 -3 -24 -10 -43
-7 -19 -12 -36 -12 -38 1 -7 -74 -87 -114 -120 -15 -13 -38 -27 -52 -32 -13
-5 -24 -15 -24 -21 0 -7 -3 -9 -7 -6 -3 4 -12 2 -20 -4 -7 -6 -13 -8 -13 -4 0
4 -11 0 -25 -9 -14 -9 -25 -14 -25 -10 0 3 -10 0 -22 -8 -33 -21 -123 -41
-150 -33 -28 9 -67 51 -73 79 -2 12 -6 100 -9 196 -3 96 -8 200 -11 230 -3 30
-10 113 -16 183 -9 123 -9 129 12 167 12 22 29 41 38 43 26 7 95 -4 103 -16z"/>
<path d="M8490 16857 c-3 -3 -35 -7 -71 -11 -66 -6 -189 -28 -209 -37 -3 -1
-9 -3 -15 -4 -12 -2 -37 -12 -92 -36 -23 -11 -47 -19 -53 -19 -5 0 -18 -4 -28
-10 -9 -5 -60 -26 -112 -46 -52 -20 -108 -42 -125 -49 -64 -28 -164 -65 -175
-65 -17 0 -70 -42 -64 -52 3 -5 0 -7 -8 -6 -7 2 -12 -3 -11 -9 2 -7 -1 -13 -7
-13 -13 0 -50 -42 -44 -51 2 -4 0 -10 -6 -14 -26 -16 -1 -112 35 -137 14 -10
79 -67 120 -104 18 -18 36 -30 39 -28 3 2 4 1 1 -3 -3 -3 5 -17 17 -30 12 -13
19 -23 15 -23 -3 0 0 -12 8 -27 8 -15 12 -30 9 -35 -3 -4 0 -8 5 -8 6 0 11 -7
11 -15 0 -8 5 -15 10 -15 6 0 10 -8 10 -18 0 -10 3 -22 8 -26 4 -4 7 -11 7
-14 1 -4 6 -17 13 -28 6 -12 9 -24 6 -26 -2 -3 2 -11 11 -18 8 -7 15 -21 15
-31 0 -11 5 -19 11 -19 6 0 9 -7 5 -15 -3 -8 -1 -15 4 -15 6 0 9 -3 8 -7 -1
-5 3 -19 9 -33 19 -41 26 -65 25 -72 -1 -5 3 -8 10 -8 6 0 8 -3 5 -7 -4 -3 -2
-12 3 -19 6 -6 10 -16 8 -20 -1 -5 3 -19 10 -31 7 -13 9 -23 5 -23 -4 0 -3 -4
3 -8 13 -8 54 -132 54 -162 0 -11 5 -20 10 -20 6 0 10 -9 10 -19 0 -11 9 -36
19 -58 17 -33 31 -67 36 -83 0 -3 12 -27 27 -55 22 -43 37 -86 39 -112 0 -5 4
-12 9 -18 10 -13 35 -88 32 -97 -1 -5 2 -8 8 -8 5 0 10 -8 10 -18 0 -10 4 -22
10 -28 5 -5 11 -22 12 -37 1 -15 5 -27 9 -27 4 0 10 -15 14 -32 4 -18 9 -37
11 -43 2 -5 12 -45 23 -88 11 -42 25 -85 30 -95 5 -9 9 -20 10 -25 0 -4 11
-31 23 -60 13 -28 22 -55 20 -59 -1 -5 2 -8 8 -8 5 0 10 -9 10 -20 0 -11 4
-20 9 -20 5 0 14 -19 20 -43 6 -24 17 -56 25 -72 8 -16 13 -32 11 -36 -3 -4 2
-10 11 -13 8 -3 13 -9 11 -13 -2 -5 6 -26 18 -48 47 -83 104 -195 99 -195 -14
0 82 -98 123 -126 40 -27 102 -32 150 -12 15 6 30 12 33 13 14 4 86 41 90 46
7 9 104 44 113 41 4 -1 7 2 7 8 0 5 9 10 19 10 11 0 21 5 23 10 2 6 13 12 26
13 12 0 22 5 22 9 0 4 3 7 8 6 8 -1 29 6 79 28 17 8 38 14 46 14 9 0 19 5 22
10 4 6 12 10 18 9 7 -1 23 3 37 8 14 6 61 25 105 43 138 55 281 131 268 143
-3 4 -1 7 5 7 15 0 58 42 54 53 -1 4 2 7 7 7 11 0 114 100 103 100 -4 1 4 10
17 20 13 11 20 20 16 20 -4 0 -1 10 7 23 18 27 69 147 70 165 1 6 5 12 10 12
5 0 7 3 5 8 -3 4 0 18 6 32 19 47 20 55 23 138 1 49 -3 101 -11 125 -7 23 -30
96 -51 162 -21 66 -43 123 -50 128 -7 4 -15 20 -19 36 -3 16 -13 35 -21 41 -7
7 -11 16 -9 21 8 12 -40 103 -70 133 -14 14 -26 29 -27 33 -3 13 -38 48 -38
38 0 -5 -7 1 -16 13 -8 12 -21 22 -27 22 -7 0 -19 9 -27 19 -7 11 -17 18 -21
16 -4 -3 -9 2 -13 10 -3 8 -12 15 -21 15 -8 0 -15 5 -15 11 0 5 -4 7 -10 4 -5
-3 -10 -1 -10 4 0 6 -7 11 -15 11 -9 0 -18 6 -21 13 -3 8 -11 14 -19 15 -8 1
-22 3 -30 4 -8 1 -15 5 -15 9 0 4 -8 10 -19 14 -26 8 -62 41 -54 49 3 3 -1 6
-9 6 -10 0 -18 14 -23 43 -4 23 -9 47 -10 52 -1 6 3 33 10 60 15 57 18 218 5
285 -4 25 -10 59 -13 77 -11 69 -81 243 -99 243 -4 0 -8 7 -8 16 0 8 -4 13 -9
9 -5 -3 -12 4 -16 15 -3 11 -11 20 -17 20 -6 0 -9 3 -5 6 11 11 -80 107 -94
98 -5 -3 -9 1 -9 8 0 7 -16 22 -35 32 -19 10 -32 22 -30 26 8 13 -117 60 -205
77 -87 16 -139 21 -250 22 -69 1 -128 0 -130 -2z m190 -323 c19 -3 42 -8 50
-12 8 -3 17 -6 20 -6 3 -1 15 -7 26 -14 12 -6 24 -9 26 -6 3 2 11 -2 18 -11 7
-8 21 -15 31 -15 11 0 19 -7 19 -17 0 -9 3 -13 6 -10 9 8 64 -55 58 -65 -3 -4
0 -8 5 -8 6 0 10 -3 9 -7 -1 -5 3 -17 8 -28 15 -28 18 -148 4 -193 -14 -45
-42 -105 -53 -113 -5 -3 -9 -10 -9 -15 -1 -5 -13 -27 -27 -48 -14 -21 -31 -47
-37 -57 -6 -11 -14 -16 -17 -12 -4 3 -7 1 -7 -5 0 -7 -24 -36 -54 -66 -30 -30
-51 -58 -47 -62 3 -4 1 -4 -6 0 -7 4 -17 -2 -23 -13 -6 -11 -32 -35 -58 -52
-26 -17 -51 -37 -57 -44 -5 -6 -30 -23 -55 -36 -37 -21 -50 -23 -72 -15 -16 5
-28 13 -28 18 0 4 -6 8 -13 8 -14 0 -44 60 -63 125 -28 95 -36 124 -39 143 -2
13 -7 28 -12 35 -10 13 -32 75 -38 105 -2 11 -13 41 -25 67 -12 27 -24 60 -26
74 -5 24 -37 125 -52 161 -15 37 -7 75 21 103 25 23 49 33 60 25 2 -2 11 3 20
11 10 7 17 10 17 7 0 -4 8 -2 18 3 10 6 72 19 137 30 65 11 120 23 124 27 6 6
74 0 141 -12z m450 -1217 c34 -9 84 -21 90 -22 17 -2 70 -31 70 -37 0 -5 7 -8
15 -8 8 0 15 -5 15 -12 0 -6 3 -9 6 -6 16 17 90 -88 100 -142 3 -12 -9 -112
-19 -170 -6 -33 -46 -108 -70 -132 -14 -14 -23 -29 -19 -32 3 -4 -2 -4 -12 0
-14 5 -17 4 -12 -4 4 -7 1 -12 -8 -12 -9 0 -16 -5 -16 -10 0 -6 -21 -20 -47
-33 -27 -12 -52 -27 -58 -33 -5 -6 -23 -16 -40 -22 -16 -6 -61 -23 -100 -38
-74 -29 -142 -38 -162 -22 -7 6 -13 8 -13 5 0 -3 -18 11 -40 32 -22 20 -40 43
-40 49 0 7 -4 12 -9 12 -10 0 -46 70 -43 83 1 4 -3 7 -9 7 -6 0 -9 7 -5 15 3
8 2 15 -3 15 -5 0 -12 11 -15 25 -3 13 -11 37 -17 52 -6 15 -11 30 -11 33 0 3
-5 14 -11 25 -6 11 -11 24 -12 28 0 4 -7 12 -15 17 -8 5 -12 10 -7 10 4 0 0
17 -9 38 -8 20 -16 42 -17 47 -1 6 -6 13 -11 16 -5 4 -9 28 -10 53 0 40 4 50
37 80 38 34 111 62 242 92 59 13 233 14 285 1z"/>
<path d="M13160 16609 c0 -5 -5 -7 -12 -3 -6 4 -17 -1 -25 -11 -7 -11 -13 -15
-13 -10 0 5 -20 -13 -45 -40 -24 -27 -42 -51 -40 -53 2 -3 -2 -16 -9 -31 -10
-18 -15 -71 -16 -166 -2 -163 -12 -269 -35 -355 -4 -14 -7 -34 -8 -45 -1 -11
-5 -22 -8 -25 -9 -8 -37 -119 -44 -172 -6 -52 -32 -155 -65 -263 -12 -38 -28
-95 -37 -125 -8 -30 -19 -60 -24 -66 -5 -6 -6 -14 -2 -17 3 -4 0 -7 -7 -7 -7
0 -11 -3 -7 -6 3 -4 -1 -21 -10 -38 -10 -17 -16 -34 -15 -38 1 -4 -13 -35 -30
-70 -18 -35 -31 -66 -30 -70 1 -5 -3 -8 -8 -8 -6 0 -10 -4 -10 -9 0 -5 -5 -22
-12 -38 -14 -34 -13 -31 -23 -68 -4 -16 -12 -36 -18 -42 -5 -7 -6 -13 -2 -13
4 0 2 -6 -4 -14 -7 -8 -14 -31 -17 -51 -5 -42 -41 -126 -58 -137 -6 -4 -7 -8
-3 -8 5 0 1 -7 -7 -16 -9 -8 -16 -22 -16 -30 0 -8 -5 -14 -10 -14 -6 0 -9 -3
-8 -7 2 -14 -15 -48 -31 -60 -9 -7 -12 -13 -7 -13 5 0 -1 -8 -12 -19 -12 -10
-19 -21 -15 -25 3 -3 1 -6 -5 -6 -7 0 -11 -3 -10 -7 1 -5 -11 -33 -27 -63 -16
-30 -30 -59 -32 -65 -12 -39 -13 -79 -3 -109 18 -55 108 -140 159 -151 9 -2
63 -19 121 -38 96 -32 157 -49 170 -48 3 0 15 -7 28 -15 12 -8 22 -12 22 -9 0
3 19 -4 42 -16 23 -12 53 -23 67 -25 88 -12 127 -11 152 1 14 8 29 11 33 8 6
-6 10 12 7 30 0 4 5 7 12 7 8 0 22 18 32 40 15 33 17 55 11 127 -16 231 -18
330 -8 363 6 19 12 93 13 163 1 124 12 194 34 209 5 4 7 8 3 8 -4 0 0 17 9 38
8 20 15 38 14 39 0 2 7 20 16 40 8 21 20 49 25 63 6 14 16 39 23 55 14 31 28
76 27 85 0 3 5 14 10 25 10 17 31 88 43 138 7 31 76 161 91 174 9 6 14 14 12
17 -2 3 4 13 12 23 9 10 16 20 16 23 0 3 7 16 16 30 8 14 27 46 42 73 15 26
31 47 37 47 6 0 8 4 4 9 -3 6 3 14 12 20 10 6 14 11 9 11 -5 0 7 15 26 33 19
17 35 35 36 39 1 5 11 18 21 30 11 13 29 34 40 47 12 13 21 28 21 33 0 5 5 6
10 3 9 -5 12 1 9 21 0 3 9 14 20 23 12 10 21 21 21 25 0 12 35 46 47 46 7 0
10 7 7 15 -4 9 0 15 10 15 9 0 16 7 16 16 0 9 5 12 12 8 8 -5 9 -2 5 9 -4 10
-2 16 5 14 7 -1 12 3 13 9 0 6 8 18 18 28 9 10 15 22 12 27 -4 5 -1 9 5 9 7 0
10 19 9 50 -2 41 -8 56 -36 85 -18 19 -38 35 -44 35 -5 0 -7 5 -4 11 4 6 -2
13 -14 16 -12 3 -21 9 -21 13 0 8 -63 34 -67 28 -1 -2 -8 6 -16 16 -8 11 -19
16 -25 12 -7 -4 -12 -2 -12 4 0 8 -25 23 -60 35 -3 1 -12 5 -20 8 -8 3 -44 16
-80 27 -36 12 -74 26 -86 31 -11 6 -31 12 -45 14 -13 3 -58 13 -99 24 -81 22
-230 29 -230 10z"/>
<path d="M7175 16320 c-3 -6 -11 -8 -16 -5 -5 4 -9 2 -9 -4 0 -5 -13 -12 -29
-16 -16 -3 -41 -17 -55 -30 -14 -13 -26 -22 -26 -19 0 3 -10 -1 -22 -8 -13 -6
-29 -13 -37 -14 -8 -2 -17 -6 -20 -11 -3 -4 -15 -10 -26 -11 -11 -2 -23 -9
-26 -14 -4 -6 -11 -8 -17 -4 -6 3 -13 2 -16 -3 -6 -9 -83 -27 -99 -23 -5 2 -6
-1 -3 -6 2 -4 -8 -13 -24 -21 -16 -7 -32 -21 -35 -32 -4 -11 -10 -17 -14 -14
-5 2 -9 -27 -10 -65 -2 -70 8 -100 41 -131 10 -9 15 -19 11 -23 -3 -3 0 -6 7
-6 7 0 11 -3 7 -6 -3 -3 4 -16 16 -28 30 -29 31 -49 7 -162 -12 -55 -23 -109
-26 -121 -2 -12 -9 -35 -16 -50 -15 -36 -15 -36 -32 -118 -9 -38 -19 -77 -23
-85 -8 -19 -10 -27 -12 -42 -1 -18 -91 -126 -91 -111 0 4 -4 2 -9 -6 -6 -8
-31 -15 -70 -16 -57 -3 -80 1 -156 29 -16 6 -32 11 -35 12 -3 0 -12 4 -20 7
-8 3 -60 21 -115 38 -55 18 -101 36 -103 41 -2 4 -12 8 -23 8 -10 0 -19 5 -19
10 0 6 -7 10 -15 10 -7 0 -19 8 -24 18 -6 9 -11 14 -11 11 0 -8 -122 29 -130
39 -3 4 -24 22 -47 40 -23 18 -52 51 -65 73 -12 21 -28 39 -35 39 -7 0 -13 4
-13 8 0 11 -68 32 -101 32 -20 0 -144 -55 -159 -70 -9 -9 -65 -34 -72 -32 -5
1 -8 -2 -8 -6 0 -4 -22 -19 -50 -33 -27 -13 -50 -28 -50 -32 0 -5 -4 -6 -9 -3
-5 3 -12 -1 -15 -10 -3 -8 -10 -12 -16 -9 -5 3 -10 1 -10 -5 0 -6 -4 -8 -10
-5 -5 3 -10 1 -10 -5 0 -6 -4 -9 -9 -6 -5 3 -14 -1 -21 -9 -7 -8 -16 -13 -20
-10 -4 3 -13 -2 -20 -10 -7 -8 -16 -12 -21 -9 -5 3 -9 0 -9 -6 0 -6 -5 -8 -12
-4 -6 4 -8 3 -5 -3 3 -5 -12 -26 -34 -46 -21 -20 -39 -38 -38 -39 0 -2 -4 -16
-10 -31 -6 -16 -11 -36 -11 -44 0 -24 23 -83 32 -83 4 0 8 -8 8 -19 0 -17 67
-71 88 -71 4 0 23 -11 42 -25 18 -13 37 -22 41 -19 4 2 23 -4 41 -15 18 -11
62 -34 98 -52 36 -18 67 -36 70 -39 3 -4 19 -11 35 -15 17 -4 35 -9 40 -11 29
-9 95 -23 130 -27 22 -3 74 -15 115 -27 41 -11 85 -23 97 -26 12 -2 35 -9 50
-15 16 -6 29 -10 30 -10 2 1 28 -10 58 -24 30 -13 55 -21 55 -18 0 3 6 0 13
-6 8 -6 17 -8 20 -4 4 3 7 0 7 -7 0 -7 3 -11 6 -7 3 3 16 2 29 -3 13 -5 43
-12 66 -15 97 -14 234 -51 254 -67 5 -4 16 -8 25 -8 8 0 22 -9 30 -20 8 -11
20 -20 26 -20 7 0 15 -7 18 -16 3 -8 10 -12 16 -9 5 3 10 -1 10 -10 0 -9 5
-13 10 -10 6 4 9 2 8 -3 -2 -5 10 -24 25 -41 16 -18 29 -41 30 -51 1 -10 5
-16 9 -14 4 3 8 -4 8 -16 0 -12 4 -19 9 -16 8 5 25 -29 22 -46 -1 -5 3 -8 9
-8 5 0 10 -6 10 -13 0 -7 10 -24 23 -37 12 -14 23 -32 25 -40 2 -8 12 -20 23
-28 10 -7 19 -18 19 -24 0 -6 9 -18 20 -28 10 -9 24 -28 30 -41 6 -13 18 -38
28 -54 19 -35 19 -32 33 -128 6 -39 22 -126 36 -192 38 -178 41 -195 34 -195
-3 0 5 -7 17 -16 12 -8 22 -20 22 -26 0 -13 51 -58 66 -58 6 0 17 -7 24 -15
21 -25 153 -13 225 20 33 16 63 27 68 27 4 -1 7 3 7 9 0 5 5 7 10 4 6 -3 10
-1 10 6 0 7 3 10 6 6 3 -3 18 5 32 18 14 13 29 22 34 19 4 -3 8 0 8 6 0 6 5 8
10 5 6 -3 10 -2 10 4 0 6 11 13 25 17 14 3 25 10 25 15 0 5 7 9 15 9 8 0 15 5
15 12 0 6 3 9 6 5 4 -3 32 21 64 55 53 56 58 64 56 103 -1 24 -9 50 -19 59 -9
10 -15 22 -12 27 4 5 -1 9 -9 9 -9 0 -16 4 -16 9 0 12 -47 61 -53 55 -3 -3 -8
4 -12 15 -3 12 -10 19 -15 16 -5 -3 -13 3 -19 12 -5 10 -13 18 -18 18 -4 0 -7
4 -5 8 1 5 -2 6 -6 3 -9 -5 -26 11 -114 104 -34 35 -90 120 -114 170 -4 8 -11
18 -16 21 -4 3 -9 17 -10 32 -1 15 -8 29 -15 31 -7 3 -13 10 -13 16 0 6 -12
37 -26 68 -15 31 -27 62 -29 67 -1 6 -8 24 -15 40 -7 17 -14 33 -15 38 -2 4
-4 9 -5 12 -1 3 -3 8 -5 13 -4 15 -36 88 -46 106 -35 62 -46 168 -25 239 20
69 41 160 38 170 -1 4 3 7 9 7 5 0 7 5 4 10 -4 6 -1 18 7 27 7 9 11 17 9 17
-2 1 -1 21 3 46 3 25 5 48 4 51 -2 3 3 13 11 22 7 10 10 17 6 17 -4 0 -2 7 5
15 6 8 9 19 5 25 -3 5 -2 10 3 10 5 0 9 6 9 13 1 21 12 80 22 115 5 18 10 35
10 37 8 61 23 115 32 115 5 0 8 3 8 8 -1 4 0 10 1 15 3 8 4 11 15 52 4 17 14
42 22 58 7 15 16 46 19 70 3 23 9 58 14 77 5 19 10 55 11 80 2 25 6 52 9 60 4
8 14 31 23 50 46 97 58 210 26 231 -8 5 -9 9 -4 9 21 0 -50 51 -84 60 -65 17
-109 21 -116 10z"/>
<path d="M14703 16065 c-29 -31 -31 -36 -32 -127 -1 -53 -6 -109 -10 -124 -15
-52 -45 -119 -58 -132 -7 -7 -13 -19 -13 -26 0 -7 -11 -25 -24 -39 -13 -14
-22 -28 -20 -30 2 -2 -5 -12 -16 -22 -11 -10 -20 -24 -20 -32 0 -7 -4 -13 -10
-13 -5 0 -10 -7 -10 -15 0 -8 -11 -22 -25 -31 -14 -9 -22 -20 -20 -25 3 -4 -4
-13 -16 -19 -11 -7 -18 -14 -15 -17 2 -3 -5 -15 -17 -28 -12 -12 -31 -35 -42
-51 -11 -15 -28 -36 -37 -46 -10 -10 -15 -18 -11 -18 4 0 -3 -9 -15 -20 -12
-12 -22 -27 -22 -35 0 -8 -4 -15 -9 -15 -5 0 -12 -8 -16 -19 -3 -10 -19 -33
-35 -50 -17 -17 -27 -31 -24 -31 4 0 -8 -15 -27 -32 -19 -18 -33 -36 -32 -40
2 -5 -2 -8 -8 -8 -5 0 -7 -4 -4 -10 3 -5 2 -10 -4 -10 -6 0 -31 -20 -57 -45
-25 -25 -43 -45 -40 -45 3 0 -8 -15 -25 -32 -17 -18 -38 -45 -47 -60 -9 -16
-20 -28 -24 -28 -4 0 -8 -7 -8 -15 0 -8 -10 -25 -22 -38 -50 -54 -77 -87 -71
-87 3 0 -11 -13 -32 -30 -21 -16 -35 -30 -32 -30 3 0 -6 -12 -20 -27 -14 -16
-30 -26 -37 -25 -6 2 -8 1 -4 -3 6 -6 -22 -39 -114 -136 -21 -21 -36 -39 -33
-39 2 0 -16 -21 -40 -46 -25 -25 -45 -48 -45 -50 0 -3 -10 -16 -22 -30 -13
-13 -31 -34 -42 -45 -19 -22 -81 -141 -77 -148 2 -2 -1 -7 -6 -10 -18 -13 -70
-152 -65 -173 1 -5 -2 -8 -6 -8 -5 0 -9 -6 -10 -12 0 -7 -5 -31 -11 -53 -18
-67 -13 -109 15 -151 29 -42 63 -71 79 -66 6 2 7 1 3 -3 -8 -8 36 -55 52 -55
5 0 10 -4 10 -9 0 -5 8 -12 18 -15 9 -4 32 -20 51 -36 18 -16 37 -27 42 -24 5
3 9 1 9 -4 0 -5 16 -17 35 -28 19 -10 35 -22 35 -27 0 -4 4 -6 9 -3 5 4 11 2
13 -3 4 -11 154 -111 167 -111 5 0 11 -3 13 -7 3 -9 88 -53 109 -57 8 -2 28
-8 44 -15 36 -14 48 -18 57 -20 5 -1 23 -10 41 -20 31 -17 127 -45 192 -54 17
-3 68 -15 115 -27 47 -12 97 -24 112 -25 16 -2 57 -11 92 -20 38 -10 79 -14
98 -10 18 4 46 6 61 6 16 -1 47 4 70 10 23 7 48 14 56 15 7 1 18 7 24 13 6 6
21 11 33 11 13 0 26 5 29 10 4 6 11 8 16 5 5 -4 9 -1 9 4 0 6 3 10 8 9 15 -3
72 29 65 37 -5 4 -3 5 4 1 7 -3 20 0 30 9 10 8 20 14 23 13 3 -2 16 7 30 20
13 12 30 22 37 22 7 0 13 4 13 9 0 8 37 24 53 22 4 -1 6 4 5 10 -2 6 5 13 15
14 10 2 27 11 38 21 10 9 19 14 19 11 0 -3 10 4 23 16 13 12 37 34 53 48 34
30 123 130 157 176 13 18 27 30 30 27 3 -4 9 5 13 20 3 14 10 26 15 26 5 0 9
7 9 15 0 8 4 15 10 15 9 0 73 114 75 135 0 6 7 9 15 7 8 -2 12 0 8 4 -4 4 1
19 12 34 11 16 20 33 20 39 0 5 8 15 18 20 9 6 13 11 8 11 -4 0 4 16 18 35 15
19 24 35 20 35 -4 0 1 9 11 20 10 11 15 20 11 20 -3 0 0 10 8 23 8 12 15 24
15 27 0 3 5 19 11 35 6 17 12 38 13 48 1 9 6 17 11 17 5 0 7 3 4 6 -4 3 -2 20
3 37 5 17 13 78 19 136 6 58 13 117 16 131 3 14 8 86 11 161 5 129 -5 240 -27
294 -4 11 -13 40 -20 65 -7 25 -21 64 -31 87 -11 24 -19 50 -19 58 0 8 -4 15
-8 15 -5 0 -9 7 -9 14 0 19 -46 106 -55 106 -5 0 -8 4 -8 9 0 10 -37 55 -87
107 -18 18 -33 36 -33 39 0 9 -45 50 -52 48 -7 -3 -12 12 -9 29 0 4 -9 13 -21
19 -27 15 -138 131 -138 145 0 12 -53 69 -62 66 -4 -1 -8 5 -8 13 0 9 -12 28
-27 44 -16 16 -45 46 -65 67 -46 49 -87 84 -98 84 -5 0 -21 11 -36 25 -15 14
-29 23 -32 21 -2 -3 -13 5 -23 17 -10 12 -18 18 -19 14 0 -8 -28 15 -76 62
-13 13 -24 20 -24 15 0 -5 -4 -4 -8 2 -16 25 -73 44 -125 43 -46 -2 -58 -6
-84 -34z m421 -660 c14 -10 32 -36 42 -57 9 -21 21 -38 26 -38 5 0 6 -4 3 -10
-3 -5 -1 -10 4 -10 6 0 11 -7 11 -16 0 -8 5 -12 10 -9 6 3 11 1 11 -4 1 -6 3
-14 4 -18 2 -5 6 -18 10 -30 4 -13 11 -23 16 -23 5 0 9 -7 9 -15 0 -8 4 -15 9
-15 5 0 12 -11 15 -25 4 -14 11 -25 17 -25 6 0 7 -4 4 -10 -3 -5 -1 -10 4 -10
6 0 11 -4 11 -9 0 -5 7 -25 15 -45 8 -20 16 -39 16 -43 0 -5 4 -12 9 -18 13
-17 40 -136 44 -200 3 -56 -14 -200 -24 -200 -1 0 -3 -9 -5 -19 -2 -11 -7 -31
-10 -45 -4 -14 -7 -28 -7 -31 0 -3 -4 -11 -10 -17 -6 -7 -7 -13 -2 -13 5 0 3
-4 -5 -9 -13 -9 -20 -27 -23 -58 -1 -7 -5 -13 -10 -13 -5 0 -6 -4 -3 -10 3 -5
1 -10 -4 -10 -6 0 -11 -9 -11 -19 0 -11 -5 -21 -10 -23 -6 -2 -12 -13 -13 -26
0 -12 -5 -22 -9 -22 -4 0 -8 -5 -8 -11 0 -7 -8 -18 -17 -26 -12 -10 -13 -12
-3 -8 8 4 6 -1 -4 -9 -11 -9 -16 -16 -11 -16 5 0 -6 -15 -25 -33 -19 -18 -37
-37 -38 -42 -2 -6 -8 -9 -13 -8 -5 2 -8 0 -6 -5 1 -4 -8 -17 -20 -29 -13 -13
-23 -20 -23 -15 0 4 -4 2 -8 -3 -4 -6 -28 -24 -54 -40 -27 -17 -48 -34 -48
-38 0 -5 -4 -5 -10 -2 -5 3 -10 2 -10 -4 0 -11 -39 -27 -55 -22 -5 1 -7 -1 -3
-5 8 -7 -51 -50 -64 -46 -5 1 -8 -3 -8 -9 0 -5 -5 -7 -10 -4 -6 3 -13 0 -16
-8 -3 -8 -31 -22 -62 -32 -31 -9 -68 -21 -82 -25 -60 -22 -270 -71 -322 -77
-59 -6 -158 20 -158 41 0 5 -3 7 -6 4 -8 -9 -94 22 -94 33 0 5 -9 9 -20 9 -11
0 -20 5 -20 11 0 5 -4 8 -9 4 -5 -3 -16 2 -25 10 -8 9 -18 14 -21 13 -12 -7
-62 37 -74 64 -17 39 -9 67 35 114 20 21 56 65 81 97 25 31 50 57 55 57 5 0 7
4 4 8 -3 5 3 16 12 25 22 20 34 36 58 72 10 17 27 40 38 52 10 11 19 25 19 30
1 4 12 18 24 29 13 12 23 24 23 28 0 9 43 70 53 74 4 2 7 11 7 20 0 10 9 34
20 55 11 20 17 37 13 37 -5 0 0 5 10 11 9 6 15 14 12 20 -4 5 -1 9 4 9 6 0 11
7 11 16 0 9 5 12 12 8 8 -5 9 -2 5 9 -4 10 -2 16 4 14 6 -1 21 15 33 36 12 20
36 53 53 72 18 19 30 35 27 35 -3 0 7 11 21 25 14 14 25 30 25 36 0 6 4 8 8 5
4 -2 19 12 32 32 14 20 27 39 30 42 4 3 19 23 35 45 17 22 34 43 40 47 5 4 6
8 1 8 -5 0 3 9 18 21 14 11 24 25 21 30 -4 5 0 9 7 9 7 0 31 21 53 47 22 25
68 75 102 110 34 34 59 63 55 63 -3 0 9 11 28 25 38 28 76 28 114 0z"/>
<path d="M4666 14831 c-25 -27 -46 -42 -46 -34 0 4 -5 0 -11 -9 -5 -10 -14
-18 -19 -18 -12 0 -40 -23 -92 -72 -21 -21 -41 -38 -44 -38 -4 0 -17 -11 -30
-25 -13 -14 -20 -25 -17 -25 4 0 -3 -9 -14 -19 -20 -19 -72 -114 -77 -143 -2
-7 -10 -39 -20 -70 -17 -58 -20 -174 -4 -184 4 -3 6 -10 3 -15 -4 -5 -1 -9 4
-9 6 0 11 -5 11 -12 0 -17 133 -141 157 -145 6 -1 28 -14 49 -28 21 -14 48
-28 61 -31 13 -4 23 -10 23 -15 0 -5 8 -9 18 -9 10 0 28 -9 40 -20 12 -11 28
-20 35 -20 8 0 20 -7 27 -15 7 -8 16 -12 21 -9 5 3 9 0 9 -5 0 -6 7 -11 15
-11 8 0 15 -4 15 -10 0 -5 5 -10 11 -10 7 0 24 -13 40 -29 15 -16 30 -27 33
-24 3 3 8 -2 12 -11 3 -9 10 -16 15 -16 11 0 42 -25 80 -64 16 -16 29 -25 29
-21 0 5 7 0 15 -11 20 -27 17 -162 -4 -149 -7 4 -49 -74 -47 -87 0 -3 -8 -17
-20 -30 -21 -24 -49 -78 -46 -90 1 -5 -1 -8 -6 -8 -4 0 -16 -17 -27 -37 -11
-21 -28 -47 -37 -57 -10 -11 -18 -26 -18 -33 0 -7 -5 -13 -11 -13 -5 0 -8 -4
-4 -9 3 -5 0 -13 -5 -16 -11 -7 -27 -41 -28 -58 0 -5 -11 -17 -23 -28 -12 -10
-19 -19 -15 -19 4 0 1 -6 -6 -14 -7 -8 -16 -12 -19 -10 -4 2 -9 -2 -12 -10 -6
-14 -32 -15 -84 -2 -18 5 -30 12 -27 17 3 5 -1 9 -9 9 -7 0 -26 14 -42 30 -16
17 -32 30 -37 30 -4 0 -27 18 -50 40 -24 22 -49 40 -55 40 -7 0 -13 8 -13 17
0 9 -3 14 -6 10 -6 -6 -17 1 -65 46 -16 15 -34 27 -39 27 -16 0 -170 159 -170
176 0 3 -6 11 -12 18 -7 7 -24 28 -38 46 -14 18 -30 38 -35 44 -21 22 -75 105
-75 115 0 6 -4 11 -8 11 -5 0 -19 18 -31 41 -13 22 -25 38 -28 35 -3 -3 -16 6
-30 20 -13 13 -28 22 -33 19 -4 -3 -10 0 -12 6 -2 7 -24 12 -49 12 -53 0 -75
-5 -91 -21 -7 -7 -16 -12 -20 -12 -11 0 -111 -106 -106 -113 1 -1 -11 -16 -27
-33 -17 -18 -41 -47 -55 -65 -14 -18 -36 -45 -50 -59 -48 -51 -95 -112 -92
-121 1 -5 -2 -9 -8 -9 -5 0 -10 -5 -10 -10 0 -6 -9 -20 -20 -32 -10 -12 -17
-24 -15 -29 3 -4 -2 -15 -11 -23 -8 -9 -12 -16 -7 -16 4 0 4 -4 -2 -8 -17 -12
-45 -108 -45 -156 0 -42 31 -122 53 -137 5 -3 8 -9 8 -13 -1 -3 2 -6 5 -5 3 0
12 -8 20 -18 7 -10 14 -15 14 -11 0 5 12 -2 26 -15 14 -12 27 -20 28 -17 1 3
10 -3 20 -13 10 -9 22 -15 27 -12 5 4 9 1 9 -5 0 -6 5 -8 10 -5 6 3 10 1 10
-6 0 -7 3 -10 6 -6 4 3 22 0 40 -8 19 -8 35 -14 37 -15 1 0 12 -3 25 -6 12 -4
22 -11 22 -16 0 -5 4 -7 9 -3 5 3 17 -2 25 -11 9 -8 16 -12 16 -8 0 3 7 1 15
-6 8 -7 15 -9 15 -4 0 5 4 4 8 -2 6 -8 76 -46 92 -49 8 -2 101 -45 135 -62 17
-9 37 -23 46 -32 31 -31 59 -51 70 -51 5 0 8 -4 4 -9 -3 -5 4 -12 15 -16 11
-4 31 -17 44 -30 13 -13 27 -21 30 -18 3 4 6 0 6 -7 0 -7 3 -10 7 -7 3 4 18
-3 31 -15 14 -13 22 -18 18 -11 -3 6 18 -4 49 -24 30 -20 55 -40 55 -45 0 -5
4 -7 9 -3 5 3 17 -5 25 -17 9 -12 16 -18 16 -13 0 6 5 2 11 -7 5 -10 17 -18
24 -18 8 0 15 -4 15 -10 0 -5 6 -10 13 -10 7 0 19 -9 27 -20 8 -11 18 -20 23
-20 8 0 20 -9 56 -40 9 -8 42 -35 73 -58 32 -24 60 -53 64 -64 4 -14 9 -17 13
-9 5 7 12 3 21 -14 7 -14 17 -25 22 -25 4 0 8 -7 8 -15 0 -8 5 -15 10 -15 14
0 50 -37 50 -52 0 -6 3 -9 6 -5 4 3 19 -8 35 -26 16 -18 49 -54 74 -81 25 -27
45 -55 45 -63 0 -7 7 -13 17 -13 9 0 14 -3 10 -6 -3 -3 3 -15 14 -27 10 -11
19 -27 19 -34 0 -7 5 -13 10 -13 6 0 10 -8 10 -18 0 -10 5 -23 12 -30 6 -6 13
-18 14 -26 3 -24 36 -86 45 -86 5 0 9 -4 9 -10 0 -9 19 -35 48 -65 6 -8 12
-17 12 -20 0 -4 14 -20 31 -36 105 -98 183 -116 237 -55 17 19 34 32 38 28 4
-4 4 -2 1 4 -4 7 0 17 8 24 8 7 15 19 15 27 0 8 5 11 10 8 6 -4 13 7 16 25 4
17 11 33 15 36 5 3 16 21 24 40 8 19 19 34 24 34 6 0 11 7 11 16 0 8 5 12 10
9 9 -6 14 8 11 28 0 4 3 7 8 7 7 0 34 53 36 70 1 3 9 19 18 37 9 18 17 38 17
46 0 8 9 34 19 58 11 24 19 46 18 49 0 3 8 15 18 28 11 12 18 24 15 25 -2 1 7
14 20 28 83 88 102 109 96 109 -3 0 1 8 9 18 8 9 14 19 13 22 -2 3 5 16 15 30
9 13 17 32 17 42 0 10 4 18 9 18 22 0 -8 84 -38 108 -50 40 -91 52 -177 52
-48 0 -105 5 -128 11 -40 11 -126 48 -136 59 -11 12 -190 99 -190 92 0 -4 -4
-2 -8 3 -4 6 -35 22 -69 35 -35 14 -63 28 -63 33 0 4 -4 5 -10 2 -5 -3 -10 -2
-10 4 0 5 -9 12 -19 16 -28 8 -53 67 -46 107 3 18 10 35 14 38 8 5 18 29 19
44 0 5 4 12 9 15 5 3 28 35 52 71 24 36 55 78 68 93 12 16 23 33 23 38 0 5 8
17 18 27 9 10 26 31 37 46 11 16 26 34 33 42 7 8 10 14 6 14 -3 0 -1 6 5 13 6
8 8 17 4 20 -3 4 -1 7 5 7 7 0 12 5 12 10 0 6 12 22 26 35 46 43 84 32 167
-48 31 -30 57 -59 57 -62 0 -10 41 -45 52 -45 4 0 7 -4 6 -8 -6 -17 98 -139
113 -134 5 1 9 -5 9 -13 0 -8 5 -15 10 -15 6 0 10 -6 10 -13 0 -7 10 -19 21
-27 18 -12 47 -62 55 -92 1 -5 3 -10 4 -13 1 -3 3 -10 4 -15 0 -6 6 -14 11
-18 9 -6 14 -23 17 -59 1 -7 5 -13 10 -13 5 0 7 -4 4 -9 -4 -5 -2 -11 4 -13 5
-1 11 -15 12 -30 1 -15 4 -25 6 -23 7 6 42 -29 42 -42 0 -7 7 -13 15 -13 9 0
12 -6 9 -15 -4 -9 0 -15 9 -15 9 0 19 -9 22 -20 3 -11 13 -20 21 -20 8 0 14
-5 14 -11 0 -5 5 -7 10 -4 6 3 10 1 10 -4 0 -6 3 -10 8 -9 12 2 46 -15 66 -33
10 -10 28 -16 40 -13 40 7 96 37 96 51 0 8 4 12 8 9 10 -6 21 7 77 84 21 30
44 58 50 62 5 4 6 8 1 8 -5 0 10 18 32 41 23 22 42 45 42 51 0 6 3 9 6 5 4 -3
12 -1 20 6 32 28 44 37 44 32 0 -3 15 9 32 26 18 17 45 38 60 47 16 9 28 19
28 23 0 3 9 16 20 29 11 13 20 29 20 37 0 7 4 13 9 13 6 0 13 21 17 46 8 53
-13 109 -55 145 -14 13 -26 21 -26 19 0 -3 -11 5 -25 18 -13 12 -30 22 -37 22
-7 0 -13 5 -13 10 0 6 -7 10 -15 10 -8 0 -15 5 -15 12 0 6 -3 8 -7 5 -3 -4
-12 -2 -19 3 -6 6 -23 13 -35 15 -13 3 -25 9 -27 15 -2 5 -10 10 -17 10 -19 0
-85 40 -85 51 0 5 -8 9 -19 9 -10 0 -24 7 -31 15 -7 8 -16 13 -20 10 -4 -3
-20 7 -35 21 -16 15 -34 27 -41 28 -6 1 -18 7 -25 12 -8 6 -35 19 -61 30 -25
10 -44 22 -42 26 3 5 -2 11 -10 14 -9 3 -13 11 -9 17 3 5 1 7 -5 3 -6 -3 -50
32 -98 79 -49 47 -95 85 -103 85 -8 0 -11 3 -8 6 3 4 -26 38 -66 76 -40 39
-71 74 -70 79 2 5 -1 8 -6 6 -11 -3 -111 100 -103 107 3 3 -2 6 -11 6 -9 0
-17 7 -17 15 0 8 -4 15 -10 15 -5 0 -10 5 -10 10 0 6 -9 20 -20 32 -11 12 -20
28 -20 35 0 7 -5 13 -11 13 -5 0 -8 4 -5 9 3 5 -1 11 -9 15 -8 3 -15 11 -15
18 0 7 -14 28 -30 47 -17 18 -30 37 -30 42 0 5 -10 18 -22 30 -13 12 -16 18
-8 14 8 -5 4 3 -10 18 -52 55 -60 64 -60 75 0 7 -4 12 -10 12 -5 0 -10 7 -10
16 0 8 -4 12 -10 9 -5 -3 -10 3 -10 15 0 12 -4 19 -9 16 -8 -5 -12 0 -22 29
-1 6 -12 18 -23 27 -12 10 -17 17 -13 18 4 0 2 6 -5 14 -7 8 -16 12 -20 9 -5
-2 -8 3 -8 11 0 9 -4 16 -10 16 -5 0 -10 6 -10 14 0 8 -7 17 -16 20 -8 3 -12
10 -9 16 3 5 -1 10 -9 10 -9 0 -15 6 -14 13 2 6 -4 11 -12 9 -8 -2 -12 0 -7 4
4 4 0 18 -8 31 -9 13 -13 23 -10 23 3 0 0 6 -7 14 -7 8 -16 12 -20 9 -5 -2 -8
1 -8 6 0 14 -37 51 -50 51 -5 0 -10 4 -10 8 0 5 -16 14 -35 22 -19 8 -35 17
-35 22 0 4 -7 8 -16 8 -9 0 -12 5 -8 13 4 6 4 9 -1 5 -4 -4 -28 4 -52 18 -51
28 -112 30 -137 5z"/>
<path d="M18566 14682 c-8 -7 -10 -7 -106 -16 -93 -9 -139 -15 -165 -24 -11
-3 -22 -7 -25 -8 -3 0 -20 -5 -37 -9 -18 -4 -33 -10 -33 -14 0 -4 -8 -7 -17
-8 -22 -1 -61 -10 -138 -30 -33 -8 -69 -17 -80 -19 -84 -16 -131 -27 -140 -32
-5 -4 -14 -7 -20 -8 -47 -7 -143 -73 -128 -87 3 -4 -1 -7 -9 -7 -18 0 -47 -56
-45 -85 1 -11 7 -25 12 -32 6 -7 16 -19 23 -28 7 -8 10 -15 7 -15 -13 0 25
-30 50 -40 42 -16 130 -12 218 11 45 11 90 22 100 24 9 2 21 6 25 9 5 3 19 7
33 10 13 3 33 7 44 9 11 3 58 8 105 11 47 4 106 9 131 12 43 5 162 -10 184
-24 5 -4 19 -8 30 -9 10 -2 30 -10 42 -18 13 -9 23 -13 23 -10 0 4 10 -1 22
-9 12 -9 30 -16 40 -16 10 0 18 -5 18 -11 0 -5 5 -7 10 -4 6 3 10 2 10 -3 0
-5 14 -15 30 -22 17 -7 30 -16 30 -21 0 -5 7 -9 16 -9 8 0 12 -4 9 -10 -3 -5
-1 -10 5 -10 6 0 18 -7 26 -15 9 -8 13 -15 9 -15 -3 0 3 -10 15 -22 11 -12 20
-28 20 -35 0 -7 5 -13 10 -13 6 0 10 -11 10 -23 0 -13 3 -27 8 -31 4 -4 8 -12
8 -17 1 -5 2 -10 4 -11 1 -2 3 -10 5 -18 1 -8 11 -33 20 -55 10 -22 17 -44 16
-49 -1 -5 2 -12 7 -15 9 -6 53 -141 55 -168 0 -7 3 -13 6 -13 9 0 36 -91 33
-107 -2 -7 2 -13 8 -13 5 0 9 -3 8 -7 -1 -5 2 -28 6 -53 12 -73 15 -90 26
-185 5 -49 12 -101 16 -115 16 -72 41 -393 49 -650 3 -96 8 -184 10 -195 2
-11 6 -56 9 -100 3 -44 9 -91 12 -105 3 -14 8 -38 10 -55 10 -60 26 -484 26
-655 0 -96 0 -285 1 -420 2 -388 1 -577 -4 -690 -6 -149 10 -444 31 -576 6
-35 8 -76 5 -92 -17 -90 -20 -158 -19 -447 0 -206 5 -338 12 -370 9 -36 10
-145 6 -380 -3 -181 -7 -432 -9 -556 -5 -356 -9 -391 -45 -489 -5 -14 -12 -36
-14 -50 -3 -14 -7 -34 -10 -45 -20 -79 -35 -144 -37 -170 -2 -16 -9 -38 -15
-49 -7 -10 -10 -25 -7 -32 3 -8 0 -14 -6 -14 -6 0 -11 -7 -11 -16 0 -22 -58
-152 -89 -199 -15 -22 -33 -53 -41 -68 -8 -16 -24 -40 -37 -53 -12 -13 -19
-24 -15 -24 4 0 2 -4 -4 -8 -17 -12 -75 -104 -70 -110 3 -3 -6 -15 -19 -28
-14 -13 -25 -28 -25 -34 0 -5 -4 -10 -10 -10 -5 0 -10 -4 -10 -9 0 -15 -78
-93 -113 -113 -18 -10 -48 -26 -67 -36 -19 -9 -37 -20 -40 -24 -5 -7 -93 -48
-105 -49 -2 0 -26 -6 -52 -13 -27 -7 -73 -14 -104 -15 -31 -1 -64 -4 -75 -6
-27 -4 -111 -15 -164 -20 -25 -2 -72 -7 -105 -10 -190 -19 -299 -23 -562 -22
l-291 2 -20 -25 c-11 -14 -21 -37 -22 -50 -5 -57 1 -100 16 -114 8 -9 13 -16
9 -16 -11 0 48 -46 95 -73 25 -15 66 -34 90 -42 43 -16 56 -20 98 -29 9 -2 35
-9 57 -15 22 -6 43 -9 46 -8 3 1 12 -3 20 -9 8 -6 37 -15 64 -19 28 -5 55 -9
61 -10 6 -2 37 -6 70 -10 32 -3 79 -10 104 -15 66 -13 1035 -20 1075 -8 11 3
32 9 48 13 15 4 27 11 27 15 0 5 16 14 35 20 19 6 35 16 35 21 0 5 6 9 13 9 7
0 23 9 35 20 12 11 24 19 26 18 2 -2 15 6 28 18 14 11 39 29 56 40 18 10 32
22 32 27 0 4 4 6 9 3 5 -4 11 -2 13 3 1 5 10 11 18 13 20 4 39 21 33 31 -2 4
1 7 7 7 13 0 60 45 60 58 0 5 10 12 22 15 12 4 19 9 16 12 -3 4 15 28 42 55
27 27 46 51 42 54 -3 3 0 6 6 6 6 0 14 9 17 20 4 11 11 17 17 14 6 -4 8 -2 5
3 -4 6 7 29 23 52 17 22 28 41 24 41 -3 0 2 7 10 16 9 8 14 19 11 24 -3 4 2
10 10 14 8 3 15 12 15 21 0 8 3 15 8 15 4 0 15 19 25 41 10 23 25 48 33 56 8
9 13 22 10 29 -3 8 -2 14 2 14 9 0 58 102 54 112 -1 5 2 8 8 8 5 0 7 6 4 14
-3 8 0 17 5 21 6 3 9 11 6 16 -4 5 -2 9 3 9 8 0 23 51 23 75 0 2 7 24 15 47
25 68 64 201 68 228 2 14 7 48 11 75 10 78 13 94 19 103 9 15 15 64 21 176 7
129 11 164 24 226 15 67 14 1582 -1 1640 -7 30 -11 165 -10 395 1 193 1 395 0
450 -3 174 -2 247 4 365 6 112 -3 217 -22 252 -5 9 -10 120 -11 245 -1 244 -2
283 -12 353 -4 25 -9 171 -13 325 -4 217 -10 301 -25 374 -12 57 -19 135 -19
200 0 93 -19 291 -34 360 -3 13 -8 63 -12 110 -6 81 -11 116 -14 116 -1 0 -3
11 -6 25 -11 65 -13 77 -19 100 -14 62 -23 154 -24 258 -1 62 -4 118 -6 125
-2 7 -6 41 -10 76 -3 36 -8 67 -10 71 -2 4 -7 35 -10 71 -3 35 -8 75 -11 89
-3 14 -8 43 -10 65 -8 63 -20 126 -31 155 -8 19 -7 17 -17 65 -4 22 -13 49
-19 60 -6 11 -12 22 -12 25 0 5 -17 50 -36 98 -5 12 -13 32 -18 45 -5 12 -14
38 -21 57 -18 51 -34 84 -45 92 -5 4 -6 8 -2 8 5 0 2 6 -5 13 -7 8 -24 28 -38
46 -14 19 -35 43 -47 54 -12 11 -19 25 -16 31 3 6 3 8 -1 4 -5 -4 -24 10 -45
30 -20 20 -39 36 -43 34 -5 -1 -8 5 -8 14 0 8 -4 13 -9 10 -5 -3 -12 1 -15 10
-4 9 -9 14 -12 11 -4 -3 -15 3 -27 13 -11 11 -24 17 -29 14 -4 -3 -8 0 -8 6 0
6 -4 8 -10 5 -5 -3 -10 -1 -10 4 0 6 -9 11 -19 11 -11 0 -23 5 -26 10 -3 6
-16 10 -29 10 -12 0 -26 3 -30 7 -3 4 -12 8 -19 9 -7 1 -30 7 -52 12 -22 6
-57 12 -77 14 -21 1 -38 5 -38 9 0 9 -325 10 -334 1z"/>
<path d="M16670 14590 c0 -4 -16 -12 -35 -19 -21 -7 -33 -17 -29 -23 5 -8 1
-9 -10 -5 -9 4 -14 3 -11 -2 3 -5 -3 -16 -13 -23 -10 -7 -27 -25 -36 -40 -10
-15 -21 -26 -25 -23 -7 3 -43 -72 -44 -92 0 -4 -7 -14 -14 -21 -11 -12 -15
-26 -12 -48 0 -4 -5 -10 -13 -15 -7 -5 -14 -13 -14 -19 -1 -5 -2 -11 -4 -12
-1 -2 -3 -11 -5 -22 -2 -10 -12 -26 -22 -37 -32 -33 -42 -47 -36 -53 4 -3 0
-6 -7 -6 -7 0 -11 -3 -7 -6 5 -5 1 -12 -50 -68 -13 -14 -23 -30 -23 -36 0 -5
-5 -10 -10 -10 -6 0 -15 -12 -20 -26 -6 -15 -14 -22 -22 -18 -6 4 -8 3 -5 -3
8 -12 -74 -103 -92 -103 -7 0 -10 -4 -6 -10 8 -13 -109 -143 -119 -132 -3 3
-6 -2 -6 -11 0 -11 -5 -14 -17 -10 -11 4 -14 3 -9 -5 4 -7 2 -12 -4 -12 -7 0
-25 -13 -40 -30 -15 -16 -33 -30 -40 -30 -6 0 -9 -4 -6 -8 2 -4 -7 -17 -20
-27 -42 -34 -134 -128 -130 -132 4 -5 -26 -44 -55 -72 -47 -45 -85 -77 -92
-78 -5 -1 -17 -12 -28 -24 -10 -12 -19 -19 -19 -16 0 3 -14 -7 -32 -23 -17
-16 -34 -28 -37 -26 -8 3 -50 -41 -44 -47 2 -3 -10 -9 -26 -15 -17 -6 -31 -15
-31 -20 0 -5 -24 -24 -52 -42 -29 -18 -63 -42 -74 -54 -12 -12 -31 -28 -43
-36 -11 -8 -21 -20 -21 -28 0 -7 -4 -10 -10 -7 -5 3 -10 1 -10 -6 0 -7 -3 -10
-6 -6 -3 3 -17 -6 -31 -21 -14 -15 -29 -26 -34 -24 -5 1 -8 -2 -7 -7 2 -5 -21
-32 -49 -59 -29 -28 -53 -54 -53 -60 0 -5 -7 -13 -16 -16 -8 -3 -12 -10 -9
-16 3 -5 2 -10 -4 -10 -29 0 -59 -142 -32 -152 5 -2 11 -12 13 -22 1 -11 15
-32 31 -46 15 -15 27 -33 27 -39 0 -7 3 -10 8 -8 4 3 30 -20 57 -50 97 -107
123 -132 129 -126 3 4 6 -1 6 -10 0 -10 5 -17 10 -17 6 0 24 -13 42 -30 17
-16 37 -30 45 -30 8 0 26 -9 40 -20 14 -11 34 -20 44 -20 11 0 19 -3 19 -8 0
-22 165 -36 179 -14 3 4 21 17 39 28 18 10 42 34 54 52 11 17 24 30 29 26 5
-3 8 -2 7 3 -3 8 52 86 65 91 4 2 5 8 1 13 -3 5 0 9 5 9 6 0 11 3 10 8 -2 15
14 52 22 52 5 0 9 6 9 13 0 21 30 77 41 77 6 0 7 5 4 10 -3 6 -1 10 4 10 6 0
11 9 11 20 0 10 7 23 16 28 9 5 15 12 15 15 -3 19 1 26 25 53 14 16 36 41 49
57 14 15 22 27 18 27 -3 0 14 19 38 42 24 23 43 46 41 50 -1 4 5 8 14 8 8 0
13 4 10 9 -3 5 10 25 28 45 19 20 32 36 30 36 -3 0 11 20 30 44 20 23 36 48
36 54 0 6 5 14 12 18 7 5 8 2 3 -7 -4 -8 1 -5 12 6 11 11 19 22 17 24 -2 2 9
16 24 32 15 16 37 41 50 54 12 13 22 29 22 34 0 6 6 14 13 18 7 4 24 24 37 43
34 48 145 160 159 160 7 0 14 7 17 15 4 8 9 13 14 10 4 -2 16 4 27 14 11 11
34 26 51 35 18 9 32 21 32 26 0 6 7 10 15 10 8 0 15 5 15 11 0 5 4 8 8 5 5 -3
16 3 25 12 23 25 47 44 47 37 0 -3 10 3 22 14 11 11 25 18 30 15 4 -3 8 0 8 7
0 7 3 10 6 7 3 -3 17 5 31 18 14 13 32 24 39 24 8 0 14 4 14 9 0 5 14 14 30
21 17 7 30 16 30 21 0 5 6 9 14 9 8 0 22 7 30 16 9 8 16 12 16 8 0 -4 9 1 20
11 11 10 36 19 55 19 19 1 35 5 35 9 0 5 5 5 10 2 6 -3 10 -1 10 6 0 7 3 9 7
6 3 -4 19 7 35 23 15 16 31 30 34 29 17 -1 64 77 64 106 0 32 -64 177 -81 183
-5 2 -7 7 -4 11 2 4 -11 24 -30 44 -18 19 -31 38 -28 41 4 3 -1 6 -10 6 -10 0
-17 6 -17 14 0 8 -7 17 -16 20 -9 4 -14 9 -11 13 4 3 -7 19 -23 35 -16 15 -27
28 -24 28 7 0 -77 80 -105 99 -11 8 -17 19 -14 24 3 6 1 7 -6 3 -6 -4 -14 0
-17 8 -3 9 -10 13 -15 10 -5 -3 -9 0 -9 7 0 7 -2 10 -5 7 -3 -3 -18 6 -34 21
-34 32 -132 63 -183 59 -21 -2 -38 -5 -38 -8z"/>
<path d="M1664 14441 c-5 -5 -53 -11 -106 -15 -53 -3 -103 -8 -110 -11 -7 -2
-33 -7 -57 -9 -48 -6 -139 -33 -158 -49 -7 -5 -13 -7 -13 -4 0 9 -75 -19 -142
-53 -32 -17 -65 -30 -73 -30 -8 0 -15 -4 -15 -8 0 -4 -29 -25 -65 -45 -35 -21
-79 -51 -97 -67 -18 -17 -50 -46 -70 -65 -21 -19 -41 -35 -45 -35 -5 0 -14
-14 -21 -30 -8 -17 -18 -28 -23 -24 -5 3 -9 1 -9 -4 0 -5 -16 -25 -35 -45 -20
-21 -33 -37 -29 -37 4 0 -1 -7 -12 -15 -10 -8 -15 -15 -10 -15 5 0 -1 -8 -12
-19 -12 -10 -22 -23 -22 -29 0 -6 -8 -17 -17 -24 -10 -7 -19 -19 -21 -27 -1
-7 -14 -28 -27 -46 -14 -17 -25 -37 -25 -43 0 -7 -4 -12 -9 -12 -8 0 -24 -37
-22 -52 1 -5 -4 -8 -9 -8 -6 0 -15 -11 -20 -25 -5 -14 -14 -25 -20 -25 -6 0
-8 -5 -5 -11 4 -5 0 -18 -8 -27 -21 -25 -70 -112 -62 -112 3 0 -1 -7 -10 -16
-9 -9 -14 -22 -11 -30 3 -7 -1 -18 -9 -24 -8 -6 -17 -26 -20 -43 -4 -18 -14
-43 -22 -56 -10 -16 -11 -21 -2 -16 7 5 5 -2 -4 -16 -9 -13 -17 -34 -17 -46 0
-13 -5 -23 -12 -23 -6 0 -8 -3 -5 -7 4 -3 3 -11 -2 -17 -6 -7 -12 -23 -14 -36
-3 -14 -12 -50 -20 -80 -9 -30 -18 -71 -21 -90 -3 -19 -8 -46 -12 -60 -11 -43
-22 -141 -28 -252 -4 -59 -8 -113 -11 -120 -16 -49 -34 -219 -35 -338 0 -58
-8 -163 -17 -235 -15 -114 -17 -287 -20 -1399 -2 -790 1 -1273 6 -1280 6 -7
11 -66 12 -131 2 -111 10 -214 23 -275 3 -14 10 -72 16 -130 6 -58 13 -112 15
-120 4 -15 9 -70 20 -220 4 -47 11 -103 15 -125 5 -22 11 -67 15 -100 14 -142
27 -252 31 -275 2 -14 11 -70 20 -125 8 -55 17 -111 19 -125 2 -14 7 -47 10
-75 4 -27 8 -57 10 -65 4 -13 11 -75 31 -250 12 -117 25 -190 41 -240 9 -30
17 -57 18 -60 1 -3 8 -21 17 -41 16 -37 43 -124 52 -169 5 -27 13 -60 21 -87
2 -10 12 -49 20 -88 26 -117 63 -220 106 -295 11 -19 23 -43 26 -52 3 -10 9
-18 13 -18 4 0 13 -13 20 -29 6 -16 18 -32 26 -35 8 -3 14 -12 14 -21 0 -8 5
-15 12 -15 6 0 9 -3 5 -6 -7 -7 196 -214 211 -214 6 0 16 -8 21 -17 6 -10 11
-14 11 -9 0 4 14 -6 30 -24 17 -18 30 -29 30 -26 0 3 11 -4 25 -16 14 -12 25
-28 25 -35 0 -7 5 -13 11 -13 5 0 7 6 3 13 -5 6 20 -16 54 -51 34 -35 62 -60
62 -55 0 4 5 0 11 -9 5 -10 17 -18 24 -18 8 0 15 -4 15 -9 0 -5 10 -12 23 -16
57 -17 95 -26 127 -31 19 -3 67 -13 105 -23 84 -21 189 -26 242 -12 40 11 97
19 198 27 168 13 182 16 265 55 111 53 172 76 220 85 14 3 68 16 120 30 52 15
106 28 120 31 49 8 255 65 272 74 10 6 22 8 26 5 5 -3 20 1 35 9 14 7 39 16
56 20 17 4 31 11 31 17 0 6 3 8 7 5 3 -4 13 2 20 13 8 11 19 17 25 14 7 -4 8
-2 4 4 -4 7 -4 12 1 12 18 0 41 60 39 102 -3 90 -62 134 -162 122 -88 -10
-200 -38 -218 -54 -5 -5 -15 -6 -22 -3 -8 3 -14 1 -14 -5 0 -9 -47 -27 -62
-24 -5 1 -8 -3 -8 -10 0 -6 -3 -9 -6 -5 -3 3 -17 2 -31 -4 -94 -36 -406 -51
-510 -25 -32 8 -80 17 -108 20 -27 3 -68 10 -90 16 -22 6 -49 13 -60 15 -11 3
-21 9 -23 15 -2 5 -9 10 -16 10 -7 0 -32 18 -56 40 -24 22 -47 40 -52 40 -5 0
-7 4 -3 9 3 5 -4 12 -15 16 -11 3 -20 9 -20 13 0 4 -13 21 -30 38 -16 18 -26
35 -23 38 4 3 -1 6 -10 6 -10 0 -16 3 -15 8 2 4 -19 28 -45 55 -26 26 -48 50
-48 55 -3 15 -48 62 -60 62 -7 0 -10 3 -6 6 6 6 -2 17 -40 59 -13 13 -23 28
-23 32 0 5 -8 16 -17 25 -30 28 -42 46 -36 52 4 3 2 6 -4 6 -5 0 -18 18 -29
40 -10 22 -22 40 -26 40 -5 0 -8 6 -8 13 0 18 -24 67 -32 67 -5 0 -8 8 -8 18
0 10 -3 22 -8 26 -4 4 -7 11 -8 14 0 4 -4 14 -7 22 -4 8 -18 49 -32 90 -14 41
-30 83 -35 92 -6 10 -10 24 -10 32 0 8 -4 16 -10 18 -5 2 -11 15 -12 30 -1 15
-8 30 -16 33 -7 3 -10 9 -7 15 3 5 1 10 -4 10 -6 0 -11 7 -11 15 0 8 -5 15
-11 15 -6 0 -9 6 -6 14 3 8 -1 17 -10 20 -9 4 -13 9 -9 13 3 3 -1 17 -10 30
-8 14 -17 32 -19 41 -2 9 -10 38 -19 63 -9 25 -17 54 -19 65 -2 10 -7 27 -11
36 -4 9 -9 22 -10 30 -3 13 -11 37 -26 73 -29 71 -32 87 -50 248 -6 49 -12
101 -15 115 -2 15 -9 60 -15 101 -6 40 -12 76 -14 80 -2 3 -7 31 -10 61 -5 46
-15 118 -42 300 -5 29 -23 134 -30 170 -10 55 -23 181 -29 290 -3 63 -8 129
-10 145 -8 60 -15 132 -25 240 -13 138 -20 197 -30 260 -5 28 -8 102 -8 165 0
63 -3 151 -8 195 -5 44 -6 114 -1 155 4 41 9 109 11 150 2 67 9 131 23 225 2
17 6 89 9 160 3 72 10 202 15 290 6 88 14 277 19 420 4 143 13 272 18 286 6
15 13 44 17 66 3 21 8 50 11 63 10 40 24 149 29 230 3 41 8 99 11 127 3 29 5
56 4 59 -1 4 3 10 8 13 12 8 49 192 57 286 7 84 16 165 21 185 2 8 9 35 15 60
6 25 12 51 12 58 0 6 4 12 9 12 5 0 6 5 3 10 -3 6 -3 16 2 23 4 6 9 21 10 32
2 11 11 43 20 70 10 28 18 53 19 58 1 4 3 9 4 12 1 3 3 9 4 14 0 6 7 16 14 23
6 6 12 18 12 25 0 8 6 26 14 41 8 15 16 36 18 47 1 11 5 22 8 25 4 4 32 84 45
130 2 8 16 41 33 83 9 20 20 37 26 37 5 0 7 2 4 6 -3 3 7 32 23 65 16 32 29
62 29 66 0 3 7 14 16 24 8 9 17 24 18 33 3 20 126 169 126 152 0 -3 14 8 31
25 16 16 35 27 40 23 5 -3 8 -2 7 3 -2 4 1 9 6 10 5 1 12 5 15 10 7 10 99 73
107 73 3 0 12 7 20 15 9 8 24 15 35 15 10 0 19 5 19 11 0 5 5 7 10 4 6 -3 10
-2 10 3 0 9 82 30 205 52 33 7 84 20 113 31 28 10 54 19 57 19 3 0 6 0 8 1 14
6 195 5 217 -1 16 -5 57 -11 92 -15 35 -3 87 -12 116 -20 28 -7 52 -12 52 -10
0 2 12 -2 27 -10 15 -8 30 -12 35 -9 4 3 8 2 8 -3 0 -4 25 -19 55 -33 30 -14
55 -28 55 -33 0 -6 30 -22 60 -32 3 -1 34 -16 70 -33 36 -17 75 -33 88 -35 13
-2 27 -8 30 -13 4 -5 16 -11 27 -12 11 -2 23 -9 27 -15 4 -7 8 -7 8 -2 0 6 7
1 15 -9 8 -11 15 -17 15 -13 0 4 24 -5 53 -21 28 -16 78 -34 110 -41 50 -11
61 -11 82 3 14 9 25 14 25 11 0 -6 28 23 62 64 27 32 31 65 13 101 -19 37 -79
100 -95 100 -5 0 -10 4 -10 10 0 5 -7 7 -15 4 -8 -4 -17 1 -21 10 -3 9 -10 13
-15 10 -5 -3 -9 0 -9 6 0 6 -4 8 -10 5 -5 -3 -10 -2 -10 3 0 5 -21 20 -46 33
-26 13 -48 29 -51 36 -3 7 -9 11 -13 8 -5 -3 -15 3 -22 14 -8 11 -26 25 -41
32 -14 6 -24 17 -20 23 3 6 2 8 -2 3 -5 -4 -17 1 -28 10 -15 13 -19 14 -13 3
6 -11 4 -11 -6 1 -7 9 -15 16 -18 17 -3 0 -25 10 -50 20 -53 23 -82 34 -92 37
-5 2 -10 4 -13 5 -3 1 -10 3 -15 4 -6 0 -14 6 -18 11 -4 6 -18 12 -32 13 -14
2 -31 9 -37 14 -7 6 -13 7 -13 4 0 -4 -10 -1 -22 6 -42 23 -112 37 -213 43
-55 3 -120 8 -145 11 -25 3 -94 7 -155 10 -60 3 -137 10 -170 16 -77 14 -240
19 -251 9z"/>
<path d="M13848 13026 c-15 -8 -29 -12 -32 -8 -3 3 -6 0 -6 -6 0 -6 -18 -17
-40 -23 -22 -7 -40 -16 -40 -21 0 -5 -4 -7 -9 -4 -5 4 -11 3 -13 -2 -6 -14
-71 -56 -89 -57 -9 -1 -25 -9 -34 -18 -9 -10 -21 -15 -26 -12 -5 4 -9 1 -9 -4
0 -6 -4 -11 -10 -11 -5 0 -42 -15 -82 -34 -40 -19 -86 -38 -103 -42 -16 -4
-36 -11 -42 -17 -7 -5 -13 -6 -13 -1 0 5 -6 2 -13 -6 -7 -8 -18 -16 -26 -18
-19 -4 -80 -51 -117 -89 -17 -18 -35 -29 -39 -25 -5 4 -5 2 -2 -4 4 -7 -10
-23 -32 -39 -22 -14 -42 -34 -45 -42 -4 -9 -9 -13 -12 -10 -7 7 -70 -55 -66
-65 1 -5 -2 -7 -6 -5 -8 2 -61 -39 -136 -105 -70 -63 -76 -68 -81 -68 -3 0
-16 -9 -28 -21 -12 -12 -39 -32 -59 -45 -21 -13 -38 -29 -38 -34 0 -6 -5 -10
-11 -10 -7 0 -20 -10 -30 -22 -11 -11 -19 -17 -19 -13 0 5 -7 0 -15 -11 -8
-10 -15 -15 -15 -11 0 5 -7 1 -16 -7 -8 -9 -20 -13 -26 -10 -7 4 -8 2 -4 -4 4
-7 -13 -21 -43 -36 -27 -14 -52 -30 -56 -36 -3 -5 -15 -10 -26 -10 -10 0 -19
-5 -19 -12 0 -6 -3 -8 -7 -5 -3 4 -11 3 -17 -2 -30 -24 -95 -54 -126 -58 -19
-3 -37 -7 -39 -9 -2 -2 -16 3 -31 11 -15 8 -30 11 -34 8 -3 -4 -6 -1 -6 5 0 7
-3 11 -8 10 -4 -2 -18 7 -32 20 -13 12 -30 22 -37 22 -8 0 -12 4 -9 9 7 11
-69 52 -80 43 -4 -4 -4 -2 0 5 4 8 -2 15 -19 19 -14 3 -25 10 -25 14 0 5 -13
11 -30 15 -16 4 -30 11 -30 17 0 6 -3 9 -6 5 -4 -3 -13 1 -21 9 -8 8 -19 12
-24 9 -5 -4 -9 -1 -9 6 0 7 -3 10 -6 6 -3 -3 -27 6 -54 19 -26 13 -57 24 -69
24 -12 0 -21 5 -21 12 0 6 -3 9 -6 5 -3 -3 -30 3 -60 13 -30 11 -54 17 -54 14
0 -2 -13 2 -30 11 -16 9 -30 14 -30 11 0 -2 -17 0 -37 6 -36 10 -124 22 -248
34 -192 18 -259 22 -335 19 -173 -6 -562 -15 -815 -19 -143 -3 -271 -7 -285
-10 -14 -3 -109 -10 -212 -15 -104 -5 -192 -12 -196 -15 -13 -8 -55 -15 -175
-31 -27 -4 -59 -9 -70 -11 -12 -3 -43 -7 -69 -9 -26 -2 -55 -6 -65 -9 -10 -3
-36 -8 -59 -11 -22 -3 -55 -9 -72 -14 -17 -5 -33 -6 -37 -3 -3 4 -9 2 -13 -4
-10 -15 -186 -61 -261 -69 -35 -3 -81 -15 -102 -26 -22 -11 -39 -17 -39 -14 0
3 -18 -6 -40 -20 -22 -14 -40 -22 -40 -18 0 5 -5 0 -11 -10 -6 -9 -14 -15 -20
-12 -5 4 -9 1 -9 -5 0 -7 -7 -10 -15 -6 -8 3 -15 2 -15 -2 0 -4 -25 -19 -55
-32 -30 -13 -55 -28 -55 -33 0 -4 -4 -6 -9 -3 -5 3 -12 -1 -15 -10 -4 -9 -9
-14 -13 -10 -3 3 -15 -2 -26 -11 -10 -10 -21 -17 -23 -16 -2 1 -18 -4 -36 -11
-31 -13 -78 -12 -108 4 -8 4 -31 10 -51 14 -47 8 -355 121 -385 141 -13 8 -30
15 -39 15 -8 0 -15 3 -15 8 0 4 -12 12 -27 19 -59 25 -88 36 -95 35 -4 -1 -12
6 -17 16 -5 10 -25 24 -45 32 -20 7 -36 17 -36 22 0 4 -3 7 -7 6 -8 -2 -110
35 -140 51 -20 11 -50 21 -59 20 -4 0 -10 4 -13 9 -3 5 -35 25 -71 43 -54 28
-77 34 -137 36 l-73 2 -40 -41 c-48 -49 -63 -107 -38 -143 25 -34 66 -73 72
-68 3 3 6 -1 6 -10 0 -9 13 -23 29 -31 16 -9 31 -22 35 -31 3 -9 10 -14 15
-11 4 3 16 -3 26 -14 10 -11 22 -17 26 -14 5 3 9 -2 9 -11 0 -9 4 -14 9 -10 5
3 17 -2 25 -11 9 -8 16 -12 16 -7 0 4 4 4 8 -2 7 -10 80 -48 94 -49 4 -1 13
-7 20 -13 6 -7 20 -13 30 -13 10 0 18 -4 18 -10 0 -5 6 -10 13 -10 7 0 23 -9
35 -20 12 -12 22 -17 22 -13 0 4 5 0 11 -9 5 -10 17 -18 24 -18 8 0 15 -5 15
-11 0 -5 4 -8 9 -4 5 3 16 -1 24 -9 8 -8 17 -12 21 -9 3 4 6 1 6 -6 0 -7 5 -9
10 -6 6 3 10 1 10 -4 0 -6 9 -11 20 -11 11 0 20 -4 20 -9 0 -8 37 -24 53 -22
4 1 7 -3 7 -9 0 -6 3 -9 8 -8 4 1 17 -3 28 -10 12 -6 24 -9 27 -5 4 3 9 -1 13
-10 3 -9 11 -14 19 -11 7 3 15 -2 19 -11 3 -10 12 -15 21 -11 8 3 15 1 15 -5
0 -10 48 -34 63 -31 4 1 7 -3 7 -8 0 -6 7 -10 15 -10 8 0 15 -4 15 -10 0 -5 6
-10 13 -10 15 0 108 -58 119 -75 4 -5 8 -6 8 -2 0 15 77 -66 93 -98 16 -32 15
-49 -3 -155 -29 -163 -45 -202 -102 -245 -17 -14 -78 -15 -78 -2 0 6 -3 7 -6
4 -4 -3 -16 0 -26 8 -11 7 -27 11 -34 8 -8 -3 -14 0 -14 5 0 6 -10 14 -22 18
-13 3 -41 14 -63 24 -66 28 -80 33 -87 32 -5 -1 -8 2 -8 8 0 5 -9 10 -20 10
-11 0 -20 5 -20 12 0 6 -3 9 -6 5 -7 -6 -60 11 -130 44 -27 12 -54 24 -61 25
-7 1 -27 9 -44 18 -18 9 -39 16 -47 16 -9 0 -12 3 -9 7 7 6 -82 43 -113 47 -9
1 -21 5 -28 10 -29 17 -148 45 -175 41 -55 -10 -113 -59 -123 -104 -3 -14 -8
-32 -10 -39 -5 -17 25 -82 37 -82 5 0 9 -6 9 -12 1 -18 66 -62 115 -79 22 -7
44 -17 49 -21 6 -4 20 -8 33 -8 13 0 23 -5 23 -11 0 -5 5 -7 10 -4 6 3 13 -1
16 -9 3 -9 10 -13 15 -10 6 3 16 0 24 -6 8 -7 15 -10 15 -6 0 3 21 -7 48 -22
26 -16 63 -34 82 -41 19 -7 49 -20 67 -27 17 -8 33 -14 36 -14 3 0 18 -5 34
-12 15 -6 31 -12 35 -12 3 -1 10 -4 14 -8 4 -5 13 -8 20 -8 7 0 25 -5 41 -12
15 -6 31 -11 36 -10 4 1 7 -3 7 -9 0 -5 4 -8 8 -5 4 2 32 -9 62 -25 30 -16 93
-48 140 -70 47 -23 88 -46 92 -53 4 -6 8 -7 8 -3 0 4 9 -1 21 -12 12 -11 18
-24 14 -30 -3 -6 -2 -11 4 -11 7 0 7 -8 0 -24 -8 -16 -25 -28 -53 -35 -64 -17
-265 -41 -404 -47 -121 -5 -182 -11 -337 -33 -106 -15 -149 -23 -157 -27 -3
-2 -53 -6 -110 -9 -268 -12 -428 -24 -440 -31 -24 -15 -222 -43 -383 -53 -77
-5 -153 -12 -170 -14 -67 -12 -205 -17 -490 -18 -314 -2 -398 -7 -659 -41 -88
-11 -180 -21 -206 -22 -25 -2 -51 -5 -56 -8 -5 -4 -34 -7 -64 -9 -30 -1 -65
-6 -77 -10 -12 -4 -42 -9 -67 -10 -25 -2 -43 -6 -40 -10 2 -4 -17 -11 -43 -14
-85 -11 -192 -75 -221 -132 -29 -57 24 -157 88 -168 32 -5 164 6 230 20 14 3
99 10 190 15 91 5 190 14 220 19 30 5 120 9 200 10 80 1 186 6 235 12 91 9
177 15 380 23 61 3 122 7 136 10 14 3 163 8 330 11 167 3 320 8 339 12 52 9
360 7 570 -5 125 -7 219 -7 290 0 71 7 123 7 160 0 77 -15 342 -2 450 21 8 2
40 9 71 16 86 18 133 4 140 -44 3 -21 -27 -75 -42 -75 -4 0 -31 -13 -59 -30
-28 -16 -62 -33 -75 -36 -14 -3 -25 -10 -25 -16 0 -5 -4 -7 -9 -3 -5 3 -12 1
-16 -5 -4 -6 -11 -8 -16 -5 -5 4 -9 2 -9 -4 0 -5 -10 -13 -22 -17 -13 -4 -34
-17 -47 -30 -13 -13 -29 -24 -37 -24 -7 0 -14 -4 -16 -9 -1 -5 -9 -11 -17 -13
-19 -4 -58 -41 -54 -50 2 -5 -2 -8 -10 -8 -8 0 -20 -7 -27 -15 -7 -8 -16 -13
-20 -10 -5 3 -10 1 -12 -4 -1 -5 -9 -11 -17 -13 -8 -2 -23 -11 -33 -21 -10
-10 -23 -15 -28 -12 -6 4 -10 1 -10 -5 0 -6 -12 -16 -27 -22 -41 -18 -163
-100 -163 -109 0 -5 -7 -6 -15 -3 -8 4 -15 2 -15 -3 0 -6 -19 -18 -42 -29 -24
-10 -49 -24 -56 -31 -8 -7 -18 -11 -23 -8 -5 4 -9 1 -9 -6 0 -7 -3 -10 -6 -6
-7 7 -44 -29 -44 -43 0 -5 -4 -10 -8 -10 -5 0 -16 -16 -25 -35 -12 -26 -14
-41 -7 -60 5 -14 7 -25 4 -25 -12 0 73 -72 95 -81 29 -12 121 -9 121 3 0 5 5
6 10 3 6 -3 10 -2 10 4 0 5 13 12 30 16 16 4 30 10 30 14 0 4 10 7 22 8 11 1
24 7 28 13 4 7 9 11 11 10 2 -1 17 3 32 9 16 6 30 11 32 11 3 0 28 11 57 24
55 24 115 49 133 53 89 21 264 89 277 108 4 5 8 6 8 2 0 -10 60 23 78 43 8 8
11 10 8 3 -4 -6 10 -3 31 7 25 12 43 15 54 9 9 -4 20 -5 24 -1 5 4 5 1 1 -5
-4 -8 -2 -13 5 -13 16 0 47 -37 63 -75 7 -16 19 -43 26 -60 8 -16 14 -32 15
-35 0 -3 7 -23 14 -44 54 -157 72 -411 31 -424 -6 -2 -8 -8 -4 -13 3 -5 0 -9
-5 -9 -6 0 -11 -7 -11 -16 0 -8 -3 -13 -7 -11 -5 2 -16 -4 -25 -15 -10 -10
-16 -18 -13 -18 2 0 -8 -12 -22 -27 -14 -16 -30 -27 -37 -25 -6 2 -8 1 -4 -3
6 -6 -7 -21 -62 -67 -8 -7 -18 -12 -23 -10 -4 1 -10 -5 -13 -13 -4 -8 -12 -15
-19 -15 -6 0 -24 -11 -39 -25 -14 -13 -26 -21 -26 -18 0 6 -89 -65 -108 -87
-12 -13 -13 -13 -7 0 4 10 2 9 -8 -2 -8 -10 -17 -18 -21 -18 -3 0 -29 -22 -56
-50 -27 -27 -54 -50 -59 -50 -5 0 -16 -11 -25 -25 -9 -14 -21 -25 -26 -25 -5
0 -20 -10 -33 -22 -13 -13 -34 -30 -47 -38 -13 -8 -39 -30 -58 -47 -19 -18
-39 -30 -45 -26 -6 3 -7 1 -3 -5 6 -11 -6 -16 -26 -13 -5 0 -8 -4 -8 -9 0 -6
-20 -19 -44 -30 -24 -10 -47 -23 -51 -29 -3 -6 -11 -9 -16 -6 -5 4 -12 -1 -15
-9 -3 -9 -10 -13 -16 -10 -5 3 -12 -2 -14 -12 -3 -11 -25 -35 -50 -54 -24 -19
-44 -43 -44 -52 0 -9 -4 -19 -8 -22 -12 -7 -14 -88 -3 -96 6 -3 12 -17 14 -30
5 -33 76 -70 134 -70 48 0 92 19 132 56 14 13 29 24 33 24 5 0 8 7 8 16 0 8 4
13 9 10 12 -8 98 37 120 63 10 11 23 21 30 21 6 0 11 5 11 10 0 6 5 10 10 10
6 0 35 16 65 35 30 19 55 33 55 30 0 -3 9 3 20 13 12 9 24 17 28 16 4 0 27 12
51 28 25 15 50 28 57 28 6 0 17 7 24 15 7 8 21 15 32 15 10 0 17 4 14 8 -3 4
12 17 32 27 20 11 40 24 44 30 5 6 8 6 8 0 0 -5 7 1 16 13 8 12 19 20 24 17 4
-3 13 2 20 10 7 8 19 15 26 15 8 0 23 9 34 20 11 11 20 18 20 15 0 -3 18 7 40
21 22 15 40 31 40 36 0 5 5 6 10 3 6 -3 10 -1 10 4 0 6 7 11 15 11 8 0 15 4
15 10 0 5 11 12 25 16 14 4 23 9 21 12 -6 5 18 21 64 43 44 20 123 23 158 5
18 -9 32 -14 32 -10 0 4 7 0 17 -7 9 -8 18 -13 20 -11 1 1 5 1 8 1 13 -3 21
-6 40 -13 56 -22 55 -21 102 -29 17 -3 37 -8 42 -12 10 -6 21 -9 81 -20 14 -3
36 -7 50 -10 84 -16 109 -20 215 -30 39 -4 79 -9 90 -11 11 -3 70 -7 130 -9
61 -3 155 -8 210 -10 55 -3 190 -10 300 -15 110 -6 227 -14 260 -19 57 -8 81
-7 220 4 33 3 110 7 170 10 61 3 173 8 250 11 77 4 183 8 235 10 136 3 389 38
585 79 11 3 31 7 45 10 14 3 34 7 45 9 11 3 63 16 115 30 52 14 111 28 130 31
51 9 182 27 203 28 9 1 17 5 17 9 0 4 3 7 8 6 22 -6 177 52 192 72 3 3 22 14
43 23 20 10 37 22 37 28 0 6 4 8 10 4 5 -3 19 4 30 15 44 44 117 52 180 20 22
-11 40 -25 40 -30 0 -5 7 -7 15 -4 8 4 15 1 15 -5 0 -6 15 -18 33 -26 17 -8
57 -30 87 -49 30 -19 58 -33 61 -31 3 2 11 -4 19 -15 7 -10 19 -16 25 -14 7 3
15 -2 18 -10 4 -9 13 -16 22 -16 8 0 15 -7 15 -16 0 -8 4 -12 10 -9 9 6 71
-32 78 -47 2 -5 11 -8 20 -8 10 0 28 -9 42 -20 14 -11 33 -20 42 -20 9 0 20
-4 23 -10 3 -5 14 -10 24 -10 9 0 43 -13 74 -29 31 -16 57 -27 57 -24 0 4 8 0
18 -8 9 -8 29 -21 45 -29 15 -7 27 -17 27 -22 0 -5 5 -6 10 -3 6 3 10 1 10 -5
0 -6 5 -8 10 -5 6 3 10 2 10 -2 0 -9 80 -48 93 -45 4 1 7 -3 7 -9 0 -5 4 -8 9
-5 5 4 11 3 13 -2 6 -14 63 -49 101 -61 20 -7 37 -17 37 -22 0 -6 4 -8 9 -5 5
3 11 -1 15 -9 3 -8 12 -15 21 -15 8 0 15 -4 15 -10 0 -5 9 -10 20 -10 11 0 20
-5 20 -12 0 -6 3 -8 7 -5 3 4 20 -2 38 -13 18 -11 35 -17 38 -13 4 3 7 1 7 -6
0 -7 4 -10 9 -7 5 3 14 0 20 -7 18 -23 115 -14 156 14 32 22 36 28 34 45 0 4
5 10 11 14 12 7 15 71 6 115 -3 11 -5 24 -5 28 -1 5 -5 5 -11 2 -5 -3 -10 -1
-10 5 0 14 -25 40 -37 40 -5 0 -18 8 -29 18 -37 32 -154 96 -154 84 0 -4 -4
-2 -8 4 -4 6 -29 21 -57 34 -53 26 -67 35 -93 63 -9 9 -23 17 -31 17 -8 0 -11
3 -8 7 7 6 -78 53 -98 53 -5 0 -21 12 -34 25 -12 14 -28 22 -35 18 -6 -3 -8
-3 -4 1 8 10 -14 36 -24 29 -5 -2 -8 1 -8 7 0 6 -4 8 -10 5 -5 -3 -10 -1 -10
4 0 6 -7 11 -15 11 -8 0 -15 5 -15 11 0 6 -7 9 -15 5 -8 -3 -15 -2 -15 3 0 6
-43 32 -60 36 -3 0 -34 16 -70 35 -35 19 -66 33 -68 32 -3 -2 -8 0 -11 5 -8
12 -100 73 -109 73 -4 0 -19 10 -34 23 -14 12 -36 30 -47 40 -12 9 -26 17 -31
17 -6 0 -10 5 -10 10 0 6 -9 10 -20 10 -10 0 -24 9 -30 21 -7 11 -14 18 -17
15 -3 -3 -17 3 -31 14 -13 11 -28 17 -33 14 -5 -3 -9 -2 -9 3 0 4 -20 16 -44
26 -50 20 -89 51 -79 61 3 3 -1 6 -10 6 -11 0 -14 5 -10 17 4 11 3 14 -5 9 -9
-5 -12 6 -12 38 0 25 5 48 10 51 6 3 10 15 10 26 0 11 8 41 19 67 10 26 27 74
37 107 10 33 24 66 31 73 7 7 13 20 13 28 0 22 44 63 86 80 41 17 145 6 224
-24 8 -3 18 -6 23 -7 4 -2 9 -4 12 -5 3 -1 8 -3 13 -5 4 -1 21 -7 37 -14 17
-7 39 -14 50 -16 11 -2 61 -10 110 -19 171 -29 190 -31 295 -31 111 0 191 9
222 26 10 5 18 7 18 3 0 -3 7 -1 15 6 8 7 15 9 15 6 0 -7 15 4 61 46 16 16 26
28 22 28 -4 0 -2 5 5 12 26 26 14 75 -29 117 -43 42 -50 44 -189 55 -66 6 -83
9 -110 19 -8 3 -36 11 -62 18 -27 7 -48 17 -48 22 0 5 -6 7 -12 4 -7 -2 -17 2
-23 9 -5 7 -21 15 -35 18 -14 3 -64 14 -112 24 -48 11 -89 17 -92 14 -3 -3 -6
0 -6 6 0 7 -6 12 -13 12 -22 0 -77 30 -77 42 0 5 -7 8 -14 5 -9 -4 -17 2 -21
14 -4 10 -11 17 -16 14 -5 -4 -9 -1 -9 4 0 6 -4 11 -10 11 -5 0 -29 13 -52 29
-24 16 -46 27 -50 25 -5 -3 -8 0 -8 5 0 6 -5 11 -10 11 -14 0 -64 50 -79 78
-6 12 -19 22 -27 22 -8 0 -12 5 -9 10 3 6 2 10 -3 10 -5 0 -17 16 -26 35 -14
28 -15 39 -5 57 30 56 53 62 324 83 33 2 94 7 135 10 41 3 93 11 115 17 52 13
59 15 130 22 110 12 140 17 165 26 23 8 138 33 200 44 14 2 45 9 70 14 25 6
65 14 90 17 24 4 47 8 51 10 11 8 102 19 239 31 41 3 85 10 98 15 13 5 35 11
50 13 15 2 59 9 97 15 39 6 138 16 220 21 83 5 161 12 175 15 33 7 104 13 227
19 56 3 121 10 145 15 23 5 70 13 103 16 33 4 70 8 83 10 12 2 59 5 105 6 45
1 87 5 92 9 13 11 54 15 439 46 38 3 90 9 115 14 25 4 116 9 204 10 87 0 169
5 181 10 13 5 27 6 30 3 3 -4 6 -1 6 6 0 7 4 10 8 7 5 -3 18 3 29 14 12 10 23
16 26 14 3 -3 8 4 12 15 3 12 11 21 16 21 6 0 8 4 5 9 -4 5 -1 11 5 13 14 5
23 71 15 112 -6 31 -66 106 -89 110 -7 2 -32 8 -56 15 -32 9 -60 10 -110 2
-36 -6 -106 -13 -156 -16 -131 -9 -182 -13 -255 -22 -77 -9 -330 -10 -451 -2
-47 3 -114 2 -150 -2 -78 -10 -229 -26 -324 -34 -38 -3 -88 -10 -110 -16 -22
-5 -51 -8 -65 -6 -14 2 -38 0 -54 -4 -15 -5 -78 -11 -140 -14 -61 -4 -124 -8
-141 -11 -16 -2 -93 -9 -170 -14 -77 -6 -160 -14 -185 -19 -24 -5 -108 -10
-187 -10 -79 -1 -180 -9 -225 -17 -46 -8 -105 -17 -133 -20 -27 -3 -77 -10
-110 -15 -33 -6 -71 -12 -85 -14 -25 -4 -148 -19 -245 -30 -27 -4 -68 -10 -90
-15 -22 -4 -71 -11 -110 -15 -101 -9 -144 -14 -179 -19 -102 -16 -130 -17
-157 -6 -36 15 -36 22 -3 51 15 13 38 35 52 49 14 14 22 18 18 10 -4 -8 -1 -7
7 3 9 10 17 18 19 17 1 -1 14 3 28 8 14 5 29 10 34 10 5 0 12 4 15 9 6 8 153
72 181 78 23 5 178 69 250 103 119 56 180 82 194 82 7 0 16 3 20 8 4 4 11 7
14 8 39 7 72 18 72 26 0 5 4 7 9 3 5 -3 21 6 35 20 14 14 28 25 31 25 4 -1 22
18 41 42 24 31 34 53 34 79 0 41 -18 101 -34 111 -6 4 -7 8 -3 8 15 0 -18 26
-51 39 -38 16 -160 10 -172 -9 -4 -6 -11 -11 -16 -11 -18 3 -104 -23 -104 -31
0 -4 -3 -7 -7 -6 -17 5 -109 -13 -198 -37 -33 -9 -71 -19 -85 -21 -13 -3 -27
-8 -30 -12 -3 -4 -12 -7 -20 -7 -8 0 -35 -7 -60 -16 -25 -9 -72 -26 -105 -38
-33 -13 -69 -26 -80 -31 -47 -20 -142 -48 -187 -55 -41 -7 -100 55 -116 120
-17 69 -23 97 -26 115 -1 8 -8 32 -15 53 -14 42 -6 77 29 127 12 17 19 30 15
30 -3 0 11 16 31 35 19 19 40 35 45 35 6 0 8 4 5 9 -3 5 1 12 10 15 8 3 12 11
9 16 -4 6 -2 9 2 8 5 -2 24 13 42 32 19 19 30 28 25 20 -7 -14 33 19 59 48 13
14 18 19 77 75 22 20 37 37 34 37 -3 0 9 14 27 32 19 17 33 35 32 40 -2 4 1 8
5 8 5 0 18 8 30 18 54 46 62 51 62 44 0 -4 5 0 10 8 5 8 14 15 19 15 5 0 20 9
33 20 13 11 38 27 56 34 17 7 32 18 32 23 0 5 4 7 9 4 5 -4 11 -3 13 2 1 4 20
18 41 31 20 12 37 27 37 32 0 6 5 7 10 4 6 -3 13 1 16 9 3 9 10 14 14 11 5 -3
20 6 34 20 14 14 30 25 36 25 10 0 78 46 90 61 3 4 40 29 82 57 42 27 74 52
71 56 -6 6 12 10 30 7 4 0 7 3 7 8 0 10 67 54 85 57 20 3 151 88 185 121 20
18 42 33 50 33 25 1 84 62 104 107 15 33 17 56 13 100 -3 32 -11 59 -17 61 -5
2 -10 8 -10 14 0 11 -30 43 -30 31 0 -4 -4 -3 -8 3 -12 19 -75 25 -104 10z
m-3133 -1192 c22 -3 49 -7 60 -9 11 -1 47 -11 80 -21 82 -24 151 -38 260 -49
136 -15 178 -23 186 -36 3 -6 9 -10 13 -10 20 3 26 0 21 -9 -4 -6 -3 -9 2 -8
14 4 53 -13 53 -23 0 -5 3 -8 8 -7 9 3 60 -30 97 -64 17 -15 33 -28 37 -28 9
0 50 -33 92 -75 17 -16 34 -29 38 -28 4 2 8 -1 8 -6 0 -5 9 -12 20 -16 11 -3
19 -9 17 -13 -3 -10 76 -87 86 -84 7 2 11 -13 8 -30 0 -5 3 -8 7 -8 5 0 17
-19 27 -42 10 -24 25 -48 33 -54 8 -6 13 -15 10 -20 -7 -11 17 -35 26 -27 3 4
6 1 6 -6 0 -12 12 -28 67 -87 12 -13 19 -24 15 -24 -3 0 4 -7 16 -16 12 -8 22
-19 22 -23 0 -5 7 -26 16 -47 9 -22 16 -41 16 -44 0 -3 4 -12 9 -22 5 -9 11
-40 15 -70 10 -94 24 -165 45 -225 13 -38 23 -104 28 -193 5 -74 14 -148 20
-163 10 -26 9 -137 -4 -262 -2 -27 -7 -97 -11 -155 -3 -57 -7 -107 -9 -111 -2
-3 -7 -19 -9 -35 -3 -16 -9 -40 -12 -54 -3 -14 -12 -62 -19 -107 -7 -45 -17
-92 -21 -105 -4 -13 -9 -32 -10 -43 -2 -11 -19 -78 -38 -150 -18 -71 -36 -141
-40 -155 -3 -14 -16 -41 -28 -60 -12 -19 -22 -39 -23 -45 0 -5 -6 -9 -13 -7
-7 1 -11 -2 -10 -6 3 -7 -50 -64 -65 -70 -4 -1 -24 -13 -44 -25 -21 -12 -41
-21 -45 -19 -5 1 -8 -2 -8 -7 0 -7 -15 -12 -78 -27 -8 -1 -21 -6 -30 -10 -9
-4 -21 -8 -27 -9 -5 -2 -38 -10 -73 -19 -34 -9 -84 -21 -110 -27 -85 -17 -96
-20 -187 -44 -49 -13 -110 -26 -135 -30 -25 -3 -59 -8 -77 -11 -17 -2 -62 -11
-100 -20 -37 -8 -151 -19 -253 -24 -102 -5 -196 -12 -210 -16 -83 -21 -465
-25 -760 -6 -228 15 -352 20 -625 27 -110 2 -213 7 -230 9 -16 2 -66 5 -110 7
-106 3 -235 31 -235 51 0 4 -4 7 -9 5 -11 -3 -73 63 -100 107 -23 37 -25 44
-41 146 -6 36 -13 76 -15 90 -3 14 -7 45 -10 70 -3 25 -8 56 -11 70 -9 39 -15
72 -19 105 -2 16 -6 55 -10 85 -4 30 -11 71 -17 90 -5 19 -12 51 -14 70 -3 19
-9 58 -14 85 -6 28 -13 75 -16 105 -3 30 -9 73 -14 95 -4 22 -8 47 -8 55 0 38
-14 169 -22 210 -5 25 -12 70 -15 100 -3 30 -10 82 -14 115 -13 90 -13 326 -1
440 10 87 30 187 47 235 5 13 10 38 15 78 1 6 5 12 10 12 4 0 8 7 8 15 0 15
40 119 82 215 14 30 26 60 27 65 1 6 15 24 32 41 16 17 26 35 22 40 -5 5 -4 6
1 2 9 -7 21 1 69 47 17 17 32 29 34 28 6 -5 98 39 105 50 4 7 8 8 8 4 0 -5 12
0 28 10 46 32 149 83 166 83 9 0 16 4 16 8 0 8 53 30 91 37 13 3 26 10 30 16
4 6 11 9 17 5 6 -3 18 1 26 10 9 8 16 13 16 9 0 -3 6 -3 13 2 6 4 17 8 22 9
12 2 34 7 135 28 41 8 113 18 160 21 109 7 166 13 248 25 37 5 256 10 487 11
231 1 447 4 480 8 33 4 69 5 80 4 11 -2 38 -6 60 -9z"/>
<path d="M14831 8424 c-43 -13 -94 -48 -84 -58 3 -3 1 -6 -6 -6 -12 0 -30 -16
-171 -152 -38 -38 -72 -68 -76 -68 -3 0 -23 -17 -43 -37 -20 -21 -41 -39 -46
-40 -6 -2 -10 -6 -10 -10 0 -5 -10 -22 -22 -38 -42 -59 -35 -126 19 -186 33
-36 128 -106 128 -94 0 4 7 -1 16 -9 8 -9 22 -16 30 -16 8 0 14 -4 14 -10 0
-5 5 -10 10 -10 6 0 19 -8 29 -17 11 -10 26 -23 33 -29 7 -6 19 -21 27 -32 8
-12 18 -19 23 -16 4 3 8 0 8 -5 0 -15 37 -51 53 -51 8 0 7 -4 -3 -10 -12 -8
-11 -10 7 -10 16 0 21 -4 17 -15 -4 -8 -2 -15 2 -15 5 0 22 -11 38 -25 16 -14
26 -25 23 -25 -3 0 20 -26 51 -58 31 -32 60 -56 65 -54 4 2 7 -2 7 -8 0 -15
26 -41 34 -33 3 4 6 2 6 -3 0 -6 27 -39 60 -74 33 -35 60 -68 60 -73 0 -4 4
-6 9 -3 5 3 12 -6 15 -19 4 -14 11 -23 17 -19 6 3 13 -3 16 -15 3 -12 9 -21
13 -21 4 0 17 -9 30 -20 13 -11 20 -20 17 -20 -3 0 10 -16 29 -36 19 -20 34
-41 34 -45 0 -5 7 -9 16 -9 8 0 12 -4 9 -10 -3 -5 -2 -10 4 -10 5 0 13 -9 16
-20 3 -11 11 -20 16 -20 10 0 59 -45 59 -53 0 -3 23 -28 51 -56 28 -28 48 -51
45 -51 -3 0 8 -14 24 -30 17 -17 30 -35 30 -41 0 -5 22 -32 49 -59 27 -28 47
-50 43 -50 -3 0 3 -7 14 -15 10 -8 15 -15 10 -15 -5 0 4 -12 20 -28 30 -28 34
-35 34 -52 0 -5 7 -10 15 -10 8 0 15 -5 15 -12 0 -6 7 -18 15 -27 22 -23 65
-90 76 -118 5 -13 13 -23 18 -23 5 0 12 -11 15 -25 4 -14 23 -61 44 -104 20
-43 38 -84 40 -91 1 -6 9 -19 18 -27 25 -25 68 -139 99 -263 9 -36 29 -80 36
-80 6 0 8 -4 5 -8 -5 -8 25 -40 66 -71 23 -17 64 -25 123 -25 67 1 81 6 114
37 16 14 34 27 42 29 8 2 16 6 19 10 3 3 12 8 20 10 8 2 23 12 33 22 9 10 17
16 17 13 0 -4 9 2 20 13 12 12 26 18 33 14 7 -4 9 -4 5 1 -8 8 17 31 37 34 6
1 15 12 22 24 6 12 13 21 15 19 6 -6 38 10 34 17 -2 3 13 19 35 35 21 17 41
38 45 48 3 10 10 18 15 18 6 0 7 5 4 10 -3 6 0 10 7 10 7 0 24 18 38 39 13 22
27 38 30 36 19 -12 18 185 -1 222 -17 34 -74 93 -89 93 -6 0 -8 5 -5 10 3 6 2
10 -3 10 -5 0 -30 20 -56 45 -26 24 -50 45 -54 46 -12 3 -57 33 -63 42 -3 5
-10 9 -15 10 -5 1 -8 5 -6 10 1 4 -5 7 -13 7 -9 0 -18 7 -21 15 -4 8 -12 15
-19 15 -6 0 -24 11 -38 24 -15 14 -36 27 -47 31 -11 3 -20 13 -20 21 0 8 -7
14 -15 14 -8 0 -15 5 -15 11 0 5 -4 7 -10 4 -5 -3 -10 -1 -10 6 0 7 -3 10 -6
6 -3 -3 -24 12 -47 33 -22 22 -45 36 -50 33 -6 -3 -8 -2 -5 3 6 11 -28 45 -36
36 -3 -3 -6 2 -6 11 0 8 -9 19 -20 22 -11 3 -20 13 -20 21 0 8 -5 14 -10 14
-6 0 -22 11 -36 25 -14 14 -22 25 -19 25 8 0 -52 59 -89 88 -16 12 -25 22 -20
22 5 0 -4 11 -20 25 -16 14 -34 25 -39 25 -6 0 -8 3 -5 6 9 8 -65 82 -76 76
-5 -3 -6 -1 -3 5 4 6 -5 21 -18 33 -14 13 -25 28 -25 33 0 10 -61 90 -72 95
-5 2 -8 8 -8 14 0 10 -67 97 -85 110 -5 4 -6 8 -1 8 5 0 -5 14 -23 30 -17 17
-31 34 -31 39 0 5 -4 11 -9 13 -5 2 -11 9 -13 16 -2 8 -20 32 -41 55 -20 23
-40 50 -43 60 -3 9 -9 17 -13 17 -8 0 -121 162 -121 174 0 3 -14 20 -30 38
-17 17 -33 42 -36 55 -4 13 -10 23 -15 23 -5 0 -9 7 -9 15 0 8 -3 15 -7 15 -5
0 -19 17 -33 38 -14 20 -29 40 -35 44 -5 4 -6 8 -2 8 4 0 3 6 -3 13 -6 6 -26
30 -45 51 -19 22 -32 43 -29 47 2 4 -5 10 -16 14 -11 3 -20 13 -20 21 0 8 -7
17 -15 20 -8 4 -15 12 -15 20 0 7 -6 17 -13 21 -7 4 -21 25 -31 46 -9 20 -22
37 -27 37 -6 0 -9 5 -7 12 6 17 -95 112 -106 101 -3 -4 -6 -2 -6 3 0 13 -32
12 -79 -2z"/>
<path d="M5690 8127 c-3 -2 -30 -7 -60 -11 -180 -20 -290 -45 -290 -66 0 -6
-4 -9 -9 -5 -6 3 -14 -3 -20 -12 -6 -10 -11 -15 -11 -10 0 4 -14 -5 -31 -20
-17 -16 -37 -26 -43 -25 -6 2 -8 0 -4 -3 4 -4 -7 -22 -25 -40 -18 -18 -39 -43
-47 -55 -8 -12 -22 -32 -31 -44 -26 -34 -49 -83 -42 -90 4 -3 2 -6 -4 -6 -18
0 -62 -96 -79 -171 -15 -69 -17 -90 -18 -159 -1 -120 22 -304 46 -380 14 -42
14 -239 0 -300 -18 -80 -21 -90 -26 -98 -3 -5 -8 -23 -11 -41 -3 -18 -12 -40
-20 -48 -9 -8 -13 -18 -10 -23 3 -5 1 -11 -5 -15 -6 -4 -8 -11 -5 -16 4 -5 2
-9 -3 -9 -5 0 -9 -6 -9 -14 0 -20 -54 -127 -78 -153 -11 -12 -29 -34 -40 -48
-31 -40 -116 -130 -121 -128 -8 5 -40 -11 -51 -26 -7 -9 -13 -12 -13 -7 0 5
-10 -2 -22 -15 -13 -13 -36 -30 -51 -36 -28 -13 -42 -23 -80 -58 -12 -11 -25
-19 -29 -17 -5 1 -8 -2 -8 -7 0 -16 -70 -33 -108 -26 -40 7 -108 40 -130 61
-7 8 -17 14 -22 14 -5 0 -20 11 -33 24 -14 14 -27 23 -30 20 -2 -3 -12 7 -21
21 -9 14 -23 25 -31 25 -8 0 -15 5 -15 10 0 6 -11 22 -25 36 -30 30 -57 79
-48 88 4 3 2 6 -4 6 -8 0 -32 39 -39 63 -1 4 -3 9 -4 12 -1 3 -3 8 -5 13 -1 4
-5 15 -9 24 -4 10 -5 61 -2 115 6 117 7 123 18 123 4 0 8 6 8 13 0 17 62 87
77 87 6 0 13 4 15 9 2 5 10 11 18 13 8 2 18 7 22 12 10 15 138 21 138 7 0 -7
4 -10 9 -7 5 3 20 -3 33 -14 14 -11 28 -17 32 -15 3 3 4 3 2 -1 -2 -3 15 -25
38 -49 48 -51 60 -67 63 -82 4 -20 52 -62 94 -84 30 -15 49 -18 72 -13 18 4
35 7 40 6 4 -1 7 3 7 9 0 5 5 7 10 4 6 -3 10 1 10 10 0 9 4 14 10 10 8 -5 41
45 40 60 0 3 7 19 16 37 11 21 15 46 11 74 -5 44 -39 126 -65 157 -8 9 -11 17
-7 17 4 0 -2 8 -13 19 -12 10 -22 23 -22 29 0 6 -16 27 -35 46 -19 20 -35 34
-35 30 0 -3 -7 1 -15 8 -8 7 -21 18 -28 25 -18 15 -95 54 -116 58 -9 2 -41 11
-71 20 -85 24 -228 18 -315 -12 -38 -14 -76 -25 -82 -26 -7 0 -13 -5 -13 -10
0 -6 -3 -7 -7 -4 -3 4 -15 0 -25 -10 -10 -9 -18 -12 -18 -8 0 5 -12 -2 -27
-16 -14 -13 -23 -17 -19 -9 4 8 0 6 -9 -5 -9 -11 -21 -19 -26 -17 -5 1 -9 -3
-9 -10 0 -6 -3 -9 -6 -5 -8 8 -44 -25 -38 -35 3 -4 0 -8 -6 -8 -7 0 -35 -24
-63 -54 -64 -66 -78 -84 -97 -121 -8 -17 -21 -36 -27 -43 -7 -7 -13 -20 -13
-28 0 -8 -4 -14 -9 -14 -5 0 -15 -17 -21 -37 -6 -21 -18 -52 -26 -69 -40 -91
-48 -402 -14 -554 12 -52 23 -106 25 -119 2 -13 7 -27 12 -30 4 -3 9 -15 11
-26 3 -21 5 -27 42 -110 12 -27 21 -50 20 -50 -2 0 3 -11 10 -25 8 -14 14 -29
15 -33 0 -4 7 -12 15 -17 8 -5 11 -10 6 -10 -5 0 1 -8 12 -19 12 -10 22 -21
22 -25 0 -14 132 -136 170 -156 21 -11 50 -33 75 -57 8 -7 17 -13 22 -13 5 0
15 -9 23 -20 8 -11 20 -20 27 -20 7 0 13 -4 13 -10 0 -5 7 -10 15 -10 8 0 15
-5 15 -11 0 -5 4 -8 9 -5 5 3 11 -1 15 -9 3 -8 15 -15 26 -15 11 0 20 -4 20
-10 0 -5 8 -10 18 -10 10 0 26 -6 37 -13 11 -7 47 -21 80 -31 33 -10 69 -22
80 -26 25 -10 72 -22 105 -25 14 -2 41 -7 60 -11 65 -16 196 -6 260 20 32 13
61 21 64 18 3 -3 6 0 6 7 0 7 4 10 9 6 5 -3 12 -1 16 5 4 6 10 8 15 5 4 -3 13
2 20 10 7 8 16 15 21 15 18 0 112 64 156 106 25 24 50 44 55 44 5 0 6 5 3 10
-3 6 -1 10 4 10 14 0 57 43 53 53 -1 4 5 7 13 7 8 0 15 4 15 10 0 5 21 31 47
57 26 27 46 50 45 53 0 3 10 17 24 33 13 15 21 27 17 27 -5 0 0 5 10 11 9 6
15 14 12 20 -4 5 -1 9 4 9 6 0 11 7 11 15 0 8 5 15 10 15 6 0 10 9 10 19 0 11
5 23 10 26 6 4 8 11 5 16 -4 5 -1 9 4 9 6 0 11 7 11 15 0 8 6 29 14 47 24 56
30 74 39 118 3 14 14 51 25 82 11 31 17 59 14 62 -3 3 0 6 6 6 7 0 11 3 10 8
-1 4 3 17 9 28 7 12 15 36 18 54 3 18 8 37 10 40 13 21 17 110 19 365 0 154 5
286 9 292 5 7 10 31 13 53 3 23 9 52 14 66 6 14 10 36 10 49 0 13 5 36 11 52
6 15 10 29 9 31 0 1 10 22 24 46 27 49 54 80 172 200 73 75 87 84 140 97 88
22 149 9 194 -41 67 -74 60 -54 81 -222 10 -83 9 -113 -3 -175 -4 -17 -98
-116 -113 -119 -133 -24 -175 -37 -175 -54 0 -6 -3 -9 -7 -7 -9 4 -79 -65 -75
-73 1 -3 -1 -13 -4 -22 -6 -21 30 -108 45 -108 6 0 11 -6 11 -14 0 -20 61 -46
107 -46 41 1 137 30 156 49 6 6 17 11 24 11 7 0 13 4 13 9 0 7 24 17 60 24 3
0 11 7 18 14 8 7 18 11 23 8 5 -4 9 -2 9 3 0 6 15 13 34 16 19 4 39 13 46 21
7 8 16 12 21 10 4 -3 17 5 28 17 12 12 21 18 21 13 0 -4 8 2 19 13 10 12 22
22 25 22 4 0 14 7 23 15 8 8 18 13 23 10 5 -3 11 4 15 15 4 11 11 18 16 15 5
-4 9 -2 9 2 0 9 34 55 63 85 9 10 17 20 17 23 -2 16 41 95 50 95 6 0 9 4 5 9
-3 5 0 13 5 16 13 8 12 192 -2 218 -5 9 -11 45 -14 80 -9 101 -12 120 -24 127
-7 4 -11 11 -10 16 0 5 -2 18 -6 29 -3 11 -7 22 -8 25 -11 39 -67 162 -77 170
-11 9 -33 55 -31 63 1 5 -1 6 -6 3 -4 -2 -19 13 -32 35 -14 21 -28 39 -33 39
-4 0 -6 4 -2 9 3 5 -4 16 -15 24 -11 7 -17 17 -13 20 3 4 1 7 -5 7 -6 0 -27
15 -46 34 -19 19 -37 32 -40 29 -3 -4 -6 2 -6 11 0 10 -5 16 -12 14 -6 -2 -19
3 -28 11 -21 20 -58 46 -68 47 -4 0 -14 3 -22 7 -78 31 -137 40 -315 44 -104
3 -192 3 -195 0z"/>
<path d="M13769 7715 c-8 -7 -29 -11 -100 -20 -30 -3 -69 -10 -86 -15 -18 -5
-33 -6 -33 -4 0 3 -10 -1 -22 -8 -13 -7 -25 -13 -28 -14 -29 -8 -70 -28 -70
-34 0 -4 -10 -11 -22 -15 -13 -4 -25 -9 -28 -10 -3 -1 -15 -6 -27 -10 -13 -4
-23 -12 -23 -18 0 -6 -3 -7 -6 -4 -4 4 -21 -4 -38 -16 -17 -12 -33 -21 -36
-20 -10 3 -100 -40 -100 -48 0 -5 -9 -9 -21 -9 -11 0 -17 -4 -14 -10 3 -5 1
-10 -4 -10 -15 0 -91 -77 -83 -84 3 -4 -4 -13 -16 -22 -12 -8 -20 -20 -17 -25
4 -5 1 -9 -4 -9 -6 0 -10 -3 -9 -7 1 -5 -3 -26 -9 -48 -6 -22 -14 -71 -17
-110 -12 -138 -18 -191 -26 -245 -11 -69 -2 -317 15 -416 5 -29 45 -118 45
-100 0 5 9 -1 20 -14 11 -13 20 -27 20 -32 0 -4 7 -8 16 -8 8 0 13 -4 9 -9 -3
-5 3 -12 14 -16 10 -3 21 -15 24 -26 3 -12 9 -19 14 -17 4 2 22 -11 40 -29 17
-18 29 -33 26 -33 -2 0 2 -7 11 -15 8 -8 20 -15 26 -15 6 0 9 -4 5 -9 -3 -5 4
-12 15 -16 11 -3 20 -13 20 -21 0 -8 5 -14 11 -14 6 0 24 -13 41 -30 16 -16
34 -30 40 -30 6 0 8 -3 5 -7 -8 -7 63 -59 76 -55 4 1 7 -2 7 -7 0 -7 13 -14
50 -25 3 -1 10 -5 16 -8 6 -4 36 -10 65 -13 96 -11 128 -17 147 -28 6 -5 12
-6 12 -2 0 3 8 1 18 -4 19 -10 78 -18 202 -26 47 -3 114 -10 150 -14 36 -5
109 -9 162 -10 95 -2 108 -3 173 -17 45 -9 144 -86 145 -111 0 -7 4 -13 9 -13
5 0 14 -13 21 -30 7 -16 16 -30 21 -30 5 0 9 -5 9 -11 0 -5 8 -29 19 -52 27
-62 34 -80 38 -101 2 -11 7 -24 12 -30 15 -19 9 -109 -9 -158 -10 -26 -15 -49
-12 -52 3 -4 1 -6 -5 -6 -14 0 -72 -57 -65 -64 3 -3 -2 -6 -10 -6 -9 0 -18 -5
-20 -11 -11 -33 -168 -28 -202 7 -8 8 -20 14 -26 14 -6 0 -30 19 -53 43 -22
23 -37 36 -32 28 5 -10 4 -12 -3 -7 -7 4 -12 14 -12 22 0 8 -4 14 -10 14 -5 0
-10 7 -10 15 0 8 -4 15 -10 15 -5 0 -10 5 -10 11 0 5 -9 29 -20 53 -10 23 -21
54 -24 67 -3 13 -7 33 -10 44 -3 11 -9 36 -14 55 -5 20 -15 47 -23 60 -7 14
-13 28 -14 31 -1 19 -86 98 -115 107 -53 16 -68 12 -100 -25 -17 -19 -30 -30
-30 -26 -2 28 -30 -68 -37 -124 -10 -86 -10 -286 1 -338 10 -53 14 -70 16 -72
3 -3 3 -4 14 -53 5 -19 15 -43 24 -52 8 -10 12 -18 7 -18 -4 0 -2 -6 4 -14 7
-8 14 -25 16 -37 3 -13 9 -25 15 -27 6 -2 8 -8 4 -13 -3 -5 0 -9 7 -9 7 0 9
-3 6 -7 -4 -3 11 -23 33 -44 22 -21 40 -42 40 -46 0 -11 37 -43 50 -43 6 0 10
-4 10 -10 0 -5 8 -10 18 -10 9 0 23 -9 30 -20 7 -11 19 -20 27 -20 8 0 15 -4
15 -10 0 -5 6 -10 14 -10 7 0 24 -10 38 -22 47 -43 68 -58 78 -58 6 0 10 -4
10 -10 0 -5 9 -10 19 -10 11 0 21 -4 23 -9 2 -5 10 -11 18 -13 8 -2 23 -11 33
-20 47 -41 307 -64 425 -37 20 4 48 10 62 12 38 7 114 28 125 35 6 4 15 8 20
9 37 9 85 29 85 35 0 5 7 8 15 8 8 0 15 5 15 12 0 6 3 8 6 5 4 -3 18 3 32 13
13 11 30 20 37 20 7 0 16 7 19 16 3 8 10 13 15 9 5 -3 16 4 24 15 7 11 16 18
18 16 3 -3 24 13 48 35 25 21 51 39 58 39 8 0 11 5 8 10 -3 6 1 10 10 10 9 0
14 4 11 8 -3 5 4 15 15 22 10 8 19 20 19 27 0 7 5 13 11 13 5 0 7 5 4 10 -3 6
-1 10 5 10 6 0 8 5 5 10 -3 6 -1 10 4 10 6 0 10 3 9 8 -1 4 6 22 15 39 10 18
18 36 18 40 1 5 6 19 12 33 6 14 11 27 12 30 0 3 8 21 17 40 25 54 29 71 36
130 13 105 6 271 -13 350 -3 14 -8 36 -11 49 -3 13 -9 31 -13 40 -5 9 -10 19
-10 23 -3 16 -36 83 -44 86 -4 2 -5 8 -1 13 3 5 1 9 -5 9 -6 0 -18 16 -27 35
-9 19 -21 35 -26 35 -5 0 -7 4 -3 9 3 6 -4 15 -16 21 -11 7 -18 14 -15 17 3 3
-6 14 -19 25 -14 11 -22 25 -18 31 3 7 3 9 -1 5 -5 -4 -21 7 -37 25 -16 17
-29 28 -29 24 0 -4 -13 7 -29 23 -15 17 -31 30 -35 30 -4 0 -16 9 -28 20 -12
10 -24 17 -28 15 -4 -3 -13 2 -20 10 -7 8 -16 15 -21 15 -5 0 -62 25 -126 57
-65 31 -121 55 -125 55 -5 -1 -8 2 -8 8 0 6 -3 9 -7 8 -8 -1 -34 8 -68 23 -20
10 -60 20 -82 21 -7 1 -13 6 -13 11 0 6 -3 8 -6 5 -3 -4 -17 0 -31 7 -15 8
-30 12 -35 9 -4 -3 -8 -1 -8 4 0 5 -6 9 -12 10 -15 1 -52 10 -55 12 -2 2 -6 3
-10 5 -5 1 -15 4 -23 8 -29 11 -158 48 -186 53 -16 3 -33 9 -38 15 -6 5 -18 9
-28 9 -10 0 -18 3 -18 8 0 4 -20 15 -45 25 -25 11 -45 23 -45 29 0 5 -4 7 -9
4 -5 -3 -20 3 -33 14 -14 11 -28 17 -30 14 -3 -2 -11 2 -18 11 -7 8 -18 15
-25 15 -8 0 -34 9 -59 20 -26 11 -49 19 -53 19 -3 0 -9 3 -12 8 -3 4 -26 19
-51 32 -25 13 -52 30 -61 38 -9 7 -19 10 -22 6 -4 -3 -7 -1 -7 5 0 6 -9 14
-20 17 -11 4 -18 11 -15 16 4 5 -1 12 -9 15 -8 3 -18 14 -21 25 -4 10 -13 19
-21 19 -8 0 -12 5 -9 10 3 6 2 10 -3 10 -8 0 -34 49 -38 73 -1 4 -3 9 -4 12
-1 3 -3 8 -4 13 -1 4 -5 13 -10 21 -7 11 -6 12 5 6 12 -7 12 -6 1 7 -25 30
-16 129 18 204 11 24 20 48 20 55 0 7 3 10 6 7 3 -3 21 10 40 30 19 19 34 31
34 27 0 -4 9 2 20 15 11 13 20 20 20 15 0 -4 6 -2 14 4 20 16 137 12 201 -7
28 -8 55 -15 62 -15 7 0 14 -6 17 -14 3 -7 11 -13 18 -13 17 -1 58 -35 58 -49
0 -6 7 -11 15 -11 8 0 15 -4 15 -9 0 -5 6 -16 13 -23 30 -33 64 -90 73 -123 1
-5 10 -28 20 -50 10 -22 19 -49 21 -60 24 -154 25 -158 58 -191 18 -18 36 -30
39 -27 3 4 6 1 6 -5 0 -20 75 -14 100 8 13 11 27 20 32 20 5 0 6 5 3 10 -3 6
-2 10 3 10 6 0 17 19 26 42 13 32 16 59 11 117 -7 94 -14 164 -21 214 -8 59
-52 177 -66 177 -5 0 -8 7 -8 15 0 8 -5 15 -11 15 -5 0 -7 5 -4 10 3 6 -1 10
-10 10 -9 0 -13 5 -10 10 3 6 0 10 -8 10 -7 0 -20 11 -27 25 -7 14 -17 25 -22
25 -5 0 -20 11 -33 25 -14 13 -25 22 -25 20 0 -3 -16 12 -36 32 -20 21 -34 31
-30 23 4 -8 -1 -5 -12 7 -11 12 -22 19 -26 16 -3 -4 -6 -1 -6 6 0 7 -4 9 -10
6 -5 -3 -10 -2 -10 3 0 9 -37 25 -52 23 -5 -1 -8 4 -8 11 0 6 -3 8 -6 5 -4 -3
-14 -2 -23 2 -9 5 -34 12 -55 15 -63 10 -168 33 -196 43 -35 13 -134 26 -141
18z"/>
<path d="M7110 7413 c-92 -11 -110 -15 -106 -21 5 -9 -20 -32 -28 -25 -8 9
-26 -44 -26 -78 0 -32 13 -60 47 -98 12 -13 20 -28 17 -33 -3 -4 0 -8 5 -8 17
0 13 -86 -6 -125 -9 -19 -20 -35 -24 -35 -4 0 -13 -17 -20 -37 -6 -21 -17 -41
-22 -45 -6 -3 -12 -15 -13 -25 -2 -9 -8 -19 -14 -21 -5 -2 -8 -7 -5 -12 3 -5
-2 -15 -10 -23 -8 -9 -16 -24 -18 -34 -2 -10 -11 -33 -20 -50 -10 -18 -15 -33
-12 -33 5 0 -15 -58 -40 -115 -8 -16 -15 -37 -17 -45 -2 -8 -5 -17 -8 -20 -13
-13 -40 -70 -33 -70 4 0 1 -5 -7 -10 -8 -5 -15 -13 -15 -17 -1 -15 -67 -113
-76 -113 -5 0 -9 -6 -9 -12 0 -7 -16 -30 -35 -50 -18 -21 -32 -38 -30 -38 2 0
-14 -33 -34 -72 -21 -40 -41 -86 -46 -103 -5 -16 -9 -33 -10 -37 -2 -5 -3 -9
-5 -10 -3 -4 -9 -29 -16 -68 -3 -19 -11 -38 -17 -42 -7 -4 -9 -8 -5 -8 4 0 0
-19 -8 -42 -9 -24 -17 -52 -20 -62 -2 -11 -7 -22 -11 -25 -8 -6 -15 -27 -16
-48 0 -7 -3 -13 -7 -13 -8 0 -34 -52 -32 -63 1 -4 -5 -15 -13 -24 -9 -8 -14
-21 -11 -29 3 -7 -2 -18 -9 -24 -8 -7 -13 -16 -10 -20 3 -4 -1 -10 -9 -13 -7
-3 -16 -19 -19 -35 -3 -16 -13 -37 -22 -46 -9 -9 -14 -16 -11 -16 4 0 -3 -18
-14 -40 -11 -22 -17 -40 -13 -40 5 0 2 -4 -6 -9 -8 -5 -16 -20 -18 -33 -2 -13
-8 -25 -13 -26 -6 -2 -8 -7 -5 -12 3 -5 -2 -16 -11 -24 -8 -9 -12 -16 -9 -16
4 0 0 -11 -9 -25 -9 -14 -13 -25 -9 -25 5 0 4 -4 -2 -8 -5 -4 -21 -27 -34 -52
-14 -25 -30 -49 -38 -53 -7 -4 -13 -13 -13 -19 0 -6 -11 -21 -25 -34 -14 -13
-25 -25 -25 -28 0 -3 -11 -17 -25 -32 -14 -15 -25 -33 -25 -40 0 -8 -4 -14
-10 -14 -5 0 -10 -7 -10 -15 0 -8 -5 -15 -11 -15 -5 0 -7 -4 -4 -10 3 -5 1
-10 -4 -10 -6 0 -10 -3 -9 -7 1 -5 -4 -21 -10 -36 -7 -16 -12 -34 -12 -41 0
-8 -7 -19 -15 -26 -8 -7 -15 -18 -15 -25 0 -7 -14 -41 -31 -76 -19 -37 -33
-82 -34 -108 -2 -43 13 -91 28 -91 4 0 7 -6 7 -14 0 -8 9 -17 19 -21 11 -3 23
-15 27 -27 5 -16 8 -18 15 -7 7 12 9 12 9 0 0 -11 45 -55 60 -57 27 -4 60 -18
60 -25 0 -5 9 -9 20 -9 11 0 20 -5 20 -11 0 -5 4 -8 9 -4 5 3 16 -2 24 -10 9
-8 20 -15 26 -15 6 0 11 -5 11 -10 0 -6 3 -9 8 -9 18 3 33 -2 28 -9 -3 -5 7
-15 22 -23 15 -8 33 -20 40 -26 13 -13 69 -30 112 -34 27 -3 100 21 100 32 0
4 9 11 20 14 11 4 18 10 15 15 -3 4 5 10 17 13 12 4 19 9 15 13 -4 4 3 15 15
25 11 11 18 19 14 19 -5 0 1 15 11 33 22 36 32 71 39 132 3 22 9 44 14 50 8
10 40 122 46 160 1 11 3 21 4 23 3 2 3 2 15 47 4 17 10 35 14 40 3 6 6 12 7
15 0 3 6 18 12 33 7 16 17 48 23 73 6 24 15 44 19 44 3 0 7 6 7 13 2 24 46
137 54 137 5 0 6 7 3 15 -4 8 -1 15 5 15 6 0 10 3 9 8 -2 9 6 30 42 109 16 34
26 64 22 67 -3 3 -1 6 5 6 10 0 63 97 63 114 0 12 27 35 34 29 3 -4 6 -1 6 5
0 6 14 24 31 41 29 29 47 35 94 32 35 -3 45 -6 115 -30 19 -7 44 -14 55 -16
11 -1 20 -3 20 -4 0 -3 6 -4 85 -20 30 -5 66 -13 80 -16 88 -21 202 -25 384
-12 161 11 232 37 314 114 29 27 52 55 52 62 0 7 5 9 10 6 6 -3 10 2 10 11 0
10 3 14 7 11 7 -7 39 33 36 45 -2 4 6 10 17 13 11 4 18 11 15 16 -4 5 -1 9 6
9 7 0 9 3 6 7 -4 3 5 17 19 30 14 12 23 27 19 32 -3 5 4 12 15 16 11 3 19 9
18 13 -2 13 16 47 31 59 9 7 12 13 7 13 -4 0 -2 10 7 23 14 21 36 112 35 147
0 39 13 114 28 160 17 53 15 128 -6 200 -19 68 -116 260 -148 295 -13 14 -19
25 -15 25 4 0 -2 10 -15 23 -23 23 -75 80 -132 146 -19 22 -41 41 -47 41 -7 0
-13 7 -13 17 0 9 -3 14 -6 10 -3 -3 -14 2 -24 11 -36 33 -49 42 -60 42 -5 0
-10 4 -10 8 0 5 -16 14 -35 22 -19 8 -35 17 -35 22 0 4 -9 8 -20 8 -11 0 -20
4 -20 8 0 4 -12 13 -27 19 -27 12 -63 33 -73 43 -3 3 -18 12 -35 20 -16 8 -32
17 -35 20 -3 3 -26 16 -52 30 -27 13 -48 27 -48 30 0 4 -16 12 -35 20 -19 8
-35 18 -35 22 0 5 -4 7 -9 4 -4 -3 -19 3 -32 14 -12 11 -27 19 -33 17 -6 -2
-17 2 -24 10 -8 7 -18 11 -23 8 -5 -4 -9 -1 -9 4 0 6 -7 11 -15 11 -8 0 -30 9
-50 20 -19 11 -35 17 -35 14 0 -4 -7 -1 -15 6 -8 7 -15 10 -15 6 0 -4 -10 0
-23 9 -13 8 -26 12 -29 9 -4 -3 -15 -1 -26 5 -21 11 -92 19 -132 14z m647
-664 c71 -39 108 -63 115 -73 4 -6 8 -8 8 -3 0 4 8 -1 18 -10 10 -10 34 -31
53 -48 35 -30 82 -94 109 -150 8 -16 19 -33 25 -37 5 -4 6 -8 2 -8 -4 0 -3 -9
3 -19 14 -27 19 -169 8 -206 -5 -16 -11 -41 -12 -55 -4 -37 -31 -82 -76 -127
-25 -26 -100 -63 -126 -63 -8 0 -14 -4 -14 -9 0 -11 -245 -7 -318 4 -54 9 -77
13 -77 15 0 1 -13 4 -29 6 -16 3 -42 12 -57 20 -27 14 -84 64 -72 64 3 0 1 6
-6 13 -12 15 -12 87 1 87 4 0 7 3 7 8 -1 4 0 9 1 12 1 3 3 12 5 20 8 35 36 90
47 90 6 0 8 3 5 6 -3 4 -1 16 5 28 7 11 13 24 14 29 1 4 3 10 4 15 1 4 2 10 1
15 0 4 6 7 14 7 8 0 14 3 13 8 -1 4 13 39 32 77 18 39 33 76 33 83 0 6 4 12 9
12 4 0 8 7 8 15 0 9 7 18 15 21 8 4 12 10 9 16 -3 5 2 18 12 29 9 10 14 19 11
19 -6 0 0 8 46 62 9 12 17 25 17 30 0 5 4 7 8 4 4 -2 14 -1 22 5 25 15 67 10
107 -12z"/>
<path d="M12465 7213 c-44 -10 -108 -34 -148 -55 -23 -12 -44 -23 -47 -23 -3
-1 -34 -15 -70 -32 -36 -16 -92 -41 -124 -54 -64 -26 -144 -96 -172 -150 -13
-27 -15 -48 -8 -133 10 -117 10 -189 -1 -231 -4 -16 -8 -36 -8 -42 0 -7 -4
-13 -9 -13 -4 0 -8 -9 -8 -19 0 -11 -4 -22 -9 -25 -9 -6 -37 -96 -33 -108 1
-5 -3 -8 -8 -8 -6 0 -10 -5 -10 -10 0 -6 -13 -24 -30 -41 -16 -18 -27 -35 -24
-40 3 -5 -1 -9 -8 -9 -14 0 -44 -40 -40 -53 1 -5 -1 -7 -5 -4 -11 5 -43 -30
-35 -38 3 -3 -3 -8 -15 -11 -12 -4 -19 -12 -17 -19 3 -7 -1 -19 -8 -26 -8 -8
-22 -32 -32 -54 -53 -116 -83 -165 -102 -165 -12 0 2 353 16 385 7 17 15 38
17 48 1 9 5 27 7 40 3 12 5 23 7 25 1 1 3 7 4 12 1 6 3 11 5 13 1 1 3 11 5 22
10 68 18 101 26 111 5 6 6 14 2 17 -3 4 -1 7 5 7 7 0 12 7 12 15 0 8 5 15 10
15 6 0 10 6 10 14 0 7 10 24 23 38 12 14 24 32 27 39 11 32 5 116 -9 149 -19
42 -27 51 -68 75 -30 18 -34 18 -110 1 -44 -9 -145 -21 -225 -26 -162 -10
-226 -22 -266 -48 -14 -9 -27 -15 -29 -12 -1 3 -10 -2 -20 -10 -10 -8 -30 -23
-45 -32 -14 -10 -29 -27 -33 -38 -4 -11 -9 -18 -13 -16 -8 5 -25 -14 -32 -34
-11 -36 -11 -150 0 -150 6 0 8 -4 5 -10 -3 -5 -1 -10 5 -10 6 0 9 -4 6 -9 -4
-5 -3 -11 1 -13 8 -3 28 -37 65 -109 25 -49 38 -172 38 -369 0 -128 5 -186 21
-260 27 -125 26 -122 38 -218 6 -45 14 -88 18 -95 9 -15 10 -21 18 -126 4 -47
9 -97 11 -111 3 -14 7 -113 10 -220 5 -171 10 -234 28 -365 3 -16 7 -73 10
-125 3 -52 8 -122 11 -155 3 -33 9 -125 15 -205 21 -299 28 -345 57 -390 41
-61 103 -93 171 -86 50 6 166 30 217 45 61 19 192 40 258 42 37 1 67 6 67 11
0 4 3 7 8 6 14 -3 57 20 85 46 39 36 59 88 47 121 -5 14 -7 25 -4 25 3 0 -1 6
-8 13 -7 8 -22 25 -32 40 -11 14 -23 24 -28 21 -4 -3 -8 0 -8 6 0 6 -7 18 -15
26 -8 9 -15 12 -15 8 0 -4 -11 5 -25 20 -13 14 -29 26 -35 26 -6 0 -8 4 -5 10
3 5 -3 15 -15 22 -11 7 -20 21 -20 30 0 10 -4 18 -10 18 -5 0 -10 6 -10 14 0
16 -31 78 -43 87 -4 3 -9 14 -11 25 -3 10 -12 37 -21 59 -15 34 -39 140 -51
225 -11 75 -34 181 -48 220 -10 25 -18 50 -19 55 -2 6 -6 16 -10 23 -29 45
-29 199 0 245 4 6 9 21 10 32 2 11 8 22 13 23 6 2 10 9 10 15 0 7 9 23 19 36
10 14 17 31 14 38 -3 7 -1 13 4 13 5 0 9 10 10 21 2 28 35 58 70 65 34 7 58
-17 98 -94 15 -29 31 -55 36 -58 5 -3 9 -14 9 -25 0 -10 5 -19 10 -19 6 0 9
-3 9 -7 -3 -14 25 -73 34 -73 4 0 6 -4 3 -9 -3 -5 1 -14 9 -21 8 -7 13 -16 10
-20 -3 -4 2 -13 10 -20 8 -7 15 -19 15 -26 0 -8 3 -14 8 -14 4 0 15 -20 25
-45 11 -25 23 -45 29 -45 5 0 6 -4 3 -10 -3 -5 -1 -10 4 -10 6 0 11 -4 11 -9
0 -5 20 -44 45 -87 62 -108 69 -118 80 -126 6 -4 10 -11 10 -15 1 -4 6 -18 13
-29 6 -12 8 -24 5 -28 -3 -3 -1 -6 5 -6 10 0 43 -51 42 -65 0 -3 6 -20 14 -39
8 -19 12 -37 9 -39 -2 -3 0 -14 5 -24 5 -10 13 -40 16 -66 8 -60 33 -127 55
-147 9 -9 17 -22 19 -30 2 -8 8 -16 13 -18 5 -2 9 -8 9 -13 0 -14 47 -59 54
-52 3 4 6 -1 6 -11 0 -9 5 -14 10 -11 6 3 10 1 10 -4 0 -6 3 -10 8 -9 4 0 24
-6 44 -15 21 -10 51 -17 68 -17 33 0 158 28 175 40 6 3 30 8 55 9 25 2 63 9
85 16 22 7 56 16 75 19 19 3 46 8 60 11 14 3 39 8 55 11 17 3 48 9 70 14 22 5
54 10 70 10 28 0 69 32 84 66 3 5 11 15 18 22 7 7 13 19 14 25 0 7 2 22 5 34
2 12 -1 25 -6 28 -6 4 -7 11 -4 17 4 7 2 8 -4 4 -7 -4 -12 -3 -12 2 0 14 -36
52 -49 52 -6 0 -11 5 -11 10 0 6 -7 10 -15 10 -8 0 -15 5 -15 10 0 6 -9 10
-20 10 -11 0 -20 4 -20 9 0 5 -20 15 -45 22 -25 7 -45 19 -45 26 0 7 -3 12 -7
11 -15 -3 -43 14 -37 23 5 8 -9 13 -28 10 -4 0 -10 8 -13 19 -4 11 -12 20 -18
20 -7 0 -23 14 -37 31 -14 18 -33 40 -42 50 -10 11 -18 22 -18 27 0 4 -11 19
-24 34 -14 14 -22 29 -19 32 4 3 -2 6 -11 6 -10 0 -16 5 -14 12 2 6 -3 19 -11
29 -27 28 -59 74 -59 82 -1 5 -10 17 -21 26 -12 10 -21 24 -21 30 0 7 -4 9
-10 6 -5 -3 -10 1 -10 9 0 8 -8 20 -17 25 -10 6 -15 11 -11 11 7 0 -17 32 -49
65 -7 7 -9 15 -6 19 4 3 1 6 -5 6 -7 0 -12 7 -12 15 0 8 -4 15 -10 15 -5 0
-10 5 -10 11 0 6 -7 17 -15 26 -8 8 -13 19 -10 24 4 5 2 9 -3 9 -5 0 -15 13
-22 30 -7 16 -16 27 -21 24 -5 -3 -9 4 -9 15 0 12 -5 21 -12 21 -6 0 -9 3 -5
6 5 5 -31 62 -53 84 -12 12 -30 51 -30 65 0 8 -7 15 -15 15 -8 0 -15 3 -14 8
2 14 -13 52 -21 52 -5 0 -12 9 -15 20 -3 11 -12 26 -20 33 -7 7 -25 37 -39 66
-15 28 -33 54 -41 58 -8 3 -12 9 -9 14 3 5 -2 12 -10 15 -9 3 -16 12 -16 18 0
18 -24 66 -32 66 -5 0 -8 9 -8 20 0 11 -4 20 -10 20 -5 0 -10 9 -10 19 0 11
-5 23 -10 26 -6 4 -8 10 -5 15 3 5 0 14 -7 22 -7 7 -15 22 -16 33 -2 11 -8 25
-13 32 -14 16 -8 103 7 118 7 7 11 14 9 17 -2 2 9 19 25 38 17 19 30 41 30 48
0 6 5 12 12 12 6 0 8 3 5 7 -4 3 1 12 11 19 9 7 17 16 17 21 0 4 16 37 35 73
19 35 34 68 33 72 -2 4 0 8 5 8 4 0 16 17 27 38 11 20 32 56 47 79 15 23 28
46 28 52 0 5 6 14 14 18 8 4 16 15 18 23 3 15 14 31 40 60 9 10 14 21 11 24
-3 3 2 8 11 12 9 3 16 13 16 21 0 8 3 12 8 10 4 -3 13 1 20 9 7 8 9 14 5 14
-4 0 9 16 30 35 21 19 35 35 31 35 -3 0 -1 6 5 13 6 8 8 17 4 20 -3 4 -1 7 5
7 7 0 11 3 11 8 -1 4 0 9 1 12 17 45 17 213 -1 248 -34 67 -96 93 -174 75z"/>
<path d="M9995 6705 c-5 -2 -93 -6 -195 -8 -102 -2 -196 -7 -210 -11 -69 -18
-292 -18 -445 -1 -129 16 -168 17 -223 7 -37 -6 -68 -16 -70 -22 -2 -5 -8 -10
-14 -10 -13 0 -38 -26 -32 -33 3 -3 -3 -8 -13 -11 -40 -13 -55 -120 -32 -241
4 -22 10 -72 14 -110 3 -39 8 -86 10 -105 7 -52 8 -739 2 -780 -4 -19 -9 -82
-12 -140 -8 -137 -9 -145 -50 -335 -2 -11 -6 -47 -9 -80 -17 -193 -66 -512
-86 -565 -1 -3 -2 -8 -1 -12 0 -5 -3 -8 -7 -8 -4 0 -8 -8 -9 -18 -1 -10 -14
-59 -28 -108 -15 -49 -27 -97 -27 -106 1 -10 -4 -20 -9 -23 -5 -4 -7 -11 -4
-16 4 -5 2 -9 -3 -9 -5 0 -9 -6 -10 -12 0 -7 -4 -29 -8 -48 -3 -19 -7 -39 -8
-45 -1 -5 -5 -16 -10 -24 -5 -7 -10 -55 -12 -105 -4 -92 -4 -92 28 -128 51
-56 91 -72 157 -63 80 11 423 14 506 4 39 -4 103 -8 144 -10 41 -1 113 -10
160 -20 131 -26 146 -28 287 -30 96 -1 151 -6 200 -20 153 -43 186 -45 255
-20 47 18 144 90 122 91 -4 0 -1 6 7 13 29 23 50 88 61 185 5 53 13 108 16
122 3 14 8 110 10 214 4 183 -3 246 -28 246 -5 0 -9 6 -9 13 0 23 -74 50 -119
42 -22 -4 -41 -11 -41 -15 0 -5 -9 -11 -19 -15 -24 -7 -91 -70 -91 -84 0 -6
-3 -10 -7 -9 -10 4 -59 -45 -55 -54 1 -5 -4 -8 -12 -8 -8 0 -18 -9 -21 -20 -4
-11 -10 -18 -15 -15 -5 3 -11 1 -15 -5 -9 -14 -125 -92 -125 -84 0 3 -6 2 -12
-3 -12 -9 -39 -13 -98 -16 -26 -1 -167 28 -210 43 -14 5 -56 12 -95 15 -122
11 -138 14 -147 27 -4 7 -8 9 -8 5 0 -16 -51 47 -58 72 -8 31 -8 128 2 196 3
28 9 70 12 95 4 25 8 105 9 179 2 117 4 136 20 148 11 7 15 13 10 13 -4 0 2 9
15 20 13 11 20 20 17 20 -17 0 36 40 60 46 16 4 33 11 39 16 7 5 16 8 20 7 5
-2 29 3 54 10 44 13 149 9 173 -6 7 -4 17 -8 22 -9 6 -1 40 -11 77 -20 66 -18
69 -18 104 1 19 10 46 29 59 41 13 12 27 19 31 15 4 -3 4 2 1 11 -3 9 -1 18 4
20 15 5 39 103 39 155 0 47 -20 123 -32 123 -5 0 -8 7 -8 15 0 8 -7 15 -15 15
-7 0 -18 6 -22 14 -4 7 -26 23 -48 35 -37 20 -53 21 -247 20 -195 -1 -210 0
-240 20 -18 11 -28 21 -23 21 6 0 3 4 -5 10 -27 17 -22 241 8 355 2 11 8 76
12 145 9 166 22 197 108 258 32 23 70 28 327 46 44 4 93 9 110 12 16 3 39 3
50 0 22 -6 75 -46 60 -46 -4 0 -1 -8 8 -18 20 -21 48 -98 40 -106 -4 -3 -1 -6
6 -6 7 0 10 -4 6 -9 -3 -6 1 -13 9 -18 8 -4 16 -12 18 -18 2 -5 7 -9 11 -7 5
1 6 -1 3 -6 -3 -5 3 -15 12 -23 55 -45 122 -55 163 -23 42 35 89 86 84 94 -3
5 -1 10 4 12 12 4 17 31 25 138 9 109 -16 346 -35 334 -5 -3 -9 3 -9 14 0 19
-99 117 -108 107 -3 -3 -16 2 -29 10 -35 23 -238 45 -278 30z"/>
<path d="M5240 3960 c0 -6 -4 -8 -10 -5 -5 3 -10 3 -10 -2 0 -4 -29 -30 -64
-58 -35 -27 -72 -62 -82 -77 -10 -14 -21 -25 -25 -22 -4 2 -10 -3 -13 -12 -3
-8 -11 -12 -17 -8 -7 4 -9 3 -6 -3 3 -5 -5 -17 -19 -27 -13 -11 -24 -23 -24
-29 0 -6 -6 -18 -14 -26 -8 -9 -16 -23 -18 -31 -2 -8 -7 -18 -11 -21 -5 -3 -9
-13 -11 -21 -1 -9 -7 -22 -12 -29 -36 -46 -62 -213 -44 -281 5 -18 11 -49 14
-68 17 -118 33 -180 46 -180 4 0 13 -19 19 -42 7 -23 21 -48 30 -55 9 -7 13
-13 9 -13 -5 0 0 -8 10 -18 9 -10 24 -28 32 -40 8 -12 20 -22 28 -22 7 0 15
-7 18 -15 4 -8 10 -12 15 -9 5 3 9 0 9 -5 0 -6 6 -11 13 -11 7 0 22 -8 33 -17
10 -10 43 -29 71 -43 29 -14 53 -29 53 -33 0 -5 4 -6 9 -2 5 3 16 -2 24 -10 9
-8 20 -15 26 -15 6 0 19 -4 29 -9 16 -9 120 -42 152 -48 8 -2 51 -8 95 -13 44
-6 88 -13 97 -16 23 -7 53 -13 123 -23 102 -16 127 -19 210 -26 44 -3 114 -10
155 -15 41 -5 113 -8 160 -5 48 2 124 -3 175 -12 84 -14 196 -13 280 2 17 3
44 7 60 10 17 3 39 7 51 9 12 2 45 7 75 11 30 3 80 13 111 21 32 8 93 18 135
23 43 5 89 12 103 15 65 17 112 23 156 19 27 -2 114 -5 194 -8 138 -3 190 -8
207 -18 5 -3 26 -8 48 -11 22 -4 54 -10 70 -15 17 -5 57 -12 90 -15 99 -9 115
-14 220 -62 19 -9 35 -23 35 -31 0 -8 3 -12 8 -10 4 3 13 -1 20 -9 7 -8 10
-14 5 -14 -4 0 2 -6 12 -14 11 -8 22 -13 25 -11 3 2 15 -8 25 -21 11 -14 37
-42 57 -64 20 -22 39 -48 43 -60 3 -11 11 -20 16 -20 6 0 7 -4 4 -10 -3 -5 -2
-10 3 -10 5 0 13 -15 17 -32 4 -18 9 -40 12 -48 10 -39 5 -79 -17 -125 -13
-27 -24 -54 -24 -58 -1 -4 -8 -12 -16 -17 -8 -5 -11 -10 -7 -10 13 0 -51 -58
-72 -65 -12 -3 -21 -11 -21 -16 0 -6 -4 -8 -9 -5 -5 4 -11 1 -13 -4 -2 -6 -14
-13 -28 -15 -14 -3 -35 -7 -47 -9 -29 -6 -85 10 -111 32 -11 9 -34 28 -51 42
-17 14 -31 30 -31 37 0 7 -4 13 -10 13 -5 0 -9 3 -9 8 1 4 0 9 -1 12 -7 19 -7
41 1 46 5 3 7 9 5 13 -3 4 4 14 15 22 12 8 33 24 47 36 24 20 42 27 63 25 3
-1 12 10 19 23 7 14 17 25 22 25 5 0 8 19 6 41 -3 54 -39 79 -114 79 -56 0
-155 -26 -166 -44 -4 -6 -8 -7 -8 -3 0 4 -11 -4 -25 -19 -14 -15 -25 -24 -25
-20 0 4 -6 1 -14 -6 -8 -7 -12 -16 -10 -19 2 -3 -5 -15 -16 -27 -30 -32 -43
-101 -36 -199 8 -115 9 -123 19 -123 4 0 6 -4 3 -8 -3 -5 4 -15 15 -22 10 -8
19 -20 19 -27 0 -7 4 -13 10 -13 5 0 9 -4 7 -8 -2 -9 60 -72 71 -72 4 0 19
-11 34 -24 14 -14 29 -22 32 -19 3 4 6 2 6 -4 0 -6 20 -16 45 -23 48 -14 262
-7 345 11 46 10 145 69 197 117 16 15 45 41 64 58 42 38 74 77 71 87 -1 4 3 7
8 7 6 0 10 7 10 15 0 8 4 15 10 15 5 0 9 3 9 8 -1 4 0 10 1 15 1 4 3 10 4 15
1 4 7 16 13 27 32 61 46 197 27 268 -8 29 -16 63 -19 77 -3 14 -7 36 -10 50
-6 30 -26 72 -40 82 -6 5 -6 8 0 8 5 0 -1 7 -13 16 -12 8 -20 20 -17 25 4 5
-1 9 -10 9 -9 0 -14 4 -11 8 3 5 -6 15 -19 22 -14 7 -25 17 -25 22 0 4 -7 8
-16 8 -8 0 -13 4 -10 9 3 4 -6 13 -19 19 -14 7 -25 15 -25 20 0 9 -78 37 -92
34 -5 -1 -8 2 -8 7 0 5 -16 12 -35 15 -19 4 -35 11 -35 16 0 6 -3 9 -7 8 -5
-1 -29 7 -55 19 -64 29 -91 36 -183 50 -22 3 -49 10 -60 16 -11 6 -103 14
-205 18 -102 5 -203 12 -225 16 -22 4 -74 7 -115 7 -41 -1 -141 -2 -222 -2
-95 -1 -170 -7 -215 -17 -116 -27 -146 -34 -213 -44 -36 -6 -108 -18 -160 -27
-75 -13 -132 -15 -270 -10 -169 7 -249 13 -294 22 -12 3 -79 9 -151 14 -71 5
-143 12 -160 14 -16 3 -57 8 -90 11 -33 3 -70 8 -82 10 -12 3 -46 8 -75 11
-29 3 -56 8 -61 11 -4 2 -20 7 -35 10 -33 6 -42 8 -62 15 -8 3 -40 13 -70 23
-30 10 -65 24 -77 32 -13 7 -23 11 -23 7 0 -3 -18 8 -39 25 -21 17 -42 31 -46
31 -11 0 -85 78 -85 90 0 5 -5 10 -11 10 -5 0 -7 5 -4 10 3 6 0 13 -9 16 -15
6 -76 123 -76 147 0 7 -3 17 -7 21 -16 15 -19 128 -4 174 5 17 8 32 6 32 -4 0
27 38 57 70 9 10 14 21 11 23 -2 3 5 8 16 12 12 3 21 13 21 21 0 8 12 20 27
27 15 6 37 21 50 33 38 35 160 79 219 78 57 -1 137 -36 181 -80 13 -13 30 -21
36 -18 7 4 9 4 5 0 -3 -4 8 -22 25 -39 18 -18 38 -45 46 -62 7 -16 17 -37 21
-45 14 -29 3 -79 -21 -99 -23 -18 -25 -18 -59 -1 -20 10 -47 33 -60 51 -56 74
-66 81 -112 78 -61 -5 -75 -26 -80 -126 -5 -72 -2 -89 19 -137 14 -29 36 -59
49 -66 13 -8 24 -17 24 -22 0 -5 5 -6 10 -3 6 3 17 -1 26 -9 8 -9 23 -16 33
-16 9 0 22 -5 29 -12 17 -17 165 -20 212 -3 40 14 51 21 94 62 13 12 27 19 32
15 4 -4 4 -2 1 5 -4 6 -1 18 7 26 8 8 12 17 9 21 -4 3 -1 6 6 6 7 0 10 4 7 9
-4 5 -2 11 4 13 18 6 25 50 25 163 0 106 -14 175 -36 175 -5 0 -9 6 -9 14 0 7
-18 32 -40 55 -22 22 -40 43 -40 46 0 9 -40 45 -49 45 -5 0 -11 4 -13 8 -1 4
-23 23 -48 42 -24 19 -50 40 -57 47 -7 6 -23 15 -36 19 -12 4 -24 10 -27 14
-3 3 -25 15 -50 25 -38 16 -78 19 -247 22 -145 3 -203 1 -203 -7z"/>
<path d="M13857 3919 c-27 -4 -55 -13 -63 -19 -8 -7 -14 -9 -14 -5 0 4 -10 1
-22 -7 -13 -8 -39 -20 -58 -26 -19 -7 -50 -25 -69 -41 -19 -17 -38 -28 -43
-25 -4 3 -8 -2 -8 -10 0 -9 -4 -16 -10 -16 -5 0 -10 -5 -10 -10 0 -6 -10 -21
-23 -33 -24 -22 -63 -96 -74 -138 -20 -79 -7 -299 17 -284 4 3 13 -8 19 -23 7
-16 21 -35 33 -43 12 -8 28 -22 37 -31 8 -10 21 -18 28 -18 7 0 13 -4 13 -10
0 -5 7 -10 15 -10 8 0 15 -4 15 -9 0 -10 74 -36 134 -47 39 -7 146 12 157 28
3 5 15 10 27 13 12 2 27 9 34 14 49 41 83 75 80 83 -1 4 2 8 8 8 5 0 14 17 21
38 9 32 8 44 -5 70 -17 33 -47 55 -81 58 -22 2 -108 -40 -99 -49 3 -3 -17 -12
-44 -21 -47 -16 -102 -14 -102 3 0 5 -17 20 -37 34 -21 15 -35 27 -31 27 3 0
2 16 -3 35 -19 68 35 167 129 234 17 12 36 19 42 16 5 -3 10 -1 10 4 0 17 117
13 150 -4 16 -8 37 -16 47 -18 23 -3 113 -59 113 -69 0 -5 6 -8 13 -8 7 0 23
-9 34 -19 12 -11 24 -17 27 -14 3 4 6 -1 6 -10 0 -9 5 -17 11 -17 16 0 65 -56
61 -69 -2 -6 3 -14 12 -17 9 -3 16 -14 16 -23 0 -9 5 -22 11 -28 25 -25 19
-236 -8 -303 -4 -8 -7 -17 -8 -20 0 -3 -9 -20 -18 -37 -10 -18 -14 -33 -10
-33 4 0 -2 -7 -13 -15 -10 -8 -15 -15 -11 -15 4 0 -16 -22 -45 -50 -28 -27
-54 -48 -56 -46 -2 2 -14 -6 -26 -18 -13 -11 -41 -27 -62 -35 -22 -8 -51 -22
-65 -32 -14 -10 -29 -16 -33 -12 -3 3 -6 1 -6 -5 0 -7 -3 -11 -7 -10 -8 1 -32
-6 -73 -25 -14 -6 -29 -10 -34 -8 -4 1 -13 -2 -20 -7 -6 -5 -49 -10 -96 -11
-88 -2 -157 -8 -200 -17 -14 -3 -43 -8 -65 -10 -22 -3 -63 -11 -92 -18 -117
-31 -691 -25 -863 9 -14 2 -40 7 -58 10 -19 2 -37 7 -41 10 -9 5 -62 11 -176
20 -38 3 -88 10 -110 15 -22 5 -40 9 -40 9 0 0 -11 2 -25 4 -64 14 -150 27
-195 32 -52 5 -70 7 -220 26 -82 10 -215 7 -236 -7 -5 -3 -17 -7 -26 -9 -10
-3 -36 -9 -58 -15 -22 -6 -44 -12 -50 -13 -5 -2 -36 -15 -69 -30 -32 -15 -62
-27 -67 -27 -5 0 -9 -5 -9 -12 0 -6 -3 -9 -6 -6 -3 4 -14 -1 -24 -10 -57 -53
-82 -72 -92 -72 -6 0 -8 -3 -5 -6 4 -4 -3 -15 -15 -25 -11 -11 -18 -19 -15
-19 4 0 -6 -13 -21 -29 -42 -46 -53 -61 -46 -61 3 0 1 -7 -6 -15 -7 -8 -10
-15 -7 -15 3 0 -1 -19 -8 -43 -7 -24 -16 -90 -20 -147 -6 -95 -4 -120 18 -205
2 -5 8 -20 15 -32 7 -12 12 -33 12 -47 0 -14 4 -26 10 -26 5 0 9 -3 9 -7 -4
-25 2 -53 11 -48 6 3 10 -1 10 -9 0 -9 5 -16 10 -16 6 0 10 -5 10 -10 0 -15
55 -70 69 -70 7 0 10 -4 7 -8 -3 -5 10 -15 29 -22 19 -8 35 -17 35 -21 0 -8
99 -52 118 -52 6 0 12 -4 12 -9 0 -4 3 -7 8 -6 4 0 14 -1 22 -5 63 -24 227
-35 262 -16 10 5 18 7 18 3 0 -3 21 7 48 22 26 15 49 27 52 27 9 -1 35 10 40
18 3 3 27 21 54 38 28 17 47 31 43 31 -4 0 12 19 36 43 57 54 84 126 86 229 1
43 -1 83 -6 90 -4 7 -8 15 -9 18 -4 22 -25 60 -34 60 -5 0 -10 5 -10 10 0 14
-75 90 -89 90 -6 0 -11 5 -11 11 0 5 -4 7 -10 4 -5 -3 -10 -1 -10 4 0 6 -3 10
-7 9 -5 -1 -18 3 -31 10 -31 18 -137 26 -169 14 -16 -5 -36 -13 -46 -16 -9 -3
-21 -7 -25 -8 -12 -5 -99 -92 -101 -103 -12 -66 2 -108 40 -120 11 -4 17 -9
15 -13 -2 -4 8 -8 22 -9 31 -2 92 23 92 38 0 6 4 8 9 4 5 -3 12 -2 15 3 16 26
126 -8 126 -39 0 -6 7 -17 15 -26 11 -10 14 -26 11 -48 -6 -38 -26 -85 -36
-85 -4 0 -17 -9 -30 -20 -13 -11 -19 -20 -14 -20 16 0 -36 -32 -69 -41 -50
-15 -157 -20 -157 -7 0 6 -3 8 -6 5 -14 -14 -134 93 -134 119 0 8 -6 14 -14
14 -8 0 -18 9 -21 20 -3 11 -10 20 -14 20 -11 0 -41 70 -46 107 -4 35 44 140
71 156 8 5 12 12 9 16 -2 5 13 25 35 45 22 20 40 42 40 48 0 6 3 9 6 5 3 -3
19 8 36 24 17 16 34 26 39 24 4 -3 10 4 14 15 3 11 14 20 23 20 10 0 27 7 38
15 12 8 24 11 28 8 3 -3 6 -1 6 5 0 7 3 11 8 11 4 -1 10 0 15 1 4 1 12 4 17 5
6 1 11 3 13 5 18 14 233 21 302 9 77 -13 108 -19 135 -25 26 -6 46 -8 165 -19
39 -4 88 -11 110 -17 22 -6 50 -12 62 -13 13 -2 42 -6 65 -10 73 -11 90 -13
193 -20 55 -4 115 -9 133 -11 126 -19 268 -19 397 0 22 3 67 8 100 11 33 4 89
11 125 16 36 5 135 14 220 19 85 5 166 11 180 14 14 3 36 8 50 11 14 3 49 8
78 10 29 2 58 7 65 12 6 4 18 8 26 10 8 1 17 6 20 11 6 9 36 23 59 28 8 1 22
10 33 20 10 9 19 13 19 9 0 -5 7 0 15 11 8 10 15 16 15 11 0 -9 103 42 112 57
4 6 10 7 14 3 4 -4 16 0 26 10 10 9 18 13 18 10 0 -4 9 1 19 11 79 73 97 87
106 84 5 -2 7 0 2 4 -4 4 1 16 10 27 13 15 14 19 3 13 -9 -5 -8 -2 2 7 10 8
15 17 11 20 -3 4 -1 7 6 7 7 0 9 5 6 10 -3 6 -1 10 5 10 6 0 9 4 6 9 -3 5 1
12 10 15 9 4 14 9 11 13 -4 3 -1 13 5 21 7 8 13 19 14 26 1 6 10 29 20 51 10
22 18 42 19 45 6 31 19 88 22 100 13 54 14 163 2 211 -7 30 -12 57 -11 62 1 4
-3 7 -9 7 -5 0 -8 4 -5 8 10 17 -63 146 -105 183 -16 15 -29 32 -29 38 0 7 -4
9 -10 6 -5 -3 -10 0 -10 7 -1 7 -37 31 -80 52 -44 22 -80 43 -80 48 0 4 -9 8
-20 8 -11 0 -20 5 -20 11 0 5 -4 7 -10 4 -5 -3 -10 -3 -10 2 0 11 -105 60
-158 73 -45 12 -135 11 -215 -1z"/>
<path d="M9660 2893 c-8 -3 -23 -12 -32 -21 -10 -8 -18 -12 -18 -7 0 4 -10 -5
-22 -21 -13 -16 -30 -37 -38 -47 -8 -10 -15 -21 -15 -25 -1 -4 -6 -17 -13 -28
-6 -12 -15 -47 -18 -78 -8 -68 13 -116 63 -147 30 -19 93 -23 93 -6 0 4 4 6 9
3 5 -3 14 1 21 8 15 19 69 31 82 18 6 -6 16 -8 22 -6 16 6 58 -79 64 -131 3
-28 -2 -55 -14 -80 -22 -48 -107 -133 -140 -141 -32 -8 -98 2 -102 16 -2 5
-10 10 -18 10 -9 0 -13 3 -11 8 6 11 -106 116 -128 120 -21 4 -95 -27 -95 -40
0 -5 -4 -7 -8 -4 -10 6 -11 1 -18 -77 -6 -58 19 -157 39 -157 4 0 5 -5 2 -10
-3 -6 1 -13 9 -16 9 -3 13 -10 10 -15 -3 -5 -1 -9 5 -9 5 0 13 -9 16 -20 4
-11 10 -18 15 -15 5 3 15 -3 22 -12 17 -24 94 -73 121 -79 12 -2 23 -8 25 -14
2 -5 12 -10 22 -10 10 0 25 -7 34 -15 8 -9 18 -16 21 -15 3 0 8 0 13 -1 51 -7
89 5 119 37 18 19 29 34 25 34 -4 0 2 7 12 15 11 8 16 15 12 15 -4 0 22 29 58
65 36 36 70 65 75 65 6 0 11 4 11 8 0 30 77 -14 141 -80 36 -37 66 -54 117
-63 15 -3 36 -7 47 -9 70 -14 176 -17 190 -6 8 7 15 9 15 6 0 -4 6 -2 13 4 46
39 61 50 69 50 5 0 6 5 3 10 -3 6 -1 10 4 10 6 0 11 5 11 10 0 6 11 21 25 34
14 13 25 29 25 35 0 6 7 14 15 17 20 8 30 86 15 115 -18 33 -53 65 -81 74 -37
12 -73 13 -86 2 -7 -5 -13 -6 -13 -1 0 5 -4 3 -9 -4 -4 -7 -18 -14 -29 -15
-12 -1 -22 -5 -22 -9 0 -4 -10 -8 -22 -8 -13 0 -32 -1 -43 -1 -33 -1 -56 7
-66 22 -5 8 -9 10 -9 6 0 -8 -7 -2 -59 43 -56 50 -66 109 -30 178 24 44 69
100 69 86 0 -5 4 -3 9 5 7 11 13 11 37 -1 16 -8 28 -20 27 -26 -2 -7 1 -12 7
-12 6 0 10 -7 10 -16 0 -8 5 -12 10 -9 6 3 10 1 10 -6 0 -18 41 -49 65 -49 24
0 77 43 92 75 15 30 16 118 3 181 -15 69 -75 136 -137 153 -72 20 -157 20
-197 0 -20 -9 -36 -14 -36 -11 0 4 -5 0 -10 -8 -5 -8 -13 -15 -18 -15 -5 0
-25 -17 -45 -37 -20 -21 -41 -38 -47 -38 -5 0 -10 -5 -10 -11 0 -5 -4 -7 -10
-4 -5 3 -10 1 -10 -4 0 -6 -8 -11 -18 -11 -22 0 -72 22 -72 33 0 4 -7 7 -16 7
-8 0 -12 5 -9 10 3 6 2 10 -3 10 -4 0 -18 9 -30 20 -12 12 -22 18 -22 15 0 -4
-7 0 -15 7 -33 30 -43 36 -76 46 -49 15 -92 20 -109 15z"/>
</g>
</svg>
